<svg width="81" height="81" viewBox="0 0 81 81" fill="none" xmlns="http://www.w3.org/2000/svg">
<path d="M46.0567 62.1643L48.2554 69.6466C47.6647 70.3422 47.2938 71.2299 47.2938 72.2114C47.2938 74.4101 49.0852 76.1983 51.2871 76.1983C53.2396 76.1983 54.8595 74.7777 55.193 72.9149H62.904C63.1311 74.8984 64.8009 76.45 66.8448 76.45C69.0451 76.45 70.8349 74.6618 70.8349 72.4639C70.8349 70.2628 69.0451 68.4714 66.8448 68.4714C65.3496 68.4714 64.0601 69.3099 63.378 70.5327H54.8817C54.2473 69.1733 52.8799 68.2237 51.2871 68.2237C50.9647 68.2237 50.6558 68.2721 50.3557 68.3444L49.0741 63.9835H68.9824C69.5565 63.9835 70.048 63.5753 70.1536 63.0116L73.757 43.7155C73.8221 43.3677 73.7284 43.008 73.5029 42.7364C73.2766 42.4633 72.9407 42.306 72.5865 42.306H41.9237L40.6135 38.3882C40.4508 37.9031 39.9966 37.5751 39.4844 37.5751H34.6066C33.9483 37.5751 33.4155 38.1079 33.4155 38.7662C33.4155 39.4245 33.9483 39.9573 34.6066 39.9573H38.6268L46.0567 62.1643ZM71.1525 44.6882L67.993 61.6021H48.3801L48.3301 61.4529L48.2284 61.1082C48.2086 61.0399 48.1808 60.9764 48.1498 60.9153L42.7201 44.6882H71.1525ZM66.8448 70.8551C67.7318 70.8551 68.4527 71.5777 68.4527 72.4655C68.4527 73.3492 67.7318 74.0694 66.8448 74.0694C65.9602 74.0694 65.24 73.35 65.24 72.4655C65.24 71.5777 65.9594 70.8551 66.8448 70.8551ZM52.8815 72.2122C52.8815 73.0967 52.1661 73.8169 51.2863 73.8169C50.3978 73.8169 49.6752 73.0967 49.6752 72.2122C49.6752 71.3276 50.3978 70.6074 51.2863 70.6074C52.1653 70.6066 52.8815 71.3268 52.8815 72.2122Z" fill="black"/>
<path d="M34.3406 55.8207H9.00976V19.3065H64.9748V36.388C64.9748 37.0463 65.5084 37.5791 66.1659 37.5791C66.8233 37.5791 67.3569 37.0463 67.3569 36.388V5.14474C67.3569 4.48648 66.8233 3.95367 66.1659 3.95367H7.81869C7.16043 3.95367 6.62762 4.48648 6.62762 5.14474V57.0117C6.62762 57.6692 7.16043 58.2028 7.81869 58.2028H34.3406C34.9988 58.2028 35.5316 57.6692 35.5316 57.0117C35.5316 56.3543 34.9988 55.8207 34.3406 55.8207ZM64.9748 6.33581V16.9244H9.00976V6.33581H64.9748Z" fill="black"/>
<path d="M23.7798 12.5675H28.533C29.1912 12.5675 29.724 12.0347 29.724 11.3764C29.724 10.7182 29.1912 10.1854 28.533 10.1854H23.7798C23.1215 10.1854 22.5887 10.7182 22.5887 11.3764C22.5887 12.0347 23.1215 12.5675 23.7798 12.5675Z" fill="black"/>
<path d="M14.0051 12.5675H18.7582C19.4165 12.5675 19.9493 12.0347 19.9493 11.3764C19.9493 10.7182 19.4165 10.1854 18.7582 10.1854H14.0051C13.3468 10.1854 12.814 10.7182 12.814 11.3764C12.814 12.0347 13.3468 12.5675 14.0051 12.5675Z" fill="black"/>
</svg>
