<svg width="600" height="101" viewBox="0 0 600 101" fill="none" xmlns="http://www.w3.org/2000/svg">
<g clip-path="url(#clip0_28_8)">
<path d="M20.8362 12.2921C28.393 6.9934 37.3368 3.99818 46.6028 3.66322C55.8684 3.3284 65.0654 5.6679 73.0972 10.4032C81.1292 15.1385 87.6574 22.0696 91.9044 30.371C96.151 38.6722 97.9374 47.9938 97.0504 57.2242C96.163 66.455 92.64 75.2058 86.9006 82.434C81.1612 89.662 73.4476 95.0626 64.6792 97.9924C55.9104 100.922 46.4564 101.257 37.444 98.9576C28.4314 96.6582 20.24 91.8214 13.8459 85.0232L18.4152 80.7244C23.9756 86.636 31.0992 90.8424 38.9366 92.8422C46.7744 94.8418 54.996 94.5504 62.6214 92.0026C70.2468 89.4552 76.9546 84.7584 81.9458 78.4726C86.937 72.187 90.0008 64.577 90.7724 56.5498C91.5438 48.5222 89.9904 40.4162 86.2972 33.197C82.604 25.978 76.9268 19.9502 69.942 15.8325C62.9574 11.7145 54.9594 9.68002 46.9016 9.9713C38.8436 10.2624 31.0656 12.8673 24.4942 17.4753L20.8362 12.2921Z" fill="#C75E3E"/>
<path d="M100 50.6356C100 60.5248 97.0674 70.1916 91.5732 78.414C86.0794 86.6366 78.2702 93.045 69.134 96.8296C59.9976 100.614 49.9444 101.604 40.2456 99.6748C30.5464 97.7456 21.6372 92.9836 14.6447 85.991C7.65202 78.9982 2.88996 70.089 0.960681 60.39C-0.968463 50.691 0.0216944 40.638 3.80602 31.5016C7.59034 22.3652 13.999 14.5564 22.2216 9.06222C30.4438 3.56806 40.111 0.63562 50 0.63562V12.6214C42.4814 12.6214 35.1318 14.8509 28.8802 19.0279C22.629 23.2048 17.7566 29.1422 14.8794 36.0882C12.0023 43.0344 11.2493 50.6776 12.7162 58.0518C14.1829 65.4258 17.8035 72.1992 23.1198 77.5156C28.4362 82.832 35.2096 86.4524 42.5836 87.9192C49.9578 89.386 57.6012 88.6334 64.5472 85.756C71.4934 82.879 77.4306 78.0064 81.6076 71.755C85.7846 65.5036 88.0142 58.1542 88.0142 50.6356H100Z" fill="#4E3099"/>
<mask id="mask0_28_8" style="mask-type:luminance" maskUnits="userSpaceOnUse" x="32" y="22" width="33" height="51">
<path d="M64.249 22.6356H32.999V72.6356H64.249V22.6356Z" fill="white"/>
</mask>
<g mask="url(#mask0_28_8)">
<path fill-rule="evenodd" clip-rule="evenodd" d="M55.6694 34.1338L55.6662 34.117C55.6632 34.102 55.6586 34.0778 55.6522 34.0448C55.64 33.9786 55.622 33.8782 55.6006 33.748C55.558 33.4876 55.503 33.1112 55.4546 32.6576C55.357 31.7418 55.292 30.5538 55.4 29.392C55.5104 28.2026 55.7884 27.1992 56.251 26.5296C56.652 25.9496 57.2196 25.5616 58.2474 25.5616C58.8978 25.5616 59.3448 25.7124 59.672 25.916C60.008 26.125 60.3022 26.4428 60.5556 26.8924C61.0788 27.8214 61.3292 29.134 61.4346 30.5388C61.4264 31.9604 61.2334 33.3708 60.8634 34.7214C59.818 37.583 59.742 40.7812 60.647 43.7008C60.6642 43.756 60.6844 43.81 60.708 43.863C60.8764 44.2392 60.9818 44.659 61.0122 45.0966C61.017 45.1666 61.0272 45.2356 61.0418 45.3036C61.5328 47.547 61.3882 49.9128 60.6352 52.0462C59.882 54.1796 58.573 55.9348 56.942 57.0882C56.6036 57.3274 56.3826 57.6938 56.332 58.0988C56.2818 58.5042 56.4066 58.9116 56.6764 59.223C57.1636 59.7854 57.3084 60.2748 57.3244 60.6808C57.3418 61.1136 57.2158 61.5654 56.9852 62.0164C56.7552 62.4666 56.4488 62.8606 56.188 63.1488C56.0602 63.2902 55.9494 63.3992 55.8744 63.4698C55.8372 63.505 55.8092 63.5302 55.793 63.5444L55.7794 63.5564C55.2 64.0436 55.0886 64.8774 55.513 65.4902C55.5168 65.4976 55.5224 65.5104 55.5284 65.5276C55.5476 65.5834 55.5744 65.6944 55.5446 65.861C55.4906 66.1624 55.1574 67.0858 53.0104 68.325C51.1956 69.3718 48.7132 69.3072 46.0404 68.6024C43.4182 67.9102 40.9324 66.6864 39.3692 65.8444C38.4364 65.342 37.9372 64.1974 37.7646 62.748C37.6842 62.0702 37.689 61.4276 37.7158 60.9496C37.7292 60.7126 37.7476 60.5218 37.762 60.3936C37.769 60.3296 37.7754 60.2816 37.7794 60.2518L37.7838 60.2212L37.784 60.2186C37.8564 59.754 37.6964 59.2822 37.3534 58.9522C37.2708 58.8724 37.1282 58.6708 36.991 58.2612C36.8586 57.866 36.7612 57.3692 36.7014 56.8034C36.684 56.637 36.6698 56.468 36.659 56.298C37.2314 56.323 37.7928 56.025 38.067 55.4926C38.44 54.7694 38.1422 53.888 37.4022 53.5238C37.1566 53.4032 36.9192 53.2388 36.699 53.0324C36.6028 52.6188 36.3258 52.2654 35.9454 52.0658C35.9028 51.9462 35.8802 51.8108 35.8834 51.67C35.8846 51.621 35.8832 51.5724 35.8794 51.5238C35.8306 50.905 36.2468 50.2182 37.0822 49.5298C37.4642 49.2144 37.861 48.962 38.1672 48.7866C38.3184 48.7004 38.443 48.6354 38.5258 48.594C38.5674 48.5732 38.5982 48.5584 38.6164 48.5496L38.6334 48.5418C38.6334 48.5418 36.7824 48.9696 36.1566 47.6374C35.5306 46.305 37.379 45.8786 37.379 45.8786L37.3758 45.8798L37.3706 45.8824L37.3554 45.8892C37.3554 45.8892 37.3464 45.8936 37.3412 45.8958C37.3322 45.9 37.3212 45.9052 37.3092 45.9108C37.2716 45.9288 37.22 45.9532 37.1572 45.985C37.0314 46.048 36.8578 46.139 36.6526 46.256C36.504 46.341 36.3364 46.4414 36.1566 46.5566C36.0912 46.2464 36.0582 45.9292 36.0582 45.6118C36.0582 44.8142 36.2666 44.019 36.6768 43.3294C36.6634 43.3572 36.65 43.3856 36.6372 43.414L38.006 44.0134L36.7262 43.2486C36.7096 43.2756 36.693 43.3024 36.6768 43.3294C37.409 41.8176 38.9008 40.9104 40.363 40.348C41.8866 39.762 43.6522 39.4434 45.2712 39.2676C46.9038 39.0904 48.4624 39.051 49.6068 39.0552C50.181 39.057 50.6556 39.07 50.9888 39.0824C51.1056 39.0868 51.2052 39.0912 51.2858 39.095C51.233 39.1108 51.1788 39.1246 51.123 39.1356L51.429 40.5708L51.331 42.0338L51.3272 42.0334L51.307 42.032C51.2884 42.031 51.2592 42.0294 51.2202 42.0274C51.1422 42.0234 51.0248 42.018 50.8732 42.0122C50.5698 42.001 50.1304 41.9886 49.5962 41.9868C48.5232 41.9832 47.0858 42.0206 45.6022 42.1816C44.105 42.3442 42.6348 42.6248 41.4616 43.076C40.254 43.5406 39.6164 44.0858 39.3746 44.6132C39.3484 44.67 39.3188 44.7252 39.2854 44.7784C39.1462 45.0012 39.058 45.2932 39.058 45.6118C39.058 45.9306 39.1462 46.2228 39.2854 46.4452C39.5092 46.8026 39.5658 47.2366 39.4408 47.6374C39.316 48.0378 39.0226 48.3668 38.6334 48.5418L36.1566 47.6374L36.7262 47.9754C36.453 47.5386 36.2626 47.0564 36.1566 46.5566C35.845 46.7562 35.4968 47.001 35.1476 47.2884C34.1308 48.1268 32.756 49.6278 32.8832 51.677C32.8808 52.1532 32.9632 52.6294 33.1296 53.0782C33.2598 53.4282 33.441 53.761 33.6714 54.061C33.6132 54.9816 33.6072 56.0632 33.7172 57.1046C33.7906 57.7994 33.9198 58.5168 34.14 59.1738C34.2808 59.5936 34.4732 60.0332 34.7446 60.4366C34.7358 60.5434 34.7276 60.6614 34.7202 60.7892C34.6872 61.3794 34.679 62.1966 34.7846 63.0866C34.9852 64.7722 35.6578 67.1932 37.921 68.4124C39.5536 69.2916 42.288 70.6492 45.2588 71.433C48.1794 72.2032 51.6626 72.5074 54.5354 70.8496C57.0758 69.3838 58.234 67.8484 58.4996 66.3668C58.5908 65.8594 58.566 65.4076 58.49 65.03C58.8534 64.621 59.3052 64.0384 59.669 63.3262C60.0514 62.5782 60.3648 61.6316 60.3222 60.566C60.2958 59.903 60.1324 59.234 59.8074 58.5784C61.4444 57.1054 62.7028 55.179 63.4712 53.0024C64.3934 50.3896 64.5748 47.5186 63.9968 44.7892C63.937 44.0948 63.7686 43.4128 63.4952 42.7758C62.7948 40.4576 62.871 37.9138 63.7058 35.6602C63.72 35.6226 63.7324 35.5842 63.7432 35.5454C64.198 33.909 64.4308 32.2054 64.4348 30.4924C64.4348 30.4568 64.4338 30.4214 64.431 30.3858C64.321 28.8598 64.0388 26.997 63.1834 25.479C62.7444 24.699 62.133 23.9718 61.2836 23.4432C60.4258 22.9092 59.4078 22.6298 58.2474 22.6298C56.1856 22.6298 54.7024 23.5326 53.765 24.8888C52.8894 26.1556 52.5414 27.734 52.4122 29.1268C52.2802 30.547 52.3618 31.9408 52.4708 32.9616C52.5256 33.4764 52.5886 33.9066 52.6384 34.211C52.6632 34.3634 52.685 34.4848 52.7008 34.57C52.7084 34.61 52.7146 34.6426 52.7192 34.666L52.7206 34.6756C52.7244 34.704 52.7304 34.7502 52.7368 34.8122C52.7506 34.9358 52.767 35.1194 52.777 35.3444C52.7974 35.8012 52.7902 36.3938 52.6918 36.986C52.4954 38.1696 52.0518 38.866 51.2858 39.095C51.3202 39.097 51.3512 39.0982 51.3788 39.0996C51.4014 39.101 51.4216 39.1018 51.4392 39.103C51.4572 39.1038 51.4724 39.1048 51.485 39.1054L51.5144 39.1074L51.523 39.1078H51.5256C51.5256 39.1078 51.5272 39.1082 51.429 40.5708C51.331 42.0338 51.331 42.0338 51.331 42.0338C51.4662 42.0424 51.6026 42.033 51.7352 42.0058C54.4906 41.4446 55.3836 39.0794 55.653 37.4552C55.7944 36.6026 55.8002 35.7966 55.7742 35.2158C55.7608 34.9218 55.7392 34.6776 55.7202 34.5026C55.7106 34.415 55.7018 34.3442 55.6948 34.2932C55.6916 34.2674 55.6886 34.2468 55.6864 34.2312L55.6834 34.2118L55.6822 34.205L55.6816 34.2014C55.6816 34.2014 55.6818 34.2004 54.199 34.4234L55.6816 34.2014C55.6782 34.1794 55.674 34.1556 55.6694 34.1338ZM33.6714 54.061C33.728 54.1348 33.7874 54.2062 33.85 54.2756L33.6714 54.061ZM32.8832 51.677C32.8846 51.7008 32.8862 51.7248 32.8882 51.7488L34.3838 51.6364L32.884 51.603C32.8836 51.6276 32.8832 51.6524 32.8832 51.677Z" fill="#4E3099"/>
<path fill-rule="evenodd" clip-rule="evenodd" d="M43.8478 48.0454L43.8706 48.0534L43.9428 48.0788C44.0066 48.1014 44.1016 48.1346 44.2236 48.177C44.4682 48.2616 44.821 48.3828 45.2522 48.5264C46.116 48.8146 47.2884 49.1926 48.5292 49.5542C49.775 49.9176 51.0644 50.2568 52.1692 50.475C52.7218 50.584 53.2048 50.658 53.599 50.6918C53.9504 50.722 54.162 50.7138 54.264 50.701C55.7406 50.2568 57.3052 50.3866 58.6982 51.0584C58.7468 51.0816 58.7938 51.1076 58.8396 51.136C59.9296 51.8134 60.4766 52.791 60.6224 53.8202C60.7586 54.7798 60.5408 55.717 60.2754 56.4548C60.0044 57.2098 59.6384 57.8788 59.3518 58.3472C59.2064 58.5846 59.0762 58.779 58.9802 58.9166C58.9322 58.9856 58.8926 59.0408 58.8634 59.0804C58.8488 59.1004 58.8368 59.1164 58.8282 59.1284L58.8166 59.1432L58.8128 59.1484L58.8106 59.1514C58.8104 59.1516 58.8102 59.1522 57.6084 58.2746C58.5756 59.3952 58.5746 59.396 58.5732 59.397L58.571 59.399L58.5658 59.403L58.5544 59.4124C58.5462 59.419 58.5366 59.4262 58.526 59.4344C58.5048 59.4512 58.4788 59.4708 58.4476 59.4932C58.3858 59.538 58.3042 59.5938 58.2026 59.6576C57.999 59.7848 57.7154 59.9426 57.347 60.1038C56.6076 60.4282 55.5386 60.7622 54.1082 60.9016C51.2412 61.18 47.0192 60.6662 41.1814 57.8698C40.4374 57.5132 40.13 56.635 40.4946 55.908C40.8592 55.181 41.7578 54.8804 42.5018 55.237C47.9564 57.85 51.6178 58.197 53.8112 57.9838C54.9112 57.877 55.6664 57.6272 56.1188 57.4288C56.3052 57.3472 56.4426 57.2732 56.5328 57.2198C56.598 57.1248 56.683 56.9962 56.7774 56.842C57.0034 56.4728 57.2634 55.989 57.445 55.4836C57.6324 54.9616 57.6944 54.5308 57.6508 54.2226C57.6194 54.0012 57.5378 53.8216 57.2918 53.6506C56.5798 53.3302 55.815 53.2884 55.093 53.52C55.043 53.536 54.992 53.5496 54.9404 53.5604C54.428 53.6678 53.8556 53.657 53.3358 53.6124C52.792 53.5656 52.1912 53.4702 51.5756 53.3488C50.343 53.1058 48.9558 52.7384 47.6714 52.3638C46.3822 51.988 45.1706 51.5972 44.2834 51.3014C43.839 51.1532 43.4746 51.0284 43.2204 50.9402C43.0932 50.896 42.9936 50.861 42.9252 50.837L42.8466 50.8092L42.8188 50.7994C42.8186 50.7994 42.818 50.799 43.3152 49.4694L42.8188 50.7994C42.0408 50.5214 41.6396 49.6792 41.9242 48.919C42.2086 48.1584 43.07 47.7676 43.8478 48.0454ZM57.6084 58.2746L58.5756 59.3952C58.663 59.323 58.7422 59.241 58.8106 59.1514L57.6084 58.2746Z" fill="#4E3099"/>
<path fill-rule="evenodd" clip-rule="evenodd" d="M41.2902 62.9216C41.583 62.1644 42.4488 61.7824 43.2236 62.0684C48.4006 63.9806 51.687 64.2304 53.5906 64.0696C54.5406 63.9894 55.153 63.8064 55.4944 63.6716C55.666 63.6036 55.7726 63.5466 55.822 63.5178C55.8354 63.5102 55.8446 63.5044 55.85 63.501C56.492 63.025 57.409 63.1296 57.9204 63.7452C58.4426 64.374 58.3446 65.2972 57.7016 65.8074L56.7558 64.6694C57.7016 65.8074 57.6988 65.8096 57.6988 65.8096L57.696 65.8118L57.6906 65.8162L57.6784 65.8256C57.6696 65.8324 57.66 65.8394 57.6494 65.847C57.6284 65.8626 57.6036 65.8804 57.575 65.9C57.5176 65.9394 57.4448 65.986 57.3554 66.038C57.1768 66.142 56.9338 66.2654 56.6192 66.3898C55.9884 66.639 55.0828 66.8864 53.849 66.9906C51.3846 67.1988 47.6398 66.834 42.1634 64.8114C41.3882 64.525 40.9974 63.679 41.2902 62.9216Z" fill="#4E3099"/>
<path fill-rule="evenodd" clip-rule="evenodd" d="M54.3154 44.4136C54.646 43.671 55.53 43.3312 56.2898 43.6542C58.6554 44.6596 59.7754 46.0816 60.1528 47.4844C60.3316 48.1482 60.3224 48.7346 60.2666 49.1608C60.2388 49.3744 60.1986 49.552 60.162 49.685C60.1504 49.7276 60.1392 49.766 60.1284 49.7996C59.7814 51.4032 58.6792 52.3546 57.7862 52.8698C57.3274 53.134 56.8932 53.304 56.5742 53.4084C56.4132 53.4612 56.2768 53.4988 56.1754 53.5242C56.1246 53.537 56.0824 53.5468 56.0496 53.554C56.0332 53.5576 56.0192 53.5606 56.0078 53.563L55.9926 53.566L55.9862 53.567L55.9822 53.5678C55.9816 53.5682 55.981 53.5684 55.6914 52.13L55.9822 53.5678C55.1692 53.7244 54.379 53.2072 54.2192 52.4128C54.0596 51.6222 54.5832 50.855 55.39 50.6938M57.2618 48.9328C57.2622 48.931 57.2628 48.9286 57.2638 48.9252C57.2696 48.9036 57.2814 48.8564 57.2898 48.7896C57.3076 48.6548 57.3116 48.457 57.2506 48.2296C57.1484 47.8494 56.7766 47.0584 55.0928 46.3426C54.3326 46.0198 53.9848 45.156 54.3154 44.4136" fill="#4E3099"/>
</g>
</g>
<path d="M134.96 46.5956L147.68 63.6356H139.76L128.72 48.7556H120.32V63.6356H113.36V30.0356H120.32V45.1556H128.24L139.28 30.0356H146.96L134.96 46.5956ZM159.194 61.4756C160.218 61.4756 161.178 61.2836 162.074 60.8996C162.97 60.5156 163.754 59.9236 164.426 59.1236C165.098 58.2916 165.626 57.2196 166.01 55.9076C166.426 54.5956 166.634 53.0116 166.634 51.1556C166.634 49.2996 166.426 47.7156 166.01 46.4036C165.626 45.0916 165.098 44.0356 164.426 43.2356C163.754 42.4036 162.97 41.7956 162.074 41.4116C161.178 41.0276 160.218 40.8356 159.194 40.8356C158.17 40.8356 157.21 41.0276 156.314 41.4116C155.418 41.7956 154.634 42.4036 153.962 43.2356C153.29 44.0356 152.746 45.0916 152.33 46.4036C151.946 47.7156 151.754 49.2996 151.754 51.1556C151.754 53.0116 151.946 54.5956 152.33 55.9076C152.746 57.2196 153.29 58.2916 153.962 59.1236C154.634 59.9236 155.418 60.5156 156.314 60.8996C157.21 61.2836 158.17 61.4756 159.194 61.4756ZM159.194 37.7156C161.338 37.7156 163.306 38.0196 165.098 38.6276C166.922 39.2036 168.474 40.0676 169.754 41.2196C171.034 42.3396 172.026 43.7476 172.73 45.4436C173.466 47.1076 173.834 49.0116 173.834 51.1556C173.834 53.3316 173.466 55.2516 172.73 56.9156C172.026 58.5796 171.034 59.9876 169.754 61.1396C168.474 62.2596 166.922 63.1076 165.098 63.6836C163.306 64.2916 161.338 64.5956 159.194 64.5956C157.018 64.5956 155.034 64.2916 153.242 63.6836C151.45 63.1076 149.914 62.2596 148.634 61.1396C147.354 59.9876 146.346 58.5796 145.61 56.9156C144.906 55.2516 144.554 53.3316 144.554 51.1556C144.554 49.0116 144.906 47.1076 145.61 45.4436C146.346 43.7476 147.354 42.3396 148.634 41.2196C149.914 40.0676 151.45 39.2036 153.242 38.6276C155.034 38.0196 157.018 37.7156 159.194 37.7156ZM193.764 59.3156L201.684 38.6756H211.524V63.6356H204.804V45.3956H204.324L197.364 63.6356H189.732L182.724 45.3956H182.244V63.6356H175.524V38.6756H185.364L193.284 59.3156H193.764ZM240.787 38.6756V63.6356H234.067V42.0356H221.107V63.6356H214.387V38.6756H240.787ZM257.128 61.4756C258.152 61.4756 259.112 61.2836 260.008 60.8996C260.904 60.5156 261.688 59.9236 262.36 59.1236C263.032 58.2916 263.56 57.2196 263.944 55.9076C264.359 54.5956 264.567 53.0116 264.567 51.1556C264.567 49.2996 264.359 47.7156 263.944 46.4036C263.56 45.0916 263.032 44.0356 262.36 43.2356C261.688 42.4036 260.904 41.7956 260.008 41.4116C259.112 41.0276 258.152 40.8356 257.128 40.8356C256.104 40.8356 255.144 41.0276 254.248 41.4116C253.352 41.7956 252.568 42.4036 251.895 43.2356C251.224 44.0356 250.68 45.0916 250.264 46.4036C249.879 47.7156 249.687 49.2996 249.687 51.1556C249.687 53.0116 249.879 54.5956 250.264 55.9076C250.68 57.2196 251.224 58.2916 251.895 59.1236C252.568 59.9236 253.352 60.5156 254.248 60.8996C255.144 61.2836 256.104 61.4756 257.128 61.4756ZM257.128 37.7156C259.272 37.7156 261.24 38.0196 263.032 38.6276C264.856 39.2036 266.408 40.0676 267.688 41.2196C268.968 42.3396 269.96 43.7476 270.664 45.4436C271.4 47.1076 271.768 49.0116 271.768 51.1556C271.768 53.3316 271.4 55.2516 270.664 56.9156C269.96 58.5796 268.968 59.9876 267.688 61.1396C266.408 62.2596 264.856 63.1076 263.032 63.6836C261.24 64.2916 259.272 64.5956 257.128 64.5956C254.951 64.5956 252.967 64.2916 251.175 63.6836C249.383 63.1076 247.847 62.2596 246.567 61.1396C245.287 59.9876 244.279 58.5796 243.543 56.9156C242.839 55.2516 242.487 53.3316 242.487 51.1556C242.487 49.0116 242.839 47.1076 243.543 45.4436C244.279 43.7476 245.287 42.3396 246.567 41.2196C247.847 40.0676 249.383 39.2036 251.175 38.6276C252.967 38.0196 254.951 37.7156 257.128 37.7156ZM299.857 38.6756V63.6356H293.137V52.5956H280.177V63.6356H273.457V38.6756H280.177V49.2356H293.137V38.6756H299.857ZM317.158 61.2356C318.726 61.2356 320.182 60.9636 321.526 60.4196C322.902 59.8756 324.246 59.1076 325.558 58.1156L327.478 60.9956C326.87 61.5396 326.15 62.0356 325.318 62.4836C324.518 62.9316 323.638 63.3156 322.678 63.6356C321.75 63.9236 320.774 64.1476 319.75 64.3076C318.726 64.4996 317.702 64.5956 316.678 64.5956C314.406 64.5956 312.326 64.2916 310.438 63.6836C308.582 63.1076 306.998 62.2596 305.686 61.1396C304.374 59.9876 303.35 58.5796 302.614 56.9156C301.91 55.2516 301.558 53.3316 301.558 51.1556C301.558 49.0116 301.894 47.1076 302.566 45.4436C303.27 43.7476 304.23 42.3396 305.446 41.2196C306.694 40.0676 308.166 39.2036 309.862 38.6276C311.558 38.0196 313.43 37.7156 315.478 37.7156C317.398 37.7156 319.206 38.0036 320.902 38.5796C322.598 39.1556 324.07 40.0036 325.318 41.1236C326.566 42.2116 327.558 43.5396 328.294 45.1076C329.03 46.6756 329.398 48.4516 329.398 50.4356V53.7956H308.902C309.286 56.4516 310.198 58.3556 311.638 59.5076C313.11 60.6596 314.95 61.2356 317.158 61.2356ZM315.478 40.8356C314.55 40.8356 313.686 41.0116 312.886 41.3636C312.086 41.7156 311.382 42.2756 310.774 43.0436C310.198 43.8116 309.718 44.8036 309.334 46.0196C308.982 47.2356 308.79 48.7076 308.758 50.4356H322.198C322.198 48.7716 322.006 47.3316 321.622 46.1156C321.238 44.8996 320.726 43.9076 320.086 43.1396C319.478 42.3396 318.758 41.7636 317.926 41.4116C317.126 41.0276 316.31 40.8356 315.478 40.8356ZM357.474 38.6756V63.6356H350.754V52.5956H337.794V63.6356H331.074V38.6756H337.794V49.2356H350.754V38.6756H357.474ZM384.374 42.0356H374.294V63.6356H367.574V42.0356H357.494V38.6756H384.374V42.0356ZM409.319 60.9956C411.079 60.9956 412.695 60.7556 414.167 60.2756C415.639 59.7636 416.919 59.0116 418.007 58.0196C419.127 56.9956 420.023 55.6996 420.695 54.1316C421.367 52.5636 421.783 50.6916 421.943 48.5156H403.847V44.9156H421.943C421.783 42.8036 421.367 40.9796 420.695 39.4436C420.023 37.9076 419.143 36.6436 418.055 35.6516C416.999 34.6276 415.767 33.8756 414.359 33.3956C412.951 32.9156 411.431 32.6756 409.799 32.6756C407.623 32.6756 405.527 33.0596 403.511 33.8276C401.527 34.5636 399.623 35.7796 397.799 37.4756L395.399 34.5956C397.223 32.8996 399.431 31.5556 402.023 30.5636C404.615 29.5716 407.367 29.0756 410.279 29.0756C413.159 29.0756 415.767 29.4596 418.103 30.2276C420.471 30.9956 422.487 32.1316 424.151 33.6356C425.847 35.1396 427.159 36.9956 428.087 39.2036C429.015 41.4116 429.479 43.9556 429.479 46.8356C429.479 49.7156 429.015 52.2596 428.087 54.4676C427.159 56.6756 425.831 58.5316 424.103 60.0356C422.407 61.5396 420.343 62.6756 417.911 63.4436C415.511 64.2116 412.807 64.5956 409.799 64.5956C406.887 64.5956 404.135 64.0996 401.543 63.1076C398.951 62.1156 396.743 60.7716 394.919 59.0756L397.319 56.1956C399.143 57.8916 401.047 59.1236 403.031 59.8916C405.047 60.6276 407.143 60.9956 409.319 60.9956ZM457.801 38.6756V63.6356H451.081V52.5956H438.121V63.6356H431.401V38.6756H438.121V49.2356H451.081V38.6756H457.801ZM475.102 61.2356C476.67 61.2356 478.126 60.9636 479.47 60.4196C480.846 59.8756 482.19 59.1076 483.502 58.1156L485.422 60.9956C484.814 61.5396 484.094 62.0356 483.262 62.4836C482.462 62.9316 481.582 63.3156 480.622 63.6356C479.694 63.9236 478.718 64.1476 477.694 64.3076C476.67 64.4996 475.646 64.5956 474.622 64.5956C472.35 64.5956 470.27 64.2916 468.382 63.6836C466.526 63.1076 464.942 62.2596 463.63 61.1396C462.318 59.9876 461.294 58.5796 460.558 56.9156C459.854 55.2516 459.502 53.3316 459.502 51.1556C459.502 49.0116 459.838 47.1076 460.51 45.4436C461.214 43.7476 462.174 42.3396 463.39 41.2196C464.638 40.0676 466.11 39.2036 467.806 38.6276C469.502 38.0196 471.374 37.7156 473.422 37.7156C475.342 37.7156 477.15 38.0036 478.846 38.5796C480.542 39.1556 482.014 40.0036 483.262 41.1236C484.51 42.2116 485.502 43.5396 486.238 45.1076C486.974 46.6756 487.342 48.4516 487.342 50.4356V53.7956H466.846C467.23 56.4516 468.142 58.3556 469.582 59.5076C471.054 60.6596 472.894 61.2356 475.102 61.2356ZM473.422 40.8356C472.494 40.8356 471.63 41.0116 470.83 41.3636C470.03 41.7156 469.326 42.2756 468.718 43.0436C468.142 43.8116 467.662 44.8036 467.278 46.0196C466.926 47.2356 466.734 48.7076 466.702 50.4356H480.142C480.142 48.7716 479.95 47.3316 479.566 46.1156C479.182 44.8996 478.67 43.9076 478.03 43.1396C477.422 42.3396 476.702 41.7636 475.87 41.4116C475.07 41.0276 474.254 40.8356 473.422 40.8356ZM495.738 42.0356V60.2756H501.738C502.826 60.2756 503.818 60.1156 504.714 59.7956C505.642 59.4436 506.426 58.8996 507.066 58.1636C507.738 57.4276 508.25 56.4836 508.602 55.3316C508.986 54.1796 509.178 52.7876 509.178 51.1556C509.178 49.5236 508.986 48.1316 508.602 46.9796C508.25 45.8276 507.738 44.8836 507.066 44.1476C506.426 43.4116 505.642 42.8836 504.714 42.5636C503.818 42.2116 502.826 42.0356 501.738 42.0356H495.738ZM501.738 38.6756C503.946 38.6756 505.946 38.9636 507.738 39.5396C509.562 40.1156 511.114 40.9476 512.394 42.0356C513.674 43.1236 514.65 44.4356 515.322 45.9716C516.026 47.5076 516.378 49.2356 516.378 51.1556C516.378 53.0756 516.026 54.8036 515.322 56.3396C514.65 57.8756 513.674 59.1876 512.394 60.2756C511.114 61.3636 509.562 62.1956 507.738 62.7716C505.946 63.3476 503.946 63.6356 501.738 63.6356H495.738V72.2756H489.018V38.6756H501.738ZM538.197 42.0356H524.757V63.6356H518.037V38.6756H538.197V42.0356ZM565.077 38.6756V63.6356H558.357V44.9156H557.877L546.837 63.6356H538.197V38.6756H544.917V57.3956H545.397L556.437 38.6756H565.077ZM594.847 38.6756V63.6356H588.127V44.9156H587.647L576.607 63.6356H567.967V38.6756H574.687V57.3956H575.167L586.207 38.6756H594.847Z" fill="#4E3099"/>
<path d="M115.4 70.8356C114.992 70.8356 114.608 70.9076 114.248 71.0516C113.896 71.1956 113.588 71.4156 113.324 71.7116C113.06 72.0076 112.848 72.3836 112.688 72.8396C112.536 73.2876 112.46 73.8196 112.46 74.4356C112.46 75.0516 112.536 75.5876 112.688 76.0436C112.848 76.4916 113.06 76.8636 113.324 77.1596C113.588 77.4556 113.896 77.6756 114.248 77.8196C114.608 77.9636 114.992 78.0356 115.4 78.0356C115.808 78.0356 116.188 77.9636 116.54 77.8196C116.9 77.6756 117.212 77.4556 117.476 77.1596C117.74 76.8636 117.948 76.4916 118.1 76.0436C118.26 75.5876 118.34 75.0516 118.34 74.4356C118.34 73.8196 118.26 73.2876 118.1 72.8396C117.948 72.3836 117.74 72.0076 117.476 71.7116C117.212 71.4156 116.9 71.1956 116.54 71.0516C116.188 70.9076 115.808 70.8356 115.4 70.8356ZM115.4 69.9956C116.12 69.9956 116.772 70.0916 117.356 70.2836C117.948 70.4756 118.452 70.7596 118.868 71.1356C119.292 71.5116 119.62 71.9756 119.852 72.5276C120.084 73.0796 120.2 73.7156 120.2 74.4356C120.2 75.1556 120.084 75.7916 119.852 76.3436C119.62 76.8956 119.292 77.3596 118.868 77.7356C118.452 78.1116 117.948 78.3956 117.356 78.5876C116.772 78.7796 116.12 78.8756 115.4 78.8756C114.68 78.8756 114.024 78.7796 113.432 78.5876C112.84 78.3956 112.332 78.1116 111.908 77.7356C111.492 77.3596 111.168 76.8956 110.936 76.3436C110.712 75.7916 110.6 75.1556 110.6 74.4356C110.6 73.7156 110.712 73.0796 110.936 72.5276C111.168 71.9756 111.492 71.5116 111.908 71.1356C112.332 70.7596 112.84 70.4756 113.432 70.2836C114.024 70.0916 114.68 69.9956 115.4 69.9956ZM124.945 73.7156C124.705 73.7156 124.477 73.7636 124.261 73.8596C124.045 73.9476 123.853 74.0836 123.685 74.2676C123.517 74.4436 123.385 74.6676 123.289 74.9396C123.193 75.2036 123.145 75.5156 123.145 75.8756C123.145 76.2516 123.193 76.5796 123.289 76.8596C123.385 77.1316 123.517 77.3596 123.685 77.5436C123.853 77.7276 124.045 77.8676 124.261 77.9636C124.477 78.0516 124.705 78.0956 124.945 78.0956C125.185 78.0956 125.413 78.0516 125.629 77.9636C125.845 77.8676 126.037 77.7276 126.205 77.5436C126.373 77.3596 126.505 77.1316 126.601 76.8596C126.697 76.5796 126.745 76.2516 126.745 75.8756C126.745 75.5156 126.697 75.2036 126.601 74.9396C126.505 74.6676 126.373 74.4436 126.205 74.2676C126.037 74.0836 125.845 73.9476 125.629 73.8596C125.413 73.7636 125.185 73.7156 124.945 73.7156ZM125.065 72.8756C125.561 72.8756 126.021 72.9476 126.445 73.0916C126.869 73.2356 127.237 73.4396 127.549 73.7036C127.861 73.9676 128.105 74.2836 128.281 74.6516C128.457 75.0196 128.545 75.4276 128.545 75.8756C128.545 76.3236 128.453 76.7316 128.269 77.0996C128.093 77.4676 127.845 77.7836 127.525 78.0476C127.213 78.3116 126.837 78.5156 126.397 78.6596C125.957 78.8036 125.473 78.8756 124.945 78.8756C124.417 78.8756 123.933 78.7996 123.493 78.6476C123.053 78.5036 122.673 78.2956 122.353 78.0236C122.041 77.7436 121.793 77.4036 121.609 77.0036C121.433 76.6036 121.345 76.1476 121.345 75.6356V74.2556C121.345 72.9996 121.645 72.0516 122.245 71.4116C122.845 70.7716 123.685 70.3996 124.765 70.2956L127.885 69.9956V71.3756L124.885 71.6756C123.205 71.8436 122.365 72.7036 122.365 74.2556H122.485C122.725 73.7996 123.057 73.4556 123.481 73.2236C123.905 72.9916 124.433 72.8756 125.065 72.8756ZM129.801 78.6356V72.3956H131.481V77.7956H133.641V72.3956H135.321V77.7956H137.481V72.3956H139.161V77.7956H140.181V80.4356H138.801L138.561 78.6356H129.801ZM144.803 78.0356C145.195 78.0356 145.559 77.9676 145.895 77.8316C146.239 77.6956 146.575 77.5036 146.903 77.2556L147.383 77.9756C147.231 78.1116 147.051 78.2356 146.843 78.3476C146.643 78.4596 146.423 78.5556 146.183 78.6356C145.951 78.7076 145.707 78.7636 145.451 78.8036C145.195 78.8516 144.939 78.8756 144.683 78.8756C144.115 78.8756 143.595 78.7996 143.123 78.6476C142.659 78.5036 142.263 78.2916 141.935 78.0116C141.607 77.7236 141.351 77.3716 141.167 76.9556C140.991 76.5396 140.903 76.0596 140.903 75.5156C140.903 74.9796 140.987 74.5036 141.155 74.0876C141.331 73.6636 141.571 73.3116 141.875 73.0316C142.187 72.7436 142.555 72.5276 142.979 72.3836C143.403 72.2316 143.871 72.1556 144.383 72.1556C144.863 72.1556 145.315 72.2276 145.739 72.3716C146.163 72.5156 146.531 72.7276 146.843 73.0076C147.155 73.2796 147.403 73.6116 147.587 74.0036C147.771 74.3956 147.863 74.8396 147.863 75.3356V76.1756H142.739C142.835 76.8396 143.063 77.3156 143.423 77.6036C143.791 77.8916 144.251 78.0356 144.803 78.0356ZM144.383 72.9356C144.151 72.9356 143.935 72.9796 143.735 73.0676C143.535 73.1556 143.359 73.2956 143.207 73.4876C143.063 73.6796 142.943 73.9276 142.847 74.2316C142.759 74.5356 142.711 74.9036 142.703 75.3356H146.063C146.063 74.9196 146.015 74.5596 145.919 74.2556C145.823 73.9516 145.695 73.7036 145.535 73.5116C145.383 73.3116 145.203 73.1676 144.995 73.0796C144.795 72.9836 144.591 72.9356 144.383 72.9356ZM152.602 72.1556C152.858 72.1556 153.114 72.1796 153.37 72.2276C153.626 72.2676 153.87 72.3276 154.102 72.4076C154.342 72.4796 154.562 72.5716 154.762 72.6836C154.97 72.7956 155.15 72.9196 155.302 73.0556L154.822 73.7756C154.494 73.5276 154.158 73.3356 153.814 73.1996C153.478 73.0636 153.114 72.9956 152.722 72.9956C152.434 72.9956 152.17 73.0436 151.93 73.1396C151.69 73.2276 151.482 73.3756 151.306 73.5836C151.13 73.7836 150.99 74.0436 150.886 74.3636C150.79 74.6836 150.742 75.0676 150.742 75.5156C150.742 75.9636 150.79 76.3476 150.886 76.6676C150.99 76.9876 151.134 77.2516 151.318 77.4596C151.502 77.6596 151.722 77.8076 151.978 77.9036C152.242 77.9916 152.53 78.0356 152.842 78.0356C153.234 78.0356 153.598 77.9676 153.934 77.8316C154.278 77.6956 154.614 77.5036 154.942 77.2556L155.422 77.9756C155.27 78.1116 155.09 78.2356 154.882 78.3476C154.682 78.4596 154.462 78.5556 154.222 78.6356C153.99 78.7076 153.746 78.7636 153.49 78.8036C153.234 78.8516 152.978 78.8756 152.722 78.8756C152.154 78.8756 151.634 78.7996 151.162 78.6476C150.698 78.5036 150.302 78.2916 149.974 78.0116C149.646 77.7236 149.39 77.3716 149.206 76.9556C149.03 76.5396 148.942 76.0596 148.942 75.5156C148.942 74.9796 149.03 74.5036 149.206 74.0876C149.39 73.6636 149.642 73.3116 149.962 73.0316C150.282 72.7436 150.666 72.5276 151.114 72.3836C151.562 72.2316 152.058 72.1556 152.602 72.1556ZM162.449 73.2356H159.929V78.6356H158.249V73.2356H155.729V72.3956H162.449V73.2356ZM169.53 74.1356C169.53 74.4396 169.418 74.6996 169.194 74.9156C168.978 75.1316 168.63 75.2716 168.15 75.3356C168.726 75.4236 169.158 75.6076 169.446 75.8876C169.742 76.1596 169.89 76.4756 169.89 76.8356C169.89 77.0916 169.83 77.3316 169.71 77.5556C169.598 77.7716 169.422 77.9596 169.182 78.1196C168.942 78.2796 168.638 78.4076 168.27 78.5036C167.902 78.5916 167.462 78.6356 166.95 78.6356H163.41V72.3956H166.59C167.102 72.3956 167.542 72.4436 167.91 72.5396C168.278 72.6276 168.582 72.7516 168.822 72.9116C169.062 73.0636 169.238 73.2476 169.35 73.4636C169.47 73.6716 169.53 73.8956 169.53 74.1356ZM166.95 77.7956C167.31 77.7956 167.59 77.7036 167.79 77.5196C167.99 77.3356 168.09 77.1076 168.09 76.8356C168.09 76.5636 167.99 76.3356 167.79 76.1516C167.59 75.9676 167.31 75.8756 166.95 75.8756H165.09V77.7956H166.95ZM166.59 75.0356C166.95 75.0356 167.23 74.9476 167.43 74.7716C167.63 74.5876 167.73 74.3756 167.73 74.1356C167.73 73.8956 167.63 73.6876 167.43 73.5116C167.23 73.3276 166.95 73.2356 166.59 73.2356H165.09V75.0356H166.59ZM174.575 78.0956C174.831 78.0956 175.071 78.0476 175.295 77.9516C175.519 77.8556 175.715 77.7076 175.883 77.5076C176.051 77.2996 176.183 77.0316 176.279 76.7036C176.383 76.3756 176.435 75.9796 176.435 75.5156C176.435 75.0516 176.383 74.6556 176.279 74.3276C176.183 73.9996 176.051 73.7356 175.883 73.5356C175.715 73.3276 175.519 73.1756 175.295 73.0796C175.071 72.9836 174.831 72.9356 174.575 72.9356C174.319 72.9356 174.079 72.9836 173.855 73.0796C173.631 73.1756 173.435 73.3276 173.267 73.5356C173.099 73.7356 172.963 73.9996 172.859 74.3276C172.763 74.6556 172.715 75.0516 172.715 75.5156C172.715 75.9796 172.763 76.3756 172.859 76.7036C172.963 77.0316 173.099 77.2996 173.267 77.5076C173.435 77.7076 173.631 77.8556 173.855 77.9516C174.079 78.0476 174.319 78.0956 174.575 78.0956ZM174.575 72.1556C175.111 72.1556 175.603 72.2316 176.051 72.3836C176.507 72.5276 176.895 72.7436 177.215 73.0316C177.535 73.3116 177.783 73.6636 177.959 74.0876C178.143 74.5036 178.235 74.9796 178.235 75.5156C178.235 76.0596 178.143 76.5396 177.959 76.9556C177.783 77.3716 177.535 77.7236 177.215 78.0116C176.895 78.2916 176.507 78.5036 176.051 78.6476C175.603 78.7996 175.111 78.8756 174.575 78.8756C174.031 78.8756 173.535 78.7996 173.087 78.6476C172.639 78.5036 172.255 78.2916 171.935 78.0116C171.615 77.7236 171.363 77.3716 171.179 76.9556C171.003 76.5396 170.915 76.0596 170.915 75.5156C170.915 74.9796 171.003 74.5036 171.179 74.0876C171.363 73.6636 171.615 73.3116 171.935 73.0316C172.255 72.7436 172.639 72.5276 173.087 72.3836C173.535 72.2316 174.031 72.1556 174.575 72.1556ZM187.173 72.1556C187.429 72.1556 187.685 72.1796 187.941 72.2276C188.197 72.2676 188.441 72.3276 188.673 72.4076C188.913 72.4796 189.133 72.5716 189.333 72.6836C189.541 72.7956 189.721 72.9196 189.873 73.0556L189.393 73.7756C189.065 73.5276 188.729 73.3356 188.385 73.1996C188.049 73.0636 187.685 72.9956 187.293 72.9956C187.005 72.9956 186.741 73.0436 186.501 73.1396C186.261 73.2276 186.053 73.3756 185.877 73.5836C185.701 73.7836 185.561 74.0436 185.457 74.3636C185.361 74.6836 185.313 75.0676 185.313 75.5156C185.313 75.9636 185.361 76.3476 185.457 76.6676C185.561 76.9876 185.705 77.2516 185.889 77.4596C186.073 77.6596 186.293 77.8076 186.549 77.9036C186.813 77.9916 187.101 78.0356 187.413 78.0356C187.805 78.0356 188.169 77.9676 188.505 77.8316C188.849 77.6956 189.185 77.5036 189.513 77.2556L189.993 77.9756C189.841 78.1116 189.661 78.2356 189.453 78.3476C189.253 78.4596 189.033 78.5556 188.793 78.6356C188.561 78.7076 188.317 78.7636 188.061 78.8036C187.805 78.8516 187.549 78.8756 187.293 78.8756C186.725 78.8756 186.205 78.7996 185.733 78.6476C185.269 78.5036 184.873 78.2916 184.545 78.0116C184.217 77.7236 183.961 77.3716 183.777 76.9556C183.601 76.5396 183.513 76.0596 183.513 75.5156C183.513 74.9796 183.601 74.5036 183.777 74.0876C183.961 73.6636 184.213 73.3116 184.533 73.0316C184.853 72.7436 185.237 72.5276 185.685 72.3836C186.133 72.2316 186.629 72.1556 187.173 72.1556ZM198.809 78.0956C199.065 78.0956 199.305 78.0476 199.529 77.9516C199.753 77.8556 199.949 77.7076 200.117 77.5076C200.285 77.2996 200.417 77.0316 200.513 76.7036C200.617 76.3756 200.669 75.9796 200.669 75.5156C200.669 75.0516 200.617 74.6556 200.513 74.3276C200.417 73.9996 200.285 73.7356 200.117 73.5356C199.949 73.3276 199.753 73.1756 199.529 73.0796C199.305 72.9836 199.065 72.9356 198.809 72.9356C198.553 72.9356 198.313 72.9836 198.089 73.0796C197.865 73.1756 197.669 73.3276 197.501 73.5356C197.333 73.7356 197.197 73.9996 197.093 74.3276C196.997 74.6556 196.949 75.0516 196.949 75.5156C196.949 75.9796 196.997 76.3756 197.093 76.7036C197.197 77.0316 197.333 77.2996 197.501 77.5076C197.669 77.7076 197.865 77.8556 198.089 77.9516C198.313 78.0476 198.553 78.0956 198.809 78.0956ZM198.809 72.1556C199.345 72.1556 199.837 72.2316 200.285 72.3836C200.741 72.5276 201.129 72.7436 201.449 73.0316C201.769 73.3116 202.017 73.6636 202.193 74.0876C202.377 74.5036 202.469 74.9796 202.469 75.5156C202.469 76.0596 202.377 76.5396 202.193 76.9556C202.017 77.3716 201.769 77.7236 201.449 78.0116C201.129 78.2916 200.741 78.5036 200.285 78.6476C199.837 78.7996 199.345 78.8756 198.809 78.8756C198.265 78.8756 197.769 78.7996 197.321 78.6476C196.873 78.5036 196.489 78.2916 196.169 78.0116C195.849 77.7236 195.597 77.3716 195.413 76.9556C195.237 76.5396 195.149 76.0596 195.149 75.5156C195.149 74.9796 195.237 74.5036 195.413 74.0876C195.597 73.6636 195.849 73.3116 196.169 73.0316C196.489 72.7436 196.873 72.5276 197.321 72.3836C197.769 72.2316 198.265 72.1556 198.809 72.1556ZM208.892 73.2356H205.532V78.6356H203.852V72.3956H208.892V73.2356ZM211.532 73.2356V77.7956H213.032C213.304 77.7956 213.552 77.7556 213.776 77.6756C214.008 77.5876 214.204 77.4516 214.364 77.2676C214.532 77.0836 214.66 76.8476 214.748 76.5596C214.844 76.2716 214.892 75.9236 214.892 75.5156C214.892 75.1076 214.844 74.7596 214.748 74.4716C214.66 74.1836 214.532 73.9476 214.364 73.7636C214.204 73.5796 214.008 73.4476 213.776 73.3676C213.552 73.2796 213.304 73.2356 213.032 73.2356H211.532ZM213.032 72.3956C213.584 72.3956 214.084 72.4676 214.532 72.6116C214.988 72.7556 215.376 72.9636 215.696 73.2356C216.016 73.5076 216.26 73.8356 216.428 74.2196C216.604 74.6036 216.692 75.0356 216.692 75.5156C216.692 75.9956 216.604 76.4276 216.428 76.8116C216.26 77.1956 216.016 77.5236 215.696 77.7956C215.376 78.0676 214.988 78.2756 214.532 78.4196C214.084 78.5636 213.584 78.6356 213.032 78.6356H211.532V80.7956H209.852V72.3956H213.032ZM219.447 76.6556C219.447 77.4156 219.907 77.7956 220.827 77.7956H222.507V75.5156H220.827C219.907 75.5156 219.447 75.8956 219.447 76.6556ZM222.507 74.6756C222.507 74.0996 222.355 73.6756 222.051 73.4036C221.755 73.1316 221.367 72.9956 220.887 72.9956C220.527 72.9956 220.175 73.0516 219.831 73.1636C219.487 73.2676 219.179 73.4116 218.907 73.5956L218.487 72.8756C218.663 72.7556 218.855 72.6516 219.063 72.5636C219.279 72.4756 219.499 72.4036 219.723 72.3476C219.947 72.2836 220.167 72.2356 220.383 72.2036C220.607 72.1716 220.815 72.1556 221.007 72.1556C221.519 72.1556 221.971 72.2156 222.363 72.3356C222.755 72.4556 223.087 72.6276 223.359 72.8516C223.631 73.0756 223.835 73.3436 223.971 73.6556C224.115 73.9596 224.187 74.2996 224.187 74.6756V78.6356H220.827C219.739 78.6356 218.935 78.4716 218.415 78.1436C217.903 77.8156 217.647 77.3196 217.647 76.6556C217.647 75.9916 217.903 75.4956 218.415 75.1676C218.935 74.8396 219.739 74.6756 220.827 74.6756H222.507ZM232.401 72.3956V78.6356H230.721V75.8756H227.481V78.6356H225.801V72.3956H227.481V75.0356H230.721V72.3956H232.401ZM240.806 72.3956V78.6356H239.126V73.9556H239.006L236.246 78.6356H234.086V72.3956H235.766V77.0756H235.886L238.646 72.3956H240.806ZM242.308 72.3956H243.988V74.5556C243.988 74.9476 244.1 75.2476 244.324 75.4556C244.548 75.6556 244.916 75.7556 245.428 75.7556H246.988V72.3956H248.668V78.6356H246.988V76.5956H245.428C244.876 76.5956 244.4 76.5476 244 76.4516C243.608 76.3556 243.284 76.2196 243.028 76.0436C242.78 75.8676 242.596 75.6556 242.476 75.4076C242.364 75.1516 242.308 74.8676 242.308 74.5556V72.3956ZM253.952 78.0356C254.344 78.0356 254.708 77.9676 255.044 77.8316C255.388 77.6956 255.724 77.5036 256.052 77.2556L256.532 77.9756C256.38 78.1116 256.2 78.2356 255.992 78.3476C255.792 78.4596 255.572 78.5556 255.332 78.6356C255.1 78.7076 254.856 78.7636 254.6 78.8036C254.344 78.8516 254.088 78.8756 253.832 78.8756C253.264 78.8756 252.744 78.7996 252.272 78.6476C251.808 78.5036 251.412 78.2916 251.084 78.0116C250.756 77.7236 250.5 77.3716 250.316 76.9556C250.14 76.5396 250.052 76.0596 250.052 75.5156C250.052 74.9796 250.136 74.5036 250.304 74.0876C250.48 73.6636 250.72 73.3116 251.024 73.0316C251.336 72.7436 251.704 72.5276 252.128 72.3836C252.552 72.2316 253.02 72.1556 253.532 72.1556C254.012 72.1556 254.464 72.2276 254.888 72.3716C255.312 72.5156 255.68 72.7276 255.992 73.0076C256.304 73.2796 256.552 73.6116 256.736 74.0036C256.92 74.3956 257.012 74.8396 257.012 75.3356V76.1756H251.888C251.984 76.8396 252.212 77.3156 252.572 77.6036C252.94 77.8916 253.4 78.0356 253.952 78.0356ZM253.532 72.9356C253.3 72.9356 253.084 72.9796 252.884 73.0676C252.684 73.1556 252.508 73.2956 252.356 73.4876C252.212 73.6796 252.092 73.9276 251.996 74.2316C251.908 74.5356 251.86 74.9036 251.852 75.3356H255.212C255.212 74.9196 255.164 74.5596 255.068 74.2556C254.972 73.9516 254.844 73.7036 254.684 73.5116C254.532 73.3116 254.352 73.1676 254.144 73.0796C253.944 72.9836 253.74 72.9356 253.532 72.9356ZM264.991 72.3956V78.6356H263.311V75.8756H260.071V78.6356H258.391V72.3956H260.071V75.0356H263.311V72.3956H264.991ZM273.276 72.3956V78.6356H271.596V75.8756H268.356V78.6356H266.676V72.3956H268.356V75.0356H271.596V72.3956H273.276ZM278.321 78.0956C278.577 78.0956 278.817 78.0476 279.041 77.9516C279.265 77.8556 279.461 77.7076 279.629 77.5076C279.797 77.2996 279.929 77.0316 280.025 76.7036C280.129 76.3756 280.181 75.9796 280.181 75.5156C280.181 75.0516 280.129 74.6556 280.025 74.3276C279.929 73.9996 279.797 73.7356 279.629 73.5356C279.461 73.3276 279.265 73.1756 279.041 73.0796C278.817 72.9836 278.577 72.9356 278.321 72.9356C278.065 72.9356 277.825 72.9836 277.601 73.0796C277.377 73.1756 277.181 73.3276 277.013 73.5356C276.845 73.7356 276.709 73.9996 276.605 74.3276C276.509 74.6556 276.461 75.0516 276.461 75.5156C276.461 75.9796 276.509 76.3756 276.605 76.7036C276.709 77.0316 276.845 77.2996 277.013 77.5076C277.181 77.7076 277.377 77.8556 277.601 77.9516C277.825 78.0476 278.065 78.0956 278.321 78.0956ZM278.321 72.1556C278.857 72.1556 279.349 72.2316 279.797 72.3836C280.253 72.5276 280.641 72.7436 280.961 73.0316C281.281 73.3116 281.529 73.6636 281.705 74.0876C281.889 74.5036 281.981 74.9796 281.981 75.5156C281.981 76.0596 281.889 76.5396 281.705 76.9556C281.529 77.3716 281.281 77.7236 280.961 78.0116C280.641 78.2916 280.253 78.5036 279.797 78.6476C279.349 78.7996 278.857 78.8756 278.321 78.8756C277.777 78.8756 277.281 78.7996 276.833 78.6476C276.385 78.5036 276.001 78.2916 275.681 78.0116C275.361 77.7236 275.109 77.3716 274.925 76.9556C274.749 76.5396 274.661 76.0596 274.661 75.5156C274.661 74.9796 274.749 74.5036 274.925 74.0876C275.109 73.6636 275.361 73.3116 275.681 73.0316C276.001 72.7436 276.385 72.5276 276.833 72.3836C277.281 72.2316 277.777 72.1556 278.321 72.1556ZM286.603 71.6756C285.851 71.6756 285.283 71.5036 284.899 71.1596C284.515 70.8076 284.323 70.3596 284.323 69.8156H285.703C285.703 70.1196 285.791 70.3676 285.967 70.5596C286.151 70.7436 286.363 70.8356 286.603 70.8356C286.843 70.8356 287.051 70.7436 287.227 70.5596C287.411 70.3676 287.503 70.1196 287.503 69.8156H288.883C288.883 70.3596 288.691 70.8076 288.307 71.1596C287.923 71.5036 287.355 71.6756 286.603 71.6756ZM290.083 72.3956V78.6356H288.403V73.9556H288.283L285.523 78.6356H283.363V72.3956H285.043V77.0756H285.163L287.923 72.3956H290.083ZM299.321 78.0956C299.577 78.0956 299.817 78.0476 300.041 77.9516C300.265 77.8556 300.461 77.7076 300.629 77.5076C300.797 77.2996 300.929 77.0316 301.025 76.7036C301.129 76.3756 301.181 75.9796 301.181 75.5156C301.181 75.0516 301.129 74.6556 301.025 74.3276C300.929 73.9996 300.797 73.7356 300.629 73.5356C300.461 73.3276 300.265 73.1756 300.041 73.0796C299.817 72.9836 299.577 72.9356 299.321 72.9356C299.065 72.9356 298.825 72.9836 298.601 73.0796C298.377 73.1756 298.181 73.3276 298.013 73.5356C297.845 73.7356 297.709 73.9996 297.605 74.3276C297.509 74.6556 297.461 75.0516 297.461 75.5156C297.461 75.9796 297.509 76.3756 297.605 76.7036C297.709 77.0316 297.845 77.2996 298.013 77.5076C298.181 77.7076 298.377 77.8556 298.601 77.9516C298.825 78.0476 299.065 78.0956 299.321 78.0956ZM299.321 72.1556C299.857 72.1556 300.349 72.2316 300.797 72.3836C301.253 72.5276 301.641 72.7436 301.961 73.0316C302.281 73.3116 302.529 73.6636 302.705 74.0876C302.889 74.5036 302.981 74.9796 302.981 75.5156C302.981 76.0596 302.889 76.5396 302.705 76.9556C302.529 77.3716 302.281 77.7236 301.961 78.0116C301.641 78.2916 301.253 78.5036 300.797 78.6476C300.349 78.7996 299.857 78.8756 299.321 78.8756C298.777 78.8756 298.281 78.7996 297.833 78.6476C297.385 78.5036 297.001 78.2916 296.681 78.0116C296.361 77.7236 296.109 77.3716 295.925 76.9556C295.749 76.5396 295.661 76.0596 295.661 75.5156C295.661 74.9796 295.749 74.5036 295.925 74.0876C296.109 73.6636 296.361 73.3116 296.681 73.0316C297.001 72.7436 297.385 72.5276 297.833 72.3836C298.281 72.2316 298.777 72.1556 299.321 72.1556ZM310 73.2356H307.48V78.6356H305.8V73.2356H303.28V72.3956H310V73.2356ZM317.081 74.1356C317.081 74.4396 316.969 74.6996 316.745 74.9156C316.529 75.1316 316.181 75.2716 315.701 75.3356C316.277 75.4236 316.709 75.6076 316.997 75.8876C317.293 76.1596 317.441 76.4756 317.441 76.8356C317.441 77.0916 317.381 77.3316 317.261 77.5556C317.149 77.7716 316.973 77.9596 316.733 78.1196C316.493 78.2796 316.189 78.4076 315.821 78.5036C315.453 78.5916 315.013 78.6356 314.501 78.6356H310.961V72.3956H314.141C314.653 72.3956 315.093 72.4436 315.461 72.5396C315.829 72.6276 316.133 72.7516 316.373 72.9116C316.613 73.0636 316.789 73.2476 316.901 73.4636C317.021 73.6716 317.081 73.8956 317.081 74.1356ZM314.501 77.7956C314.861 77.7956 315.141 77.7036 315.341 77.5196C315.541 77.3356 315.641 77.1076 315.641 76.8356C315.641 76.5636 315.541 76.3356 315.341 76.1516C315.141 75.9676 314.861 75.8756 314.501 75.8756H312.641V77.7956H314.501ZM314.141 75.0356C314.501 75.0356 314.781 74.9476 314.981 74.7716C315.181 74.5876 315.281 74.3756 315.281 74.1356C315.281 73.8956 315.181 73.6876 314.981 73.5116C314.781 73.3276 314.501 73.2356 314.141 73.2356H312.641V75.0356H314.141ZM322.366 78.0356C322.758 78.0356 323.122 77.9676 323.458 77.8316C323.802 77.6956 324.138 77.5036 324.466 77.2556L324.946 77.9756C324.794 78.1116 324.614 78.2356 324.406 78.3476C324.206 78.4596 323.986 78.5556 323.746 78.6356C323.514 78.7076 323.27 78.7636 323.014 78.8036C322.758 78.8516 322.502 78.8756 322.246 78.8756C321.678 78.8756 321.158 78.7996 320.686 78.6476C320.222 78.5036 319.826 78.2916 319.498 78.0116C319.17 77.7236 318.914 77.3716 318.73 76.9556C318.554 76.5396 318.466 76.0596 318.466 75.5156C318.466 74.9796 318.55 74.5036 318.718 74.0876C318.894 73.6636 319.134 73.3116 319.438 73.0316C319.75 72.7436 320.118 72.5276 320.542 72.3836C320.966 72.2316 321.434 72.1556 321.946 72.1556C322.426 72.1556 322.878 72.2276 323.302 72.3716C323.726 72.5156 324.094 72.7276 324.406 73.0076C324.718 73.2796 324.966 73.6116 325.15 74.0036C325.334 74.3956 325.426 74.8396 325.426 75.3356V76.1756H320.302C320.398 76.8396 320.626 77.3156 320.986 77.6036C321.354 77.8916 321.814 78.0356 322.366 78.0356ZM321.946 72.9356C321.714 72.9356 321.498 72.9796 321.298 73.0676C321.098 73.1556 320.922 73.2956 320.77 73.4876C320.626 73.6796 320.506 73.9276 320.41 74.2316C320.322 74.5356 320.274 74.9036 320.266 75.3356H323.626C323.626 74.9196 323.578 74.5596 323.482 74.2556C323.386 73.9516 323.258 73.7036 323.098 73.5116C322.946 73.3116 322.766 73.1676 322.558 73.0796C322.358 72.9836 322.154 72.9356 321.946 72.9356ZM332.324 73.2356H329.804V78.6356H328.124V73.2356H325.604V72.3956H332.324V73.2356ZM336.282 72.1556C336.538 72.1556 336.794 72.1796 337.05 72.2276C337.306 72.2676 337.55 72.3276 337.782 72.4076C338.022 72.4796 338.242 72.5716 338.442 72.6836C338.65 72.7956 338.83 72.9196 338.982 73.0556L338.502 73.7756C338.174 73.5276 337.838 73.3356 337.494 73.1996C337.158 73.0636 336.794 72.9956 336.402 72.9956C336.114 72.9956 335.85 73.0436 335.61 73.1396C335.37 73.2276 335.162 73.3756 334.986 73.5836C334.81 73.7836 334.67 74.0436 334.566 74.3636C334.47 74.6836 334.422 75.0676 334.422 75.5156C334.422 75.9636 334.47 76.3476 334.566 76.6676C334.67 76.9876 334.814 77.2516 334.998 77.4596C335.182 77.6596 335.402 77.8076 335.658 77.9036C335.922 77.9916 336.21 78.0356 336.522 78.0356C336.914 78.0356 337.278 77.9676 337.614 77.8316C337.958 77.6956 338.294 77.5036 338.622 77.2556L339.102 77.9756C338.95 78.1116 338.77 78.2356 338.562 78.3476C338.362 78.4596 338.142 78.5556 337.902 78.6356C337.67 78.7076 337.426 78.7636 337.17 78.8036C336.914 78.8516 336.658 78.8756 336.402 78.8756C335.834 78.8756 335.314 78.7996 334.842 78.6476C334.378 78.5036 333.982 78.2916 333.654 78.0116C333.326 77.7236 333.07 77.3716 332.886 76.9556C332.71 76.5396 332.622 76.0596 332.622 75.5156C332.622 74.9796 332.71 74.5036 332.886 74.0876C333.07 73.6636 333.322 73.3116 333.642 73.0316C333.962 72.7436 334.346 72.5276 334.794 72.3836C335.242 72.2316 335.738 72.1556 336.282 72.1556ZM346.129 73.2356H343.609V78.6356H341.929V73.2356H339.409V72.3956H346.129V73.2356ZM353.21 74.1356C353.21 74.4396 353.098 74.6996 352.874 74.9156C352.658 75.1316 352.31 75.2716 351.83 75.3356C352.406 75.4236 352.838 75.6076 353.126 75.8876C353.422 76.1596 353.57 76.4756 353.57 76.8356C353.57 77.0916 353.51 77.3316 353.39 77.5556C353.278 77.7716 353.102 77.9596 352.862 78.1196C352.622 78.2796 352.318 78.4076 351.95 78.5036C351.582 78.5916 351.142 78.6356 350.63 78.6356H347.09V72.3956H350.27C350.782 72.3956 351.222 72.4436 351.59 72.5396C351.958 72.6276 352.262 72.7516 352.502 72.9116C352.742 73.0636 352.918 73.2476 353.03 73.4636C353.15 73.6716 353.21 73.8956 353.21 74.1356ZM350.63 77.7956C350.99 77.7956 351.27 77.7036 351.47 77.5196C351.67 77.3356 351.77 77.1076 351.77 76.8356C351.77 76.5636 351.67 76.3356 351.47 76.1516C351.27 75.9676 350.99 75.8756 350.63 75.8756H348.77V77.7956H350.63ZM350.27 75.0356C350.63 75.0356 350.91 74.9476 351.11 74.7716C351.31 74.5876 351.41 74.3756 351.41 74.1356C351.41 73.8956 351.31 73.6876 351.11 73.5116C350.91 73.3276 350.63 73.2356 350.27 73.2356H348.77V75.0356H350.27ZM358.495 78.0356C358.887 78.0356 359.251 77.9676 359.587 77.8316C359.931 77.6956 360.267 77.5036 360.595 77.2556L361.075 77.9756C360.923 78.1116 360.743 78.2356 360.535 78.3476C360.335 78.4596 360.115 78.5556 359.875 78.6356C359.643 78.7076 359.399 78.7636 359.143 78.8036C358.887 78.8516 358.631 78.8756 358.375 78.8756C357.807 78.8756 357.287 78.7996 356.815 78.6476C356.351 78.5036 355.955 78.2916 355.627 78.0116C355.299 77.7236 355.043 77.3716 354.859 76.9556C354.683 76.5396 354.595 76.0596 354.595 75.5156C354.595 74.9796 354.679 74.5036 354.847 74.0876C355.023 73.6636 355.263 73.3116 355.567 73.0316C355.879 72.7436 356.247 72.5276 356.671 72.3836C357.095 72.2316 357.563 72.1556 358.075 72.1556C358.555 72.1556 359.007 72.2276 359.431 72.3716C359.855 72.5156 360.223 72.7276 360.535 73.0076C360.847 73.2796 361.095 73.6116 361.279 74.0036C361.463 74.3956 361.555 74.8396 361.555 75.3356V76.1756H356.431C356.527 76.8396 356.755 77.3156 357.115 77.6036C357.483 77.8916 357.943 78.0356 358.495 78.0356ZM358.075 72.9356C357.843 72.9356 357.627 72.9796 357.427 73.0676C357.227 73.1556 357.051 73.2956 356.899 73.4876C356.755 73.6796 356.635 73.9276 356.539 74.2316C356.451 74.5356 356.403 74.9036 356.395 75.3356H359.755C359.755 74.9196 359.707 74.5596 359.611 74.2556C359.515 73.9516 359.387 73.7036 359.227 73.5116C359.075 73.3116 358.895 73.1676 358.687 73.0796C358.487 72.9836 358.283 72.9356 358.075 72.9356ZM369.534 72.3956V78.6356H367.854V75.8756H364.614V78.6356H362.934V72.3956H364.614V75.0356H367.854V72.3956H369.534ZM377.819 72.3956V78.6356H376.139V75.8756H372.899V78.6356H371.219V72.3956H372.899V75.0356H376.139V72.3956H377.819ZM382.864 78.0956C383.12 78.0956 383.36 78.0476 383.584 77.9516C383.808 77.8556 384.004 77.7076 384.172 77.5076C384.34 77.2996 384.472 77.0316 384.568 76.7036C384.672 76.3756 384.724 75.9796 384.724 75.5156C384.724 75.0516 384.672 74.6556 384.568 74.3276C384.472 73.9996 384.34 73.7356 384.172 73.5356C384.004 73.3276 383.808 73.1756 383.584 73.0796C383.36 72.9836 383.12 72.9356 382.864 72.9356C382.608 72.9356 382.368 72.9836 382.144 73.0796C381.92 73.1756 381.724 73.3276 381.556 73.5356C381.388 73.7356 381.252 73.9996 381.148 74.3276C381.052 74.6556 381.004 75.0516 381.004 75.5156C381.004 75.9796 381.052 76.3756 381.148 76.7036C381.252 77.0316 381.388 77.2996 381.556 77.5076C381.724 77.7076 381.92 77.8556 382.144 77.9516C382.368 78.0476 382.608 78.0956 382.864 78.0956ZM382.864 72.1556C383.4 72.1556 383.892 72.2316 384.34 72.3836C384.796 72.5276 385.184 72.7436 385.504 73.0316C385.824 73.3116 386.072 73.6636 386.248 74.0876C386.432 74.5036 386.524 74.9796 386.524 75.5156C386.524 76.0596 386.432 76.5396 386.248 76.9556C386.072 77.3716 385.824 77.7236 385.504 78.0116C385.184 78.2916 384.796 78.5036 384.34 78.6476C383.892 78.7996 383.4 78.8756 382.864 78.8756C382.32 78.8756 381.824 78.7996 381.376 78.6476C380.928 78.5036 380.544 78.2916 380.224 78.0116C379.904 77.7236 379.652 77.3716 379.468 76.9556C379.292 76.5396 379.204 76.0596 379.204 75.5156C379.204 74.9796 379.292 74.5036 379.468 74.0876C379.652 73.6636 379.904 73.3116 380.224 73.0316C380.544 72.7436 380.928 72.5276 381.376 72.3836C381.824 72.2316 382.32 72.1556 382.864 72.1556ZM391.266 72.1556C391.522 72.1556 391.778 72.1796 392.034 72.2276C392.29 72.2676 392.534 72.3276 392.766 72.4076C393.006 72.4796 393.226 72.5716 393.426 72.6836C393.634 72.7956 393.814 72.9196 393.966 73.0556L393.486 73.7756C393.158 73.5276 392.822 73.3356 392.478 73.1996C392.142 73.0636 391.778 72.9956 391.386 72.9956C391.098 72.9956 390.834 73.0436 390.594 73.1396C390.354 73.2276 390.146 73.3756 389.97 73.5836C389.794 73.7836 389.654 74.0436 389.55 74.3636C389.454 74.6836 389.406 75.0676 389.406 75.5156C389.406 75.9636 389.454 76.3476 389.55 76.6676C389.654 76.9876 389.798 77.2516 389.982 77.4596C390.166 77.6596 390.386 77.8076 390.642 77.9036C390.906 77.9916 391.194 78.0356 391.506 78.0356C391.898 78.0356 392.262 77.9676 392.598 77.8316C392.942 77.6956 393.278 77.5036 393.606 77.2556L394.086 77.9756C393.934 78.1116 393.754 78.2356 393.546 78.3476C393.346 78.4596 393.126 78.5556 392.886 78.6356C392.654 78.7076 392.41 78.7636 392.154 78.8036C391.898 78.8516 391.642 78.8756 391.386 78.8756C390.818 78.8756 390.298 78.7996 389.826 78.6476C389.362 78.5036 388.966 78.2916 388.638 78.0116C388.31 77.7236 388.054 77.3716 387.87 76.9556C387.694 76.5396 387.606 76.0596 387.606 75.5156C387.606 74.9796 387.694 74.5036 387.87 74.0876C388.054 73.6636 388.306 73.3116 388.626 73.0316C388.946 72.7436 389.33 72.5276 389.778 72.3836C390.226 72.2316 390.722 72.1556 391.266 72.1556ZM401.113 73.2356H398.593V78.6356H396.913V73.2356H394.393V72.3956H401.113V73.2356ZM405.554 74.5556C406.578 74.5556 407.322 74.7396 407.786 75.1076C408.258 75.4676 408.494 75.9636 408.494 76.5956C408.494 77.2276 408.258 77.7276 407.786 78.0956C407.322 78.4556 406.578 78.6356 405.554 78.6356H402.074V72.3956H403.754V74.5556H405.554ZM403.754 75.3956V77.7956H405.554C405.914 77.7956 406.194 77.6956 406.394 77.4956C406.594 77.2876 406.694 76.9876 406.694 76.5956C406.694 76.2036 406.594 75.9076 406.394 75.7076C406.194 75.4996 405.914 75.3956 405.554 75.3956H403.754ZM416.05 72.1556C416.546 72.1556 417.006 72.2316 417.43 72.3836C417.854 72.5276 418.222 72.7436 418.534 73.0316C418.846 73.3116 419.09 73.6636 419.266 74.0876C419.442 74.5036 419.53 74.9796 419.53 75.5156C419.53 76.0596 419.442 76.5396 419.266 76.9556C419.09 77.3716 418.846 77.7236 418.534 78.0116C418.222 78.2916 417.854 78.5036 417.43 78.6476C417.006 78.7996 416.546 78.8756 416.05 78.8756C415.578 78.8756 415.138 78.8076 414.73 78.6716C414.33 78.5436 413.978 78.3556 413.674 78.1076C413.37 77.8516 413.122 77.5356 412.93 77.1596C412.738 76.7836 412.622 76.3556 412.582 75.8756H411.43V78.6356H409.75V72.3956H411.43V75.0356H412.594C412.642 74.5716 412.762 74.1636 412.954 73.8116C413.154 73.4516 413.406 73.1516 413.71 72.9116C414.014 72.6636 414.366 72.4756 414.766 72.3476C415.166 72.2196 415.594 72.1556 416.05 72.1556ZM416.05 78.0956C416.258 78.0956 416.462 78.0476 416.662 77.9516C416.87 77.8556 417.05 77.7076 417.202 77.5076C417.362 77.2996 417.49 77.0316 417.586 76.7036C417.682 76.3756 417.73 75.9796 417.73 75.5156C417.73 75.0516 417.682 74.6556 417.586 74.3276C417.49 73.9996 417.362 73.7356 417.202 73.5356C417.05 73.3276 416.87 73.1756 416.662 73.0796C416.462 72.9836 416.258 72.9356 416.05 72.9356C415.842 72.9356 415.634 72.9836 415.426 73.0796C415.226 73.1756 415.046 73.3276 414.886 73.5356C414.734 73.7356 414.61 73.9996 414.514 74.3276C414.418 74.6556 414.37 75.0516 414.37 75.5156C414.37 75.9796 414.418 76.3756 414.514 76.7036C414.61 77.0316 414.734 77.2996 414.886 77.5076C415.046 77.7076 415.226 77.8556 415.426 77.9516C415.634 78.0476 415.842 78.0956 416.05 78.0956Z" fill="#C75E3E"/>
<defs>
<clipPath id="clip0_28_8">
<rect width="100" height="100" fill="white" transform="translate(0 0.63562)"/>
</clipPath>
</defs>
</svg>
