<svg width="600" height="100" viewBox="0 0 600 100" fill="none" xmlns="http://www.w3.org/2000/svg">
<g clip-path="url(#clip0_28_7)">
<path d="M20.8362 11.6565C28.393 6.35778 37.3368 3.36256 46.6028 3.0276C55.8684 2.69278 65.0654 5.03228 73.0972 9.76754C81.1292 14.5029 87.6574 21.434 91.9044 29.7354C96.151 38.0366 97.9374 47.3582 97.0504 56.5886C96.163 65.8194 92.64 74.5702 86.9006 81.7984C81.1612 89.0264 73.4476 94.427 64.6792 97.3568C55.9104 100.286 46.4564 100.621 37.444 98.322C28.4314 96.0226 20.24 91.1858 13.8459 84.3876L18.4152 80.0888C23.9756 86.0004 31.0992 90.2068 38.9366 92.2066C46.7744 94.2062 54.996 93.9148 62.6214 91.367C70.2468 88.8196 76.9546 84.1228 81.9458 77.837C86.937 71.5514 90.0008 63.9414 90.7724 55.9142C91.5438 47.8866 89.9904 39.7806 86.2972 32.5614C82.604 25.3424 76.9268 19.3146 69.942 15.1969C62.9574 11.0788 54.9594 9.0444 46.9016 9.33568C38.8436 9.62682 31.0656 12.2317 24.4942 16.8397L20.8362 11.6565Z" fill="#ECE5DB"/>
<path d="M100 50C100 59.8892 97.0674 69.556 91.5732 77.7784C86.0794 86.001 78.2702 92.4094 69.134 96.194C59.9976 99.9784 49.9444 100.968 40.2456 99.0392C30.5464 97.11 21.6372 92.348 14.6447 85.3554C7.65202 78.3626 2.88996 69.4534 0.960681 59.7544C-0.968463 50.0554 0.0216944 40.0024 3.80602 30.866C7.59034 21.7296 13.999 13.9208 22.2216 8.4266C30.4438 2.93244 40.111 0 50 0V11.9858C42.4814 11.9858 35.1318 14.2153 28.8802 18.3923C22.629 22.5692 17.7566 28.5066 14.8794 35.4526C12.0023 42.3988 11.2493 50.042 12.7162 57.4162C14.1829 64.7902 17.8035 71.5636 23.1198 76.88C28.4362 82.1964 35.2096 85.8168 42.5836 87.2836C49.9578 88.7504 57.6012 87.9978 64.5472 85.1204C71.4934 82.2434 77.4306 77.3708 81.6076 71.1194C85.7846 64.868 88.0142 57.5186 88.0142 50H100Z" fill="black"/>
<mask id="mask0_28_7" style="mask-type:luminance" maskUnits="userSpaceOnUse" x="32" y="22" width="33" height="50">
<path d="M64.249 22H32.999V72H64.249V22Z" fill="white"/>
</mask>
<g mask="url(#mask0_28_7)">
<path fill-rule="evenodd" clip-rule="evenodd" d="M55.6694 33.4982L55.6662 33.4814C55.6632 33.4664 55.6586 33.4422 55.6522 33.4092C55.64 33.343 55.622 33.2426 55.6006 33.1124C55.558 32.852 55.503 32.4756 55.4546 32.022C55.357 31.1062 55.292 29.9182 55.4 28.7564C55.5104 27.567 55.7884 26.5636 56.251 25.894C56.652 25.314 57.2196 24.926 58.2474 24.926C58.8978 24.926 59.3448 25.0768 59.672 25.2804C60.008 25.4894 60.3022 25.8072 60.5556 26.2568C61.0788 27.1858 61.3292 28.4984 61.4346 29.9032C61.4264 31.3248 61.2334 32.7352 60.8634 34.0858C59.818 36.9474 59.742 40.1456 60.647 43.0652C60.6642 43.1204 60.6844 43.1744 60.708 43.2274C60.8764 43.6036 60.9818 44.0234 61.0122 44.461C61.017 44.531 61.0272 44.6 61.0418 44.668C61.5328 46.9114 61.3882 49.2772 60.6352 51.4106C59.882 53.544 58.573 55.2992 56.942 56.4526C56.6036 56.6918 56.3826 57.0582 56.332 57.4632C56.2818 57.8686 56.4066 58.276 56.6764 58.5874C57.1636 59.1498 57.3084 59.6392 57.3244 60.0452C57.3418 60.478 57.2158 60.9298 56.9852 61.3808C56.7552 61.831 56.4488 62.225 56.188 62.5132C56.0602 62.6546 55.9494 62.7636 55.8744 62.8342C55.8372 62.8694 55.8092 62.8946 55.793 62.9088L55.7794 62.9208C55.2 63.408 55.0886 64.2418 55.513 64.8546C55.5168 64.862 55.5224 64.8748 55.5284 64.892C55.5476 64.9478 55.5744 65.0588 55.5446 65.2254C55.4906 65.5268 55.1574 66.4502 53.0104 67.6894C51.1956 68.7362 48.7132 68.6716 46.0404 67.9668C43.4182 67.2746 40.9324 66.0508 39.3692 65.2088C38.4364 64.7064 37.9372 63.5618 37.7646 62.1124C37.6842 61.4346 37.689 60.792 37.7158 60.314C37.7292 60.077 37.7476 59.8862 37.762 59.758C37.769 59.694 37.7754 59.646 37.7794 59.6162L37.7838 59.5856L37.784 59.583C37.8564 59.1184 37.6964 58.6466 37.3534 58.3166C37.2708 58.2368 37.1282 58.0352 36.991 57.6256C36.8586 57.2304 36.7612 56.7336 36.7014 56.1678C36.684 56.0014 36.6698 55.8324 36.659 55.6624C37.2314 55.6874 37.7928 55.3894 38.067 54.857C38.44 54.1338 38.1422 53.2524 37.4022 52.8882C37.1566 52.7676 36.9192 52.6032 36.699 52.3968C36.6028 51.9832 36.3258 51.6298 35.9454 51.4302C35.9028 51.3106 35.8802 51.1752 35.8834 51.0344C35.8846 50.9854 35.8832 50.9368 35.8794 50.8882C35.8306 50.2694 36.2468 49.5826 37.0822 48.8942C37.4642 48.5788 37.861 48.3264 38.1672 48.151C38.3184 48.0648 38.443 47.9998 38.5258 47.9584C38.5674 47.9376 38.5982 47.9228 38.6164 47.914L38.6334 47.9062C38.6334 47.9062 36.7824 48.334 36.1566 47.0018C35.5306 45.6694 37.379 45.243 37.379 45.243L37.3758 45.2442L37.3706 45.2468L37.3554 45.2536C37.3554 45.2536 37.3464 45.258 37.3412 45.2602C37.3322 45.2644 37.3212 45.2696 37.3092 45.2752C37.2716 45.2932 37.22 45.3176 37.1572 45.3494C37.0314 45.4124 36.8578 45.5034 36.6526 45.6204C36.504 45.7054 36.3364 45.8058 36.1566 45.921C36.0912 45.6108 36.0582 45.2936 36.0582 44.9762C36.0582 44.1786 36.2666 43.3834 36.6768 42.6938C36.6634 42.7216 36.65 42.75 36.6372 42.7784L38.006 43.3778L36.7262 42.613C36.7096 42.64 36.693 42.6668 36.6768 42.6938C37.409 41.182 38.9008 40.2748 40.363 39.7124C41.8866 39.1264 43.6522 38.8078 45.2712 38.632C46.9038 38.4548 48.4624 38.4154 49.6068 38.4196C50.181 38.4214 50.6556 38.4344 50.9888 38.4468C51.1056 38.4512 51.2052 38.4556 51.2858 38.4594C51.233 38.4752 51.1788 38.489 51.123 38.5L51.429 39.9352L51.331 41.3982L51.3272 41.3978L51.307 41.3964C51.2884 41.3954 51.2592 41.3938 51.2202 41.3918C51.1422 41.3878 51.0248 41.3824 50.8732 41.3766C50.5698 41.3654 50.1304 41.353 49.5962 41.3512C48.5232 41.3476 47.0858 41.385 45.6022 41.546C44.105 41.7086 42.6348 41.9892 41.4616 42.4404C40.254 42.905 39.6164 43.4502 39.3746 43.9776C39.3484 44.0344 39.3188 44.0896 39.2854 44.1428C39.1462 44.3656 39.058 44.6576 39.058 44.9762C39.058 45.295 39.1462 45.5872 39.2854 45.8096C39.5092 46.167 39.5658 46.601 39.4408 47.0018C39.316 47.4022 39.0226 47.7312 38.6334 47.9062L36.1566 47.0018L36.7262 47.3398C36.453 46.903 36.2626 46.4208 36.1566 45.921C35.845 46.1206 35.4968 46.3654 35.1476 46.6528C34.1308 47.4912 32.756 48.9922 32.8832 51.0414C32.8808 51.5176 32.9632 51.9938 33.1296 52.4426C33.2598 52.7926 33.441 53.1254 33.6714 53.4254C33.6132 54.346 33.6072 55.4276 33.7172 56.469C33.7906 57.1638 33.9198 57.8812 34.14 58.5382C34.2808 58.958 34.4732 59.3976 34.7446 59.801C34.7358 59.9078 34.7276 60.0258 34.7202 60.1536C34.6872 60.7438 34.679 61.561 34.7846 62.451C34.9852 64.1366 35.6578 66.5576 37.921 67.7768C39.5536 68.656 42.288 70.0136 45.2588 70.7974C48.1794 71.5676 51.6626 71.8718 54.5354 70.214C57.0758 68.7482 58.234 67.2128 58.4996 65.7312C58.5908 65.2238 58.566 64.772 58.49 64.3944C58.8534 63.9854 59.3052 63.4028 59.669 62.6906C60.0514 61.9426 60.3648 60.996 60.3222 59.9304C60.2958 59.2674 60.1324 58.5984 59.8074 57.9428C61.4444 56.4698 62.7028 54.5434 63.4712 52.3668C64.3934 49.754 64.5748 46.883 63.9968 44.1536C63.937 43.4592 63.7686 42.7772 63.4952 42.1402C62.7948 39.822 62.871 37.2782 63.7058 35.0246C63.72 34.987 63.7324 34.9486 63.7432 34.9098C64.198 33.2734 64.4308 31.5698 64.4348 29.8568C64.4348 29.8212 64.4338 29.7858 64.431 29.7502C64.321 28.2242 64.0388 26.3614 63.1834 24.8434C62.7444 24.0634 62.133 23.3362 61.2836 22.8076C60.4258 22.2736 59.4078 21.9942 58.2474 21.9942C56.1856 21.9942 54.7024 22.897 53.765 24.2532C52.8894 25.52 52.5414 27.0984 52.4122 28.4912C52.2802 29.9114 52.3618 31.3052 52.4708 32.326C52.5256 32.8408 52.5886 33.271 52.6384 33.5754C52.6632 33.7278 52.685 33.8492 52.7008 33.9344C52.7084 33.9744 52.7146 34.007 52.7192 34.0304L52.7206 34.04C52.7244 34.0684 52.7304 34.1146 52.7368 34.1766C52.7506 34.3002 52.767 34.4838 52.777 34.7088C52.7974 35.1656 52.7902 35.7582 52.6918 36.3504C52.4954 37.534 52.0518 38.2304 51.2858 38.4594C51.3202 38.4614 51.3512 38.4626 51.3788 38.464C51.4014 38.4654 51.4216 38.4662 51.4392 38.4674C51.4572 38.4682 51.4724 38.4692 51.485 38.4698L51.5144 38.4718L51.523 38.4722H51.5256C51.5256 38.4722 51.5272 38.4726 51.429 39.9352C51.331 41.3982 51.331 41.3982 51.331 41.3982C51.4662 41.4068 51.6026 41.3974 51.7352 41.3702C54.4906 40.809 55.3836 38.4438 55.653 36.8196C55.7944 35.967 55.8002 35.161 55.7742 34.5802C55.7608 34.2862 55.7392 34.042 55.7202 33.867C55.7106 33.7794 55.7018 33.7086 55.6948 33.6576C55.6916 33.6318 55.6886 33.6112 55.6864 33.5956L55.6834 33.5762L55.6822 33.5694L55.6816 33.5658C55.6816 33.5658 55.6818 33.5648 54.199 33.7878L55.6816 33.5658C55.6782 33.5438 55.674 33.52 55.6694 33.4982ZM33.6714 53.4254C33.728 53.4992 33.7874 53.5706 33.85 53.64L33.6714 53.4254ZM32.8832 51.0414C32.8846 51.0652 32.8862 51.0892 32.8882 51.1132L34.3838 51.0008L32.884 50.9674C32.8836 50.992 32.8832 51.0168 32.8832 51.0414Z" fill="black"/>
<path fill-rule="evenodd" clip-rule="evenodd" d="M43.8478 47.4098L43.8706 47.4178L43.9428 47.4432C44.0066 47.4658 44.1016 47.499 44.2236 47.5414C44.4682 47.626 44.821 47.7472 45.2522 47.8908C46.116 48.179 47.2884 48.557 48.5292 48.9186C49.775 49.282 51.0644 49.6212 52.1692 49.8394C52.7218 49.9484 53.2048 50.0224 53.599 50.0562C53.9504 50.0864 54.162 50.0782 54.264 50.0654C55.7406 49.6212 57.3052 49.751 58.6982 50.4228C58.7468 50.446 58.7938 50.472 58.8396 50.5004C59.9296 51.1778 60.4766 52.1554 60.6224 53.1846C60.7586 54.1442 60.5408 55.0814 60.2754 55.8192C60.0044 56.5742 59.6384 57.2432 59.3518 57.7116C59.2064 57.949 59.0762 58.1434 58.9802 58.281C58.9322 58.35 58.8926 58.4052 58.8634 58.4448C58.8488 58.4648 58.8368 58.4808 58.8282 58.4928L58.8166 58.5076L58.8128 58.5128L58.8106 58.5158C58.8104 58.516 58.8102 58.5166 57.6084 57.639C58.5756 58.7596 58.5746 58.7604 58.5732 58.7614L58.571 58.7634L58.5658 58.7674L58.5544 58.7768C58.5462 58.7834 58.5366 58.7906 58.526 58.7988C58.5048 58.8156 58.4788 58.8352 58.4476 58.8576C58.3858 58.9024 58.3042 58.9582 58.2026 59.022C57.999 59.1492 57.7154 59.307 57.347 59.4682C56.6076 59.7926 55.5386 60.1266 54.1082 60.266C51.2412 60.5444 47.0192 60.0306 41.1814 57.2342C40.4374 56.8776 40.13 55.9994 40.4946 55.2724C40.8592 54.5454 41.7578 54.2448 42.5018 54.6014C47.9564 57.2144 51.6178 57.5614 53.8112 57.3482C54.9112 57.2414 55.6664 56.9916 56.1188 56.7932C56.3052 56.7116 56.4426 56.6376 56.5328 56.5842C56.598 56.4892 56.683 56.3606 56.7774 56.2064C57.0034 55.8372 57.2634 55.3534 57.445 54.848C57.6324 54.326 57.6944 53.8952 57.6508 53.587C57.6194 53.3656 57.5378 53.186 57.2918 53.015C56.5798 52.6946 55.815 52.6528 55.093 52.8844C55.043 52.9004 54.992 52.914 54.9404 52.9248C54.428 53.0322 53.8556 53.0214 53.3358 52.9768C52.792 52.93 52.1912 52.8346 51.5756 52.7132C50.343 52.4702 48.9558 52.1028 47.6714 51.7282C46.3822 51.3524 45.1706 50.9616 44.2834 50.6658C43.839 50.5176 43.4746 50.3928 43.2204 50.3046C43.0932 50.2604 42.9936 50.2254 42.9252 50.2014L42.8466 50.1736L42.8188 50.1638C42.8186 50.1638 42.818 50.1634 43.3152 48.8338L42.8188 50.1638C42.0408 49.8858 41.6396 49.0436 41.9242 48.2834C42.2086 47.5228 43.07 47.132 43.8478 47.4098ZM57.6084 57.639L58.5756 58.7596C58.663 58.6874 58.7422 58.6054 58.8106 58.5158L57.6084 57.639Z" fill="black"/>
<path fill-rule="evenodd" clip-rule="evenodd" d="M41.2902 62.286C41.583 61.5288 42.4488 61.1468 43.2236 61.4328C48.4006 63.345 51.687 63.5948 53.5906 63.434C54.5406 63.3538 55.153 63.1708 55.4944 63.036C55.666 62.968 55.7726 62.911 55.822 62.8822C55.8354 62.8746 55.8446 62.8688 55.85 62.8654C56.492 62.3894 57.409 62.494 57.9204 63.1096C58.4426 63.7384 58.3446 64.6616 57.7016 65.1718L56.7558 64.0338C57.7016 65.1718 57.6988 65.174 57.6988 65.174L57.696 65.1762L57.6906 65.1806L57.6784 65.19C57.6696 65.1968 57.66 65.2038 57.6494 65.2114C57.6284 65.227 57.6036 65.2448 57.575 65.2644C57.5176 65.3038 57.4448 65.3504 57.3554 65.4024C57.1768 65.5064 56.9338 65.6298 56.6192 65.7542C55.9884 66.0034 55.0828 66.2508 53.849 66.355C51.3846 66.5632 47.6398 66.1984 42.1634 64.1758C41.3882 63.8894 40.9974 63.0434 41.2902 62.286Z" fill="black"/>
<path fill-rule="evenodd" clip-rule="evenodd" d="M54.3154 43.778C54.646 43.0354 55.53 42.6956 56.2898 43.0186C58.6554 44.024 59.7754 45.446 60.1528 46.8488C60.3316 47.5126 60.3224 48.099 60.2666 48.5252C60.2388 48.7388 60.1986 48.9164 60.162 49.0494C60.1504 49.092 60.1392 49.1304 60.1284 49.164C59.7814 50.7676 58.6792 51.719 57.7862 52.2342C57.3274 52.4984 56.8932 52.6684 56.5742 52.7728C56.4132 52.8256 56.2768 52.8632 56.1754 52.8886C56.1246 52.9014 56.0824 52.9112 56.0496 52.9184C56.0332 52.922 56.0192 52.925 56.0078 52.9274L55.9926 52.9304L55.9862 52.9314L55.9822 52.9322C55.9816 52.9326 55.981 52.9328 55.6914 51.4944L55.9822 52.9322C55.1692 53.0888 54.379 52.5716 54.2192 51.7772C54.0596 50.9866 54.5832 50.2194 55.39 50.0582M57.2618 48.2972C57.2622 48.2954 57.2628 48.293 57.2638 48.2896C57.2696 48.268 57.2814 48.2208 57.2898 48.154C57.3076 48.0192 57.3116 47.8214 57.2506 47.594C57.1484 47.2138 56.7766 46.4228 55.0928 45.707C54.3326 45.3842 53.9848 44.5204 54.3154 43.778" fill="black"/>
</g>
</g>
<path d="M134.96 48.46L147.68 65.5H139.76L128.72 50.62H120.32V65.5H113.36V31.9H120.32V47.02H128.24L139.28 31.9H146.96L134.96 48.46ZM159.194 63.34C160.218 63.34 161.178 63.148 162.074 62.764C162.97 62.38 163.754 61.788 164.426 60.988C165.098 60.156 165.626 59.084 166.01 57.772C166.426 56.46 166.634 54.876 166.634 53.02C166.634 51.164 166.426 49.58 166.01 48.268C165.626 46.956 165.098 45.9 164.426 45.1C163.754 44.268 162.97 43.66 162.074 43.276C161.178 42.892 160.218 42.7 159.194 42.7C158.17 42.7 157.21 42.892 156.314 43.276C155.418 43.66 154.634 44.268 153.962 45.1C153.29 45.9 152.746 46.956 152.33 48.268C151.946 49.58 151.754 51.164 151.754 53.02C151.754 54.876 151.946 56.46 152.33 57.772C152.746 59.084 153.29 60.156 153.962 60.988C154.634 61.788 155.418 62.38 156.314 62.764C157.21 63.148 158.17 63.34 159.194 63.34ZM159.194 39.58C161.338 39.58 163.306 39.884 165.098 40.492C166.922 41.068 168.474 41.932 169.754 43.084C171.034 44.204 172.026 45.612 172.73 47.308C173.466 48.972 173.834 50.876 173.834 53.02C173.834 55.196 173.466 57.116 172.73 58.78C172.026 60.444 171.034 61.852 169.754 63.004C168.474 64.124 166.922 64.972 165.098 65.548C163.306 66.156 161.338 66.46 159.194 66.46C157.018 66.46 155.034 66.156 153.242 65.548C151.45 64.972 149.914 64.124 148.634 63.004C147.354 61.852 146.346 60.444 145.61 58.78C144.906 57.116 144.554 55.196 144.554 53.02C144.554 50.876 144.906 48.972 145.61 47.308C146.346 45.612 147.354 44.204 148.634 43.084C149.914 41.932 151.45 41.068 153.242 40.492C155.034 39.884 157.018 39.58 159.194 39.58ZM193.764 61.18L201.684 40.54H211.524V65.5H204.804V47.26H204.324L197.364 65.5H189.732L182.724 47.26H182.244V65.5H175.524V40.54H185.364L193.284 61.18H193.764ZM240.787 40.54V65.5H234.067V43.9H221.107V65.5H214.387V40.54H240.787ZM257.128 63.34C258.152 63.34 259.112 63.148 260.008 62.764C260.904 62.38 261.688 61.788 262.36 60.988C263.032 60.156 263.56 59.084 263.944 57.772C264.359 56.46 264.567 54.876 264.567 53.02C264.567 51.164 264.359 49.58 263.944 48.268C263.56 46.956 263.032 45.9 262.36 45.1C261.688 44.268 260.904 43.66 260.008 43.276C259.112 42.892 258.152 42.7 257.128 42.7C256.104 42.7 255.144 42.892 254.248 43.276C253.352 43.66 252.568 44.268 251.895 45.1C251.224 45.9 250.68 46.956 250.264 48.268C249.879 49.58 249.687 51.164 249.687 53.02C249.687 54.876 249.879 56.46 250.264 57.772C250.68 59.084 251.224 60.156 251.895 60.988C252.568 61.788 253.352 62.38 254.248 62.764C255.144 63.148 256.104 63.34 257.128 63.34ZM257.128 39.58C259.272 39.58 261.24 39.884 263.032 40.492C264.856 41.068 266.408 41.932 267.688 43.084C268.968 44.204 269.96 45.612 270.664 47.308C271.4 48.972 271.768 50.876 271.768 53.02C271.768 55.196 271.4 57.116 270.664 58.78C269.96 60.444 268.968 61.852 267.688 63.004C266.408 64.124 264.856 64.972 263.032 65.548C261.24 66.156 259.272 66.46 257.128 66.46C254.951 66.46 252.967 66.156 251.175 65.548C249.383 64.972 247.847 64.124 246.567 63.004C245.287 61.852 244.279 60.444 243.543 58.78C242.839 57.116 242.487 55.196 242.487 53.02C242.487 50.876 242.839 48.972 243.543 47.308C244.279 45.612 245.287 44.204 246.567 43.084C247.847 41.932 249.383 41.068 251.175 40.492C252.967 39.884 254.951 39.58 257.128 39.58ZM299.857 40.54V65.5H293.137V54.46H280.177V65.5H273.457V40.54H280.177V51.1H293.137V40.54H299.857ZM317.158 63.1C318.726 63.1 320.182 62.828 321.526 62.284C322.902 61.74 324.246 60.972 325.558 59.98L327.478 62.86C326.87 63.404 326.15 63.9 325.318 64.348C324.518 64.796 323.638 65.18 322.678 65.5C321.75 65.788 320.774 66.012 319.75 66.172C318.726 66.364 317.702 66.46 316.678 66.46C314.406 66.46 312.326 66.156 310.438 65.548C308.582 64.972 306.998 64.124 305.686 63.004C304.374 61.852 303.35 60.444 302.614 58.78C301.91 57.116 301.558 55.196 301.558 53.02C301.558 50.876 301.894 48.972 302.566 47.308C303.27 45.612 304.23 44.204 305.446 43.084C306.694 41.932 308.166 41.068 309.862 40.492C311.558 39.884 313.43 39.58 315.478 39.58C317.398 39.58 319.206 39.868 320.902 40.444C322.598 41.02 324.07 41.868 325.318 42.988C326.566 44.076 327.558 45.404 328.294 46.972C329.03 48.54 329.398 50.316 329.398 52.3V55.66H308.902C309.286 58.316 310.198 60.22 311.638 61.372C313.11 62.524 314.95 63.1 317.158 63.1ZM315.478 42.7C314.55 42.7 313.686 42.876 312.886 43.228C312.086 43.58 311.382 44.14 310.774 44.908C310.198 45.676 309.718 46.668 309.334 47.884C308.982 49.1 308.79 50.572 308.758 52.3H322.198C322.198 50.636 322.006 49.196 321.622 47.98C321.238 46.764 320.726 45.772 320.086 45.004C319.478 44.204 318.758 43.628 317.926 43.276C317.126 42.892 316.31 42.7 315.478 42.7ZM357.474 40.54V65.5H350.754V54.46H337.794V65.5H331.074V40.54H337.794V51.1H350.754V40.54H357.474ZM384.374 43.9H374.294V65.5H367.574V43.9H357.494V40.54H384.374V43.9ZM409.319 62.86C411.079 62.86 412.695 62.62 414.167 62.14C415.639 61.628 416.919 60.876 418.007 59.884C419.127 58.86 420.023 57.564 420.695 55.996C421.367 54.428 421.783 52.556 421.943 50.38H403.847V46.78H421.943C421.783 44.668 421.367 42.844 420.695 41.308C420.023 39.772 419.143 38.508 418.055 37.516C416.999 36.492 415.767 35.74 414.359 35.26C412.951 34.78 411.431 34.54 409.799 34.54C407.623 34.54 405.527 34.924 403.511 35.692C401.527 36.428 399.623 37.644 397.799 39.34L395.399 36.46C397.223 34.764 399.431 33.42 402.023 32.428C404.615 31.436 407.367 30.94 410.279 30.94C413.159 30.94 415.767 31.324 418.103 32.092C420.471 32.86 422.487 33.996 424.151 35.5C425.847 37.004 427.159 38.86 428.087 41.068C429.015 43.276 429.479 45.82 429.479 48.7C429.479 51.58 429.015 54.124 428.087 56.332C427.159 58.54 425.831 60.396 424.103 61.9C422.407 63.404 420.343 64.54 417.911 65.308C415.511 66.076 412.807 66.46 409.799 66.46C406.887 66.46 404.135 65.964 401.543 64.972C398.951 63.98 396.743 62.636 394.919 60.94L397.319 58.06C399.143 59.756 401.047 60.988 403.031 61.756C405.047 62.492 407.143 62.86 409.319 62.86ZM457.801 40.54V65.5H451.081V54.46H438.121V65.5H431.401V40.54H438.121V51.1H451.081V40.54H457.801ZM475.102 63.1C476.67 63.1 478.126 62.828 479.47 62.284C480.846 61.74 482.19 60.972 483.502 59.98L485.422 62.86C484.814 63.404 484.094 63.9 483.262 64.348C482.462 64.796 481.582 65.18 480.622 65.5C479.694 65.788 478.718 66.012 477.694 66.172C476.67 66.364 475.646 66.46 474.622 66.46C472.35 66.46 470.27 66.156 468.382 65.548C466.526 64.972 464.942 64.124 463.63 63.004C462.318 61.852 461.294 60.444 460.558 58.78C459.854 57.116 459.502 55.196 459.502 53.02C459.502 50.876 459.838 48.972 460.51 47.308C461.214 45.612 462.174 44.204 463.39 43.084C464.638 41.932 466.11 41.068 467.806 40.492C469.502 39.884 471.374 39.58 473.422 39.58C475.342 39.58 477.15 39.868 478.846 40.444C480.542 41.02 482.014 41.868 483.262 42.988C484.51 44.076 485.502 45.404 486.238 46.972C486.974 48.54 487.342 50.316 487.342 52.3V55.66H466.846C467.23 58.316 468.142 60.22 469.582 61.372C471.054 62.524 472.894 63.1 475.102 63.1ZM473.422 42.7C472.494 42.7 471.63 42.876 470.83 43.228C470.03 43.58 469.326 44.14 468.718 44.908C468.142 45.676 467.662 46.668 467.278 47.884C466.926 49.1 466.734 50.572 466.702 52.3H480.142C480.142 50.636 479.95 49.196 479.566 47.98C479.182 46.764 478.67 45.772 478.03 45.004C477.422 44.204 476.702 43.628 475.87 43.276C475.07 42.892 474.254 42.7 473.422 42.7ZM495.738 43.9V62.14H501.738C502.826 62.14 503.818 61.98 504.714 61.66C505.642 61.308 506.426 60.764 507.066 60.028C507.738 59.292 508.25 58.348 508.602 57.196C508.986 56.044 509.178 54.652 509.178 53.02C509.178 51.388 508.986 49.996 508.602 48.844C508.25 47.692 507.738 46.748 507.066 46.012C506.426 45.276 505.642 44.748 504.714 44.428C503.818 44.076 502.826 43.9 501.738 43.9H495.738ZM501.738 40.54C503.946 40.54 505.946 40.828 507.738 41.404C509.562 41.98 511.114 42.812 512.394 43.9C513.674 44.988 514.65 46.3 515.322 47.836C516.026 49.372 516.378 51.1 516.378 53.02C516.378 54.94 516.026 56.668 515.322 58.204C514.65 59.74 513.674 61.052 512.394 62.14C511.114 63.228 509.562 64.06 507.738 64.636C505.946 65.212 503.946 65.5 501.738 65.5H495.738V74.14H489.018V40.54H501.738ZM538.197 43.9H524.757V65.5H518.037V40.54H538.197V43.9ZM565.077 40.54V65.5H558.357V46.78H557.877L546.837 65.5H538.197V40.54H544.917V59.26H545.397L556.437 40.54H565.077ZM594.847 40.54V65.5H588.127V46.78H587.647L576.607 65.5H567.967V40.54H574.687V59.26H575.167L586.207 40.54H594.847Z" fill="black"/>
<defs>
<clipPath id="clip0_28_7">
<rect width="100" height="100" fill="white"/>
</clipPath>
</defs>
</svg>
