<svg width="600" height="100" viewBox="0 0 600 100" fill="none" xmlns="http://www.w3.org/2000/svg">
<g clip-path="url(#clip0_28_7)">
<path d="M20.8362 11.6565C28.393 6.35778 37.3368 3.36256 46.6028 3.0276C55.8684 2.69278 65.0654 5.03228 73.0972 9.76754C81.1292 14.5029 87.6574 21.434 91.9044 29.7354C96.151 38.0366 97.9374 47.3582 97.0504 56.5886C96.163 65.8194 92.64 74.5702 86.9006 81.7984C81.1612 89.0264 73.4476 94.427 64.6792 97.3568C55.9104 100.286 46.4564 100.621 37.444 98.322C28.4314 96.0226 20.24 91.1858 13.8459 84.3876L18.4152 80.0888C23.9756 86.0004 31.0992 90.2068 38.9366 92.2066C46.7744 94.2062 54.996 93.9148 62.6214 91.367C70.2468 88.8196 76.9546 84.1228 81.9458 77.837C86.937 71.5514 90.0008 63.9414 90.7724 55.9142C91.5438 47.8866 89.9904 39.7806 86.2972 32.5614C82.604 25.3424 76.9268 19.3146 69.942 15.1969C62.9574 11.0788 54.9594 9.0444 46.9016 9.33568C38.8436 9.62682 31.0656 12.2317 24.4942 16.8397L20.8362 11.6565Z" fill="black"/>
<path d="M100 50C100 59.8892 97.0674 69.556 91.5732 77.7784C86.0794 86.001 78.2702 92.4094 69.134 96.194C59.9976 99.9784 49.9444 100.968 40.2456 99.0392C30.5464 97.11 21.6372 92.348 14.6447 85.3554C7.65202 78.3626 2.88996 69.4534 0.960681 59.7544C-0.968463 50.0554 0.0216944 40.0024 3.80602 30.866C7.59034 21.7296 13.999 13.9208 22.2216 8.4266C30.4438 2.93244 40.111 0 50 0V11.9858C42.4814 11.9858 35.1318 14.2153 28.8802 18.3923C22.629 22.5692 17.7566 28.5066 14.8794 35.4526C12.0023 42.3988 11.2493 50.042 12.7162 57.4162C14.1829 64.7902 17.8035 71.5636 23.1198 76.88C28.4362 82.1964 35.2096 85.8168 42.5836 87.2836C49.9578 88.7504 57.6012 87.9978 64.5472 85.1204C71.4934 82.2434 77.4306 77.3708 81.6076 71.1194C85.7846 64.868 88.0142 57.5186 88.0142 50H100Z" fill="black"/>
<mask id="mask0_28_7" style="mask-type:luminance" maskUnits="userSpaceOnUse" x="32" y="22" width="33" height="50">
<path d="M64.249 22H32.999V72H64.249V22Z" fill="white"/>
</mask>
<g mask="url(#mask0_28_7)">
<path fill-rule="evenodd" clip-rule="evenodd" d="M55.6694 33.4982L55.6662 33.4814C55.6632 33.4664 55.6586 33.4422 55.6522 33.4092C55.64 33.343 55.622 33.2426 55.6006 33.1124C55.558 32.852 55.503 32.4756 55.4546 32.022C55.357 31.1062 55.292 29.9182 55.4 28.7564C55.5104 27.567 55.7884 26.5636 56.251 25.894C56.652 25.314 57.2196 24.926 58.2474 24.926C58.8978 24.926 59.3448 25.0768 59.672 25.2804C60.008 25.4894 60.3022 25.8072 60.5556 26.2568C61.0788 27.1858 61.3292 28.4984 61.4346 29.9032C61.4264 31.3248 61.2334 32.7352 60.8634 34.0858C59.818 36.9474 59.742 40.1456 60.647 43.0652C60.6642 43.1204 60.6844 43.1744 60.708 43.2274C60.8764 43.6036 60.9818 44.0234 61.0122 44.461C61.017 44.531 61.0272 44.6 61.0418 44.668C61.5328 46.9114 61.3882 49.2772 60.6352 51.4106C59.882 53.544 58.573 55.2992 56.942 56.4526C56.6036 56.6918 56.3826 57.0582 56.332 57.4632C56.2818 57.8686 56.4066 58.276 56.6764 58.5874C57.1636 59.1498 57.3084 59.6392 57.3244 60.0452C57.3418 60.478 57.2158 60.9298 56.9852 61.3808C56.7552 61.831 56.4488 62.225 56.188 62.5132C56.0602 62.6546 55.9494 62.7636 55.8744 62.8342C55.8372 62.8694 55.8092 62.8946 55.793 62.9088L55.7794 62.9208C55.2 63.408 55.0886 64.2418 55.513 64.8546C55.5168 64.862 55.5224 64.8748 55.5284 64.892C55.5476 64.9478 55.5744 65.0588 55.5446 65.2254C55.4906 65.5268 55.1574 66.4502 53.0104 67.6894C51.1956 68.7362 48.7132 68.6716 46.0404 67.9668C43.4182 67.2746 40.9324 66.0508 39.3692 65.2088C38.4364 64.7064 37.9372 63.5618 37.7646 62.1124C37.6842 61.4346 37.689 60.792 37.7158 60.314C37.7292 60.077 37.7476 59.8862 37.762 59.758C37.769 59.694 37.7754 59.646 37.7794 59.6162L37.7838 59.5856L37.784 59.583C37.8564 59.1184 37.6964 58.6466 37.3534 58.3166C37.2708 58.2368 37.1282 58.0352 36.991 57.6256C36.8586 57.2304 36.7612 56.7336 36.7014 56.1678C36.684 56.0014 36.6698 55.8324 36.659 55.6624C37.2314 55.6874 37.7928 55.3894 38.067 54.857C38.44 54.1338 38.1422 53.2524 37.4022 52.8882C37.1566 52.7676 36.9192 52.6032 36.699 52.3968C36.6028 51.9832 36.3258 51.6298 35.9454 51.4302C35.9028 51.3106 35.8802 51.1752 35.8834 51.0344C35.8846 50.9854 35.8832 50.9368 35.8794 50.8882C35.8306 50.2694 36.2468 49.5826 37.0822 48.8942C37.4642 48.5788 37.861 48.3264 38.1672 48.151C38.3184 48.0648 38.443 47.9998 38.5258 47.9584C38.5674 47.9376 38.5982 47.9228 38.6164 47.914L38.6334 47.9062C38.6334 47.9062 36.7824 48.334 36.1566 47.0018C35.5306 45.6694 37.379 45.243 37.379 45.243L37.3758 45.2442L37.3706 45.2468L37.3554 45.2536C37.3554 45.2536 37.3464 45.258 37.3412 45.2602C37.3322 45.2644 37.3212 45.2696 37.3092 45.2752C37.2716 45.2932 37.22 45.3176 37.1572 45.3494C37.0314 45.4124 36.8578 45.5034 36.6526 45.6204C36.504 45.7054 36.3364 45.8058 36.1566 45.921C36.0912 45.6108 36.0582 45.2936 36.0582 44.9762C36.0582 44.1786 36.2666 43.3834 36.6768 42.6938C36.6634 42.7216 36.65 42.75 36.6372 42.7784L38.006 43.3778L36.7262 42.613C36.7096 42.64 36.693 42.6668 36.6768 42.6938C37.409 41.182 38.9008 40.2748 40.363 39.7124C41.8866 39.1264 43.6522 38.8078 45.2712 38.632C46.9038 38.4548 48.4624 38.4154 49.6068 38.4196C50.181 38.4214 50.6556 38.4344 50.9888 38.4468C51.1056 38.4512 51.2052 38.4556 51.2858 38.4594C51.233 38.4752 51.1788 38.489 51.123 38.5L51.429 39.9352L51.331 41.3982L51.3272 41.3978L51.307 41.3964C51.2884 41.3954 51.2592 41.3938 51.2202 41.3918C51.1422 41.3878 51.0248 41.3824 50.8732 41.3766C50.5698 41.3654 50.1304 41.353 49.5962 41.3512C48.5232 41.3476 47.0858 41.385 45.6022 41.546C44.105 41.7086 42.6348 41.9892 41.4616 42.4404C40.254 42.905 39.6164 43.4502 39.3746 43.9776C39.3484 44.0344 39.3188 44.0896 39.2854 44.1428C39.1462 44.3656 39.058 44.6576 39.058 44.9762C39.058 45.295 39.1462 45.5872 39.2854 45.8096C39.5092 46.167 39.5658 46.601 39.4408 47.0018C39.316 47.4022 39.0226 47.7312 38.6334 47.9062L36.1566 47.0018L36.7262 47.3398C36.453 46.903 36.2626 46.4208 36.1566 45.921C35.845 46.1206 35.4968 46.3654 35.1476 46.6528C34.1308 47.4912 32.756 48.9922 32.8832 51.0414C32.8808 51.5176 32.9632 51.9938 33.1296 52.4426C33.2598 52.7926 33.441 53.1254 33.6714 53.4254C33.6132 54.346 33.6072 55.4276 33.7172 56.469C33.7906 57.1638 33.9198 57.8812 34.14 58.5382C34.2808 58.958 34.4732 59.3976 34.7446 59.801C34.7358 59.9078 34.7276 60.0258 34.7202 60.1536C34.6872 60.7438 34.679 61.561 34.7846 62.451C34.9852 64.1366 35.6578 66.5576 37.921 67.7768C39.5536 68.656 42.288 70.0136 45.2588 70.7974C48.1794 71.5676 51.6626 71.8718 54.5354 70.214C57.0758 68.7482 58.234 67.2128 58.4996 65.7312C58.5908 65.2238 58.566 64.772 58.49 64.3944C58.8534 63.9854 59.3052 63.4028 59.669 62.6906C60.0514 61.9426 60.3648 60.996 60.3222 59.9304C60.2958 59.2674 60.1324 58.5984 59.8074 57.9428C61.4444 56.4698 62.7028 54.5434 63.4712 52.3668C64.3934 49.754 64.5748 46.883 63.9968 44.1536C63.937 43.4592 63.7686 42.7772 63.4952 42.1402C62.7948 39.822 62.871 37.2782 63.7058 35.0246C63.72 34.987 63.7324 34.9486 63.7432 34.9098C64.198 33.2734 64.4308 31.5698 64.4348 29.8568C64.4348 29.8212 64.4338 29.7858 64.431 29.7502C64.321 28.2242 64.0388 26.3614 63.1834 24.8434C62.7444 24.0634 62.133 23.3362 61.2836 22.8076C60.4258 22.2736 59.4078 21.9942 58.2474 21.9942C56.1856 21.9942 54.7024 22.897 53.765 24.2532C52.8894 25.52 52.5414 27.0984 52.4122 28.4912C52.2802 29.9114 52.3618 31.3052 52.4708 32.326C52.5256 32.8408 52.5886 33.271 52.6384 33.5754C52.6632 33.7278 52.685 33.8492 52.7008 33.9344C52.7084 33.9744 52.7146 34.007 52.7192 34.0304L52.7206 34.04C52.7244 34.0684 52.7304 34.1146 52.7368 34.1766C52.7506 34.3002 52.767 34.4838 52.777 34.7088C52.7974 35.1656 52.7902 35.7582 52.6918 36.3504C52.4954 37.534 52.0518 38.2304 51.2858 38.4594C51.3202 38.4614 51.3512 38.4626 51.3788 38.464C51.4014 38.4654 51.4216 38.4662 51.4392 38.4674C51.4572 38.4682 51.4724 38.4692 51.485 38.4698L51.5144 38.4718L51.523 38.4722H51.5256C51.5256 38.4722 51.5272 38.4726 51.429 39.9352C51.331 41.3982 51.331 41.3982 51.331 41.3982C51.4662 41.4068 51.6026 41.3974 51.7352 41.3702C54.4906 40.809 55.3836 38.4438 55.653 36.8196C55.7944 35.967 55.8002 35.161 55.7742 34.5802C55.7608 34.2862 55.7392 34.042 55.7202 33.867C55.7106 33.7794 55.7018 33.7086 55.6948 33.6576C55.6916 33.6318 55.6886 33.6112 55.6864 33.5956L55.6834 33.5762L55.6822 33.5694L55.6816 33.5658C55.6816 33.5658 55.6818 33.5648 54.199 33.7878L55.6816 33.5658C55.6782 33.5438 55.674 33.52 55.6694 33.4982ZM33.6714 53.4254C33.728 53.4992 33.7874 53.5706 33.85 53.64L33.6714 53.4254ZM32.8832 51.0414C32.8846 51.0652 32.8862 51.0892 32.8882 51.1132L34.3838 51.0008L32.884 50.9674C32.8836 50.992 32.8832 51.0168 32.8832 51.0414Z" fill="black"/>
<path fill-rule="evenodd" clip-rule="evenodd" d="M43.8478 47.4098L43.8706 47.4178L43.9428 47.4432C44.0066 47.4658 44.1016 47.499 44.2236 47.5414C44.4682 47.626 44.821 47.7472 45.2522 47.8908C46.116 48.179 47.2884 48.557 48.5292 48.9186C49.775 49.282 51.0644 49.6212 52.1692 49.8394C52.7218 49.9484 53.2048 50.0224 53.599 50.0562C53.9504 50.0864 54.162 50.0782 54.264 50.0654C55.7406 49.6212 57.3052 49.751 58.6982 50.4228C58.7468 50.446 58.7938 50.472 58.8396 50.5004C59.9296 51.1778 60.4766 52.1554 60.6224 53.1846C60.7586 54.1442 60.5408 55.0814 60.2754 55.8192C60.0044 56.5742 59.6384 57.2432 59.3518 57.7116C59.2064 57.949 59.0762 58.1434 58.9802 58.281C58.9322 58.35 58.8926 58.4052 58.8634 58.4448C58.8488 58.4648 58.8368 58.4808 58.8282 58.4928L58.8166 58.5076L58.8128 58.5128L58.8106 58.5158C58.8104 58.516 58.8102 58.5166 57.6084 57.639C58.5756 58.7596 58.5746 58.7604 58.5732 58.7614L58.571 58.7634L58.5658 58.7674L58.5544 58.7768C58.5462 58.7834 58.5366 58.7906 58.526 58.7988C58.5048 58.8156 58.4788 58.8352 58.4476 58.8576C58.3858 58.9024 58.3042 58.9582 58.2026 59.022C57.999 59.1492 57.7154 59.307 57.347 59.4682C56.6076 59.7926 55.5386 60.1266 54.1082 60.266C51.2412 60.5444 47.0192 60.0306 41.1814 57.2342C40.4374 56.8776 40.13 55.9994 40.4946 55.2724C40.8592 54.5454 41.7578 54.2448 42.5018 54.6014C47.9564 57.2144 51.6178 57.5614 53.8112 57.3482C54.9112 57.2414 55.6664 56.9916 56.1188 56.7932C56.3052 56.7116 56.4426 56.6376 56.5328 56.5842C56.598 56.4892 56.683 56.3606 56.7774 56.2064C57.0034 55.8372 57.2634 55.3534 57.445 54.848C57.6324 54.326 57.6944 53.8952 57.6508 53.587C57.6194 53.3656 57.5378 53.186 57.2918 53.015C56.5798 52.6946 55.815 52.6528 55.093 52.8844C55.043 52.9004 54.992 52.914 54.9404 52.9248C54.428 53.0322 53.8556 53.0214 53.3358 52.9768C52.792 52.93 52.1912 52.8346 51.5756 52.7132C50.343 52.4702 48.9558 52.1028 47.6714 51.7282C46.3822 51.3524 45.1706 50.9616 44.2834 50.6658C43.839 50.5176 43.4746 50.3928 43.2204 50.3046C43.0932 50.2604 42.9936 50.2254 42.9252 50.2014L42.8466 50.1736L42.8188 50.1638C42.8186 50.1638 42.818 50.1634 43.3152 48.8338L42.8188 50.1638C42.0408 49.8858 41.6396 49.0436 41.9242 48.2834C42.2086 47.5228 43.07 47.132 43.8478 47.4098ZM57.6084 57.639L58.5756 58.7596C58.663 58.6874 58.7422 58.6054 58.8106 58.5158L57.6084 57.639Z" fill="black"/>
<path fill-rule="evenodd" clip-rule="evenodd" d="M41.2902 62.286C41.583 61.5288 42.4488 61.1468 43.2236 61.4328C48.4006 63.345 51.687 63.5948 53.5906 63.434C54.5406 63.3538 55.153 63.1708 55.4944 63.036C55.666 62.968 55.7726 62.911 55.822 62.8822C55.8354 62.8746 55.8446 62.8688 55.85 62.8654C56.492 62.3894 57.409 62.494 57.9204 63.1096C58.4426 63.7384 58.3446 64.6616 57.7016 65.1718L56.7558 64.0338C57.7016 65.1718 57.6988 65.174 57.6988 65.174L57.696 65.1762L57.6906 65.1806L57.6784 65.19C57.6696 65.1968 57.66 65.2038 57.6494 65.2114C57.6284 65.227 57.6036 65.2448 57.575 65.2644C57.5176 65.3038 57.4448 65.3504 57.3554 65.4024C57.1768 65.5064 56.9338 65.6298 56.6192 65.7542C55.9884 66.0034 55.0828 66.2508 53.849 66.355C51.3846 66.5632 47.6398 66.1984 42.1634 64.1758C41.3882 63.8894 40.9974 63.0434 41.2902 62.286Z" fill="black"/>
<path fill-rule="evenodd" clip-rule="evenodd" d="M54.3154 43.778C54.646 43.0354 55.53 42.6956 56.2898 43.0186C58.6554 44.024 59.7754 45.446 60.1528 46.8488C60.3316 47.5126 60.3224 48.099 60.2666 48.5252C60.2388 48.7388 60.1986 48.9164 60.162 49.0494C60.1504 49.092 60.1392 49.1304 60.1284 49.164C59.7814 50.7676 58.6792 51.719 57.7862 52.2342C57.3274 52.4984 56.8932 52.6684 56.5742 52.7728C56.4132 52.8256 56.2768 52.8632 56.1754 52.8886C56.1246 52.9014 56.0824 52.9112 56.0496 52.9184C56.0332 52.922 56.0192 52.925 56.0078 52.9274L55.9926 52.9304L55.9862 52.9314L55.9822 52.9322C55.9816 52.9326 55.981 52.9328 55.6914 51.4944L55.9822 52.9322C55.1692 53.0888 54.379 52.5716 54.2192 51.7772C54.0596 50.9866 54.5832 50.2194 55.39 50.0582M57.2618 48.2972C57.2622 48.2954 57.2628 48.293 57.2638 48.2896C57.2696 48.268 57.2814 48.2208 57.2898 48.154C57.3076 48.0192 57.3116 47.8214 57.2506 47.594C57.1484 47.2138 56.7766 46.4228 55.0928 45.707C54.3326 45.3842 53.9848 44.5204 54.3154 43.778" fill="black"/>
</g>
</g>
<path d="M118.1 14.8C117.488 14.8 116.912 14.908 116.372 15.124C115.844 15.34 115.382 15.67 114.986 16.114C114.59 16.558 114.272 17.122 114.032 17.806C113.804 18.478 113.69 19.276 113.69 20.2C113.69 21.124 113.804 21.928 114.032 22.612C114.272 23.284 114.59 23.842 114.986 24.286C115.382 24.73 115.844 25.06 116.372 25.276C116.912 25.492 117.488 25.6 118.1 25.6C118.712 25.6 119.282 25.492 119.81 25.276C120.35 25.06 120.818 24.73 121.214 24.286C121.61 23.842 121.922 23.284 122.15 22.612C122.39 21.928 122.51 21.124 122.51 20.2C122.51 19.276 122.39 18.478 122.15 17.806C121.922 17.122 121.61 16.558 121.214 16.114C120.818 15.67 120.35 15.34 119.81 15.124C119.282 14.908 118.712 14.8 118.1 14.8ZM118.1 13.54C119.18 13.54 120.158 13.684 121.034 13.972C121.922 14.26 122.678 14.686 123.302 15.25C123.938 15.814 124.43 16.51 124.778 17.338C125.126 18.166 125.3 19.12 125.3 20.2C125.3 21.28 125.126 22.234 124.778 23.062C124.43 23.89 123.938 24.586 123.302 25.15C122.678 25.714 121.922 26.14 121.034 26.428C120.158 26.716 119.18 26.86 118.1 26.86C117.02 26.86 116.036 26.716 115.148 26.428C114.26 26.14 113.498 25.714 112.862 25.15C112.238 24.586 111.752 23.89 111.404 23.062C111.068 22.234 110.9 21.28 110.9 20.2C110.9 19.12 111.068 18.166 111.404 17.338C111.752 16.51 112.238 15.814 112.862 15.25C113.498 14.686 114.26 14.26 115.148 13.972C116.036 13.684 117.02 13.54 118.1 13.54ZM132.417 19.12C132.057 19.12 131.715 19.192 131.391 19.336C131.067 19.468 130.779 19.672 130.527 19.948C130.275 20.212 130.077 20.548 129.933 20.956C129.789 21.352 129.717 21.82 129.717 22.36C129.717 22.924 129.789 23.416 129.933 23.836C130.077 24.244 130.275 24.586 130.527 24.862C130.779 25.138 131.067 25.348 131.391 25.492C131.715 25.624 132.057 25.69 132.417 25.69C132.777 25.69 133.119 25.624 133.443 25.492C133.767 25.348 134.055 25.138 134.307 24.862C134.559 24.586 134.757 24.244 134.901 23.836C135.045 23.416 135.117 22.924 135.117 22.36C135.117 21.82 135.045 21.352 134.901 20.956C134.757 20.548 134.559 20.212 134.307 19.948C134.055 19.672 133.767 19.468 133.443 19.336C133.119 19.192 132.777 19.12 132.417 19.12ZM132.597 17.86C133.341 17.86 134.031 17.968 134.667 18.184C135.303 18.4 135.855 18.706 136.323 19.102C136.791 19.498 137.157 19.972 137.421 20.524C137.685 21.076 137.817 21.688 137.817 22.36C137.817 23.032 137.679 23.644 137.403 24.196C137.139 24.748 136.767 25.222 136.287 25.618C135.819 26.014 135.255 26.32 134.595 26.536C133.935 26.752 133.209 26.86 132.417 26.86C131.625 26.86 130.899 26.746 130.239 26.518C129.579 26.302 129.009 25.99 128.529 25.582C128.061 25.162 127.689 24.652 127.413 24.052C127.149 23.452 127.017 22.768 127.017 22V19.93C127.017 18.046 127.467 16.624 128.367 15.664C129.267 14.704 130.527 14.146 132.147 13.99L136.827 13.54V15.61L132.327 16.06C129.807 16.312 128.547 17.602 128.547 19.93H128.727C129.087 19.246 129.585 18.73 130.221 18.382C130.857 18.034 131.649 17.86 132.597 17.86ZM139.701 26.5V17.14H142.221V25.24H145.461V17.14H147.981V25.24H151.221V17.14H153.741V25.24H155.271V29.2H153.201L152.841 26.5H139.701ZM162.205 25.6C162.793 25.6 163.339 25.498 163.843 25.294C164.359 25.09 164.863 24.802 165.355 24.43L166.075 25.51C165.847 25.714 165.577 25.9 165.265 26.068C164.965 26.236 164.635 26.38 164.275 26.5C163.927 26.608 163.561 26.692 163.177 26.752C162.793 26.824 162.409 26.86 162.025 26.86C161.173 26.86 160.393 26.746 159.685 26.518C158.989 26.302 158.395 25.984 157.903 25.564C157.411 25.132 157.027 24.604 156.751 23.98C156.487 23.356 156.355 22.636 156.355 21.82C156.355 21.016 156.481 20.302 156.733 19.678C156.997 19.042 157.357 18.514 157.813 18.094C158.281 17.662 158.833 17.338 159.469 17.122C160.105 16.894 160.807 16.78 161.575 16.78C162.295 16.78 162.973 16.888 163.609 17.104C164.245 17.32 164.797 17.638 165.265 18.058C165.733 18.466 166.105 18.964 166.381 19.552C166.657 20.14 166.795 20.806 166.795 21.55V22.81H159.109C159.253 23.806 159.595 24.52 160.135 24.952C160.687 25.384 161.377 25.6 162.205 25.6ZM161.575 17.95C161.227 17.95 160.903 18.016 160.603 18.148C160.303 18.28 160.039 18.49 159.811 18.778C159.595 19.066 159.415 19.438 159.271 19.894C159.139 20.35 159.067 20.902 159.055 21.55H164.095C164.095 20.926 164.023 20.386 163.879 19.93C163.735 19.474 163.543 19.102 163.303 18.814C163.075 18.514 162.805 18.298 162.493 18.166C162.193 18.022 161.887 17.95 161.575 17.95ZM173.904 16.78C174.288 16.78 174.672 16.816 175.056 16.888C175.44 16.948 175.806 17.038 176.154 17.158C176.514 17.266 176.844 17.404 177.144 17.572C177.456 17.74 177.726 17.926 177.954 18.13L177.234 19.21C176.742 18.838 176.238 18.55 175.722 18.346C175.218 18.142 174.672 18.04 174.084 18.04C173.652 18.04 173.256 18.112 172.896 18.256C172.536 18.388 172.224 18.61 171.96 18.922C171.696 19.222 171.486 19.612 171.33 20.092C171.186 20.572 171.114 21.148 171.114 21.82C171.114 22.492 171.186 23.068 171.33 23.548C171.486 24.028 171.702 24.424 171.978 24.736C172.254 25.036 172.584 25.258 172.968 25.402C173.364 25.534 173.796 25.6 174.264 25.6C174.852 25.6 175.398 25.498 175.902 25.294C176.418 25.09 176.922 24.802 177.414 24.43L178.134 25.51C177.906 25.714 177.636 25.9 177.324 26.068C177.024 26.236 176.694 26.38 176.334 26.5C175.986 26.608 175.62 26.692 175.236 26.752C174.852 26.824 174.468 26.86 174.084 26.86C173.232 26.86 172.452 26.746 171.744 26.518C171.048 26.302 170.454 25.984 169.962 25.564C169.47 25.132 169.086 24.604 168.81 23.98C168.546 23.356 168.414 22.636 168.414 21.82C168.414 21.016 168.546 20.302 168.81 19.678C169.086 19.042 169.464 18.514 169.944 18.094C170.424 17.662 171 17.338 171.672 17.122C172.344 16.894 173.088 16.78 173.904 16.78ZM188.674 18.4H184.894V26.5H182.374V18.4H178.594V17.14H188.674V18.4ZM199.295 19.75C199.295 20.206 199.127 20.596 198.791 20.92C198.467 21.244 197.945 21.454 197.225 21.55C198.089 21.682 198.737 21.958 199.169 22.378C199.613 22.786 199.835 23.26 199.835 23.8C199.835 24.184 199.745 24.544 199.565 24.88C199.397 25.204 199.133 25.486 198.773 25.726C198.413 25.966 197.957 26.158 197.405 26.302C196.853 26.434 196.193 26.5 195.425 26.5H190.115V17.14H194.885C195.653 17.14 196.313 17.212 196.865 17.356C197.417 17.488 197.873 17.674 198.233 17.914C198.593 18.142 198.857 18.418 199.025 18.742C199.205 19.054 199.295 19.39 199.295 19.75ZM195.425 25.24C195.965 25.24 196.385 25.102 196.685 24.826C196.985 24.55 197.135 24.208 197.135 23.8C197.135 23.392 196.985 23.05 196.685 22.774C196.385 22.498 195.965 22.36 195.425 22.36H192.635V25.24H195.425ZM194.885 21.1C195.425 21.1 195.845 20.968 196.145 20.704C196.445 20.428 196.595 20.11 196.595 19.75C196.595 19.39 196.445 19.078 196.145 18.814C195.845 18.538 195.425 18.4 194.885 18.4H192.635V21.1H194.885ZM206.863 25.69C207.247 25.69 207.607 25.618 207.943 25.474C208.279 25.33 208.573 25.108 208.825 24.808C209.077 24.496 209.275 24.094 209.419 23.602C209.575 23.11 209.652 22.516 209.652 21.82C209.652 21.124 209.575 20.53 209.419 20.038C209.275 19.546 209.077 19.15 208.825 18.85C208.573 18.538 208.279 18.31 207.943 18.166C207.607 18.022 207.247 17.95 206.863 17.95C206.479 17.95 206.119 18.022 205.783 18.166C205.447 18.31 205.153 18.538 204.901 18.85C204.649 19.15 204.445 19.546 204.289 20.038C204.145 20.53 204.073 21.124 204.073 21.82C204.073 22.516 204.145 23.11 204.289 23.602C204.445 24.094 204.649 24.496 204.901 24.808C205.153 25.108 205.447 25.33 205.783 25.474C206.119 25.618 206.479 25.69 206.863 25.69ZM206.863 16.78C207.667 16.78 208.405 16.894 209.077 17.122C209.761 17.338 210.343 17.662 210.823 18.094C211.303 18.514 211.675 19.042 211.939 19.678C212.215 20.302 212.353 21.016 212.353 21.82C212.353 22.636 212.215 23.356 211.939 23.98C211.675 24.604 211.303 25.132 210.823 25.564C210.343 25.984 209.761 26.302 209.077 26.518C208.405 26.746 207.667 26.86 206.863 26.86C206.047 26.86 205.303 26.746 204.631 26.518C203.959 26.302 203.383 25.984 202.903 25.564C202.423 25.132 202.045 24.604 201.769 23.98C201.505 23.356 201.373 22.636 201.373 21.82C201.373 21.016 201.505 20.302 201.769 19.678C202.045 19.042 202.423 18.514 202.903 18.094C203.383 17.662 203.959 17.338 204.631 17.122C205.303 16.894 206.047 16.78 206.863 16.78ZM225.759 16.78C226.143 16.78 226.527 16.816 226.911 16.888C227.295 16.948 227.661 17.038 228.009 17.158C228.369 17.266 228.699 17.404 228.999 17.572C229.311 17.74 229.581 17.926 229.809 18.13L229.089 19.21C228.597 18.838 228.093 18.55 227.577 18.346C227.073 18.142 226.527 18.04 225.939 18.04C225.507 18.04 225.111 18.112 224.751 18.256C224.391 18.388 224.079 18.61 223.815 18.922C223.551 19.222 223.341 19.612 223.185 20.092C223.041 20.572 222.969 21.148 222.969 21.82C222.969 22.492 223.041 23.068 223.185 23.548C223.341 24.028 223.557 24.424 223.833 24.736C224.109 25.036 224.439 25.258 224.823 25.402C225.219 25.534 225.651 25.6 226.119 25.6C226.707 25.6 227.253 25.498 227.757 25.294C228.273 25.09 228.777 24.802 229.269 24.43L229.989 25.51C229.761 25.714 229.491 25.9 229.179 26.068C228.879 26.236 228.549 26.38 228.189 26.5C227.841 26.608 227.475 26.692 227.091 26.752C226.707 26.824 226.323 26.86 225.939 26.86C225.087 26.86 224.307 26.746 223.599 26.518C222.903 26.302 222.309 25.984 221.817 25.564C221.325 25.132 220.941 24.604 220.665 23.98C220.401 23.356 220.269 22.636 220.269 21.82C220.269 21.016 220.401 20.302 220.665 19.678C220.941 19.042 221.319 18.514 221.799 18.094C222.279 17.662 222.855 17.338 223.527 17.122C224.199 16.894 224.943 16.78 225.759 16.78ZM243.214 25.69C243.598 25.69 243.958 25.618 244.294 25.474C244.63 25.33 244.924 25.108 245.176 24.808C245.428 24.496 245.626 24.094 245.77 23.602C245.926 23.11 246.004 22.516 246.004 21.82C246.004 21.124 245.926 20.53 245.77 20.038C245.626 19.546 245.428 19.15 245.176 18.85C244.924 18.538 244.63 18.31 244.294 18.166C243.958 18.022 243.598 17.95 243.214 17.95C242.83 17.95 242.47 18.022 242.134 18.166C241.798 18.31 241.504 18.538 241.252 18.85C241 19.15 240.796 19.546 240.64 20.038C240.496 20.53 240.424 21.124 240.424 21.82C240.424 22.516 240.496 23.11 240.64 23.602C240.796 24.094 241 24.496 241.252 24.808C241.504 25.108 241.798 25.33 242.134 25.474C242.47 25.618 242.83 25.69 243.214 25.69ZM243.214 16.78C244.018 16.78 244.756 16.894 245.428 17.122C246.112 17.338 246.694 17.662 247.174 18.094C247.654 18.514 248.026 19.042 248.29 19.678C248.566 20.302 248.704 21.016 248.704 21.82C248.704 22.636 248.566 23.356 248.29 23.98C248.026 24.604 247.654 25.132 247.174 25.564C246.694 25.984 246.112 26.302 245.428 26.518C244.756 26.746 244.018 26.86 243.214 26.86C242.398 26.86 241.654 26.746 240.982 26.518C240.31 26.302 239.734 25.984 239.254 25.564C238.774 25.132 238.396 24.604 238.12 23.98C237.856 23.356 237.724 22.636 237.724 21.82C237.724 21.016 237.856 20.302 238.12 19.678C238.396 19.042 238.774 18.514 239.254 18.094C239.734 17.662 240.31 17.338 240.982 17.122C241.654 16.894 242.398 16.78 243.214 16.78ZM258.338 18.4H253.298V26.5H250.778V17.14H258.338V18.4ZM262.298 18.4V25.24H264.548C264.956 25.24 265.328 25.18 265.664 25.06C266.012 24.928 266.306 24.724 266.546 24.448C266.798 24.172 266.99 23.818 267.122 23.386C267.266 22.954 267.338 22.432 267.338 21.82C267.338 21.208 267.266 20.686 267.122 20.254C266.99 19.822 266.798 19.468 266.546 19.192C266.306 18.916 266.012 18.718 265.664 18.598C265.328 18.466 264.956 18.4 264.548 18.4H262.298ZM264.548 17.14C265.376 17.14 266.126 17.248 266.798 17.464C267.482 17.68 268.064 17.992 268.544 18.4C269.024 18.808 269.39 19.3 269.642 19.876C269.906 20.452 270.038 21.1 270.038 21.82C270.038 22.54 269.906 23.188 269.642 23.764C269.39 24.34 269.024 24.832 268.544 25.24C268.064 25.648 267.482 25.96 266.798 26.176C266.126 26.392 265.376 26.5 264.548 26.5H262.298V29.74H259.778V17.14H264.548ZM274.17 23.53C274.17 24.67 274.86 25.24 276.24 25.24H278.76V21.82H276.24C274.86 21.82 274.17 22.39 274.17 23.53ZM278.76 20.56C278.76 19.696 278.532 19.06 278.076 18.652C277.632 18.244 277.05 18.04 276.33 18.04C275.79 18.04 275.262 18.124 274.746 18.292C274.23 18.448 273.768 18.664 273.36 18.94L272.73 17.86C272.994 17.68 273.282 17.524 273.594 17.392C273.918 17.26 274.248 17.152 274.584 17.068C274.92 16.972 275.25 16.9 275.574 16.852C275.91 16.804 276.222 16.78 276.51 16.78C277.278 16.78 277.956 16.87 278.544 17.05C279.132 17.23 279.63 17.488 280.038 17.824C280.446 18.16 280.752 18.562 280.956 19.03C281.172 19.486 281.28 19.996 281.28 20.56V26.5H276.24C274.608 26.5 273.402 26.254 272.622 25.762C271.854 25.27 271.47 24.526 271.47 23.53C271.47 22.534 271.854 21.79 272.622 21.298C273.402 20.806 274.608 20.56 276.24 20.56H278.76ZM293.601 17.14V26.5H291.081V22.36H286.221V26.5H283.701V17.14H286.221V21.1H291.081V17.14H293.601ZM306.209 17.14V26.5H303.689V19.48H303.509L299.369 26.5H296.129V17.14H298.649V24.16H298.829L302.969 17.14H306.209ZM308.463 17.14H310.983V20.38C310.983 20.968 311.151 21.418 311.487 21.73C311.823 22.03 312.375 22.18 313.143 22.18H315.483V17.14H318.003V26.5H315.483V23.44H313.143C312.315 23.44 311.601 23.368 311.001 23.224C310.413 23.08 309.927 22.876 309.543 22.612C309.171 22.348 308.895 22.03 308.715 21.658C308.547 21.274 308.463 20.848 308.463 20.38V17.14ZM325.928 25.6C326.516 25.6 327.062 25.498 327.566 25.294C328.082 25.09 328.586 24.802 329.078 24.43L329.798 25.51C329.57 25.714 329.3 25.9 328.988 26.068C328.688 26.236 328.358 26.38 327.998 26.5C327.65 26.608 327.284 26.692 326.9 26.752C326.516 26.824 326.132 26.86 325.748 26.86C324.896 26.86 324.116 26.746 323.408 26.518C322.712 26.302 322.118 25.984 321.626 25.564C321.134 25.132 320.75 24.604 320.474 23.98C320.21 23.356 320.078 22.636 320.078 21.82C320.078 21.016 320.204 20.302 320.456 19.678C320.72 19.042 321.08 18.514 321.536 18.094C322.004 17.662 322.556 17.338 323.192 17.122C323.828 16.894 324.53 16.78 325.298 16.78C326.018 16.78 326.696 16.888 327.332 17.104C327.968 17.32 328.52 17.638 328.988 18.058C329.456 18.466 329.828 18.964 330.104 19.552C330.38 20.14 330.518 20.806 330.518 21.55V22.81H322.832C322.976 23.806 323.318 24.52 323.858 24.952C324.41 25.384 325.1 25.6 325.928 25.6ZM325.298 17.95C324.95 17.95 324.626 18.016 324.326 18.148C324.026 18.28 323.762 18.49 323.534 18.778C323.318 19.066 323.138 19.438 322.994 19.894C322.862 20.35 322.79 20.902 322.778 21.55H327.818C327.818 20.926 327.746 20.386 327.602 19.93C327.458 19.474 327.266 19.102 327.026 18.814C326.798 18.514 326.528 18.298 326.216 18.166C325.916 18.022 325.61 17.95 325.298 17.95ZM342.486 17.14V26.5H339.966V22.36H335.106V26.5H332.586V17.14H335.106V21.1H339.966V17.14H342.486ZM354.914 17.14V26.5H352.394V22.36H347.534V26.5H345.014V17.14H347.534V21.1H352.394V17.14H354.914ZM362.482 25.69C362.866 25.69 363.226 25.618 363.562 25.474C363.898 25.33 364.192 25.108 364.444 24.808C364.696 24.496 364.894 24.094 365.038 23.602C365.194 23.11 365.272 22.516 365.272 21.82C365.272 21.124 365.194 20.53 365.038 20.038C364.894 19.546 364.696 19.15 364.444 18.85C364.192 18.538 363.898 18.31 363.562 18.166C363.226 18.022 362.866 17.95 362.482 17.95C362.098 17.95 361.738 18.022 361.402 18.166C361.066 18.31 360.772 18.538 360.52 18.85C360.268 19.15 360.064 19.546 359.908 20.038C359.764 20.53 359.692 21.124 359.692 21.82C359.692 22.516 359.764 23.11 359.908 23.602C360.064 24.094 360.268 24.496 360.52 24.808C360.772 25.108 361.066 25.33 361.402 25.474C361.738 25.618 362.098 25.69 362.482 25.69ZM362.482 16.78C363.286 16.78 364.024 16.894 364.696 17.122C365.38 17.338 365.962 17.662 366.442 18.094C366.922 18.514 367.294 19.042 367.558 19.678C367.834 20.302 367.972 21.016 367.972 21.82C367.972 22.636 367.834 23.356 367.558 23.98C367.294 24.604 366.922 25.132 366.442 25.564C365.962 25.984 365.38 26.302 364.696 26.518C364.024 26.746 363.286 26.86 362.482 26.86C361.666 26.86 360.922 26.746 360.25 26.518C359.578 26.302 359.002 25.984 358.522 25.564C358.042 25.132 357.664 24.604 357.388 23.98C357.124 23.356 356.992 22.636 356.992 21.82C356.992 21.016 357.124 20.302 357.388 19.678C357.664 19.042 358.042 18.514 358.522 18.094C359.002 17.662 359.578 17.338 360.25 17.122C360.922 16.894 361.666 16.78 362.482 16.78ZM374.905 16.06C373.777 16.06 372.925 15.802 372.349 15.286C371.773 14.758 371.485 14.086 371.485 13.27H373.555C373.555 13.726 373.687 14.098 373.951 14.386C374.227 14.662 374.545 14.8 374.905 14.8C375.265 14.8 375.577 14.662 375.841 14.386C376.117 14.098 376.255 13.726 376.255 13.27H378.325C378.325 14.086 378.037 14.758 377.461 15.286C376.885 15.802 376.033 16.06 374.905 16.06ZM380.125 17.14V26.5H377.605V19.48H377.425L373.285 26.5H370.045V17.14H372.565V24.16H372.745L376.885 17.14H380.125ZM393.982 25.69C394.366 25.69 394.726 25.618 395.062 25.474C395.398 25.33 395.692 25.108 395.944 24.808C396.196 24.496 396.394 24.094 396.538 23.602C396.694 23.11 396.772 22.516 396.772 21.82C396.772 21.124 396.694 20.53 396.538 20.038C396.394 19.546 396.196 19.15 395.944 18.85C395.692 18.538 395.398 18.31 395.062 18.166C394.726 18.022 394.366 17.95 393.982 17.95C393.598 17.95 393.238 18.022 392.902 18.166C392.566 18.31 392.272 18.538 392.02 18.85C391.768 19.15 391.564 19.546 391.408 20.038C391.264 20.53 391.192 21.124 391.192 21.82C391.192 22.516 391.264 23.11 391.408 23.602C391.564 24.094 391.768 24.496 392.02 24.808C392.272 25.108 392.566 25.33 392.902 25.474C393.238 25.618 393.598 25.69 393.982 25.69ZM393.982 16.78C394.786 16.78 395.524 16.894 396.196 17.122C396.88 17.338 397.462 17.662 397.942 18.094C398.422 18.514 398.794 19.042 399.058 19.678C399.334 20.302 399.472 21.016 399.472 21.82C399.472 22.636 399.334 23.356 399.058 23.98C398.794 24.604 398.422 25.132 397.942 25.564C397.462 25.984 396.88 26.302 396.196 26.518C395.524 26.746 394.786 26.86 393.982 26.86C393.166 26.86 392.422 26.746 391.75 26.518C391.078 26.302 390.502 25.984 390.022 25.564C389.542 25.132 389.164 24.604 388.888 23.98C388.624 23.356 388.492 22.636 388.492 21.82C388.492 21.016 388.624 20.302 388.888 19.678C389.164 19.042 389.542 18.514 390.022 18.094C390.502 17.662 391.078 17.338 391.75 17.122C392.422 16.894 393.166 16.78 393.982 16.78ZM410 18.4H406.22V26.5H403.7V18.4H399.92V17.14H410V18.4ZM420.622 19.75C420.622 20.206 420.454 20.596 420.118 20.92C419.794 21.244 419.272 21.454 418.552 21.55C419.416 21.682 420.064 21.958 420.496 22.378C420.94 22.786 421.162 23.26 421.162 23.8C421.162 24.184 421.072 24.544 420.892 24.88C420.724 25.204 420.46 25.486 420.1 25.726C419.74 25.966 419.284 26.158 418.732 26.302C418.18 26.434 417.52 26.5 416.752 26.5H411.442V17.14H416.212C416.98 17.14 417.64 17.212 418.192 17.356C418.744 17.488 419.2 17.674 419.56 17.914C419.92 18.142 420.184 18.418 420.352 18.742C420.532 19.054 420.622 19.39 420.622 19.75ZM416.752 25.24C417.292 25.24 417.712 25.102 418.012 24.826C418.312 24.55 418.462 24.208 418.462 23.8C418.462 23.392 418.312 23.05 418.012 22.774C417.712 22.498 417.292 22.36 416.752 22.36H413.962V25.24H416.752ZM416.212 21.1C416.752 21.1 417.172 20.968 417.472 20.704C417.772 20.428 417.922 20.11 417.922 19.75C417.922 19.39 417.772 19.078 417.472 18.814C417.172 18.538 416.752 18.4 416.212 18.4H413.962V21.1H416.212ZM428.549 25.6C429.137 25.6 429.683 25.498 430.187 25.294C430.703 25.09 431.207 24.802 431.699 24.43L432.419 25.51C432.191 25.714 431.921 25.9 431.609 26.068C431.309 26.236 430.979 26.38 430.619 26.5C430.271 26.608 429.905 26.692 429.521 26.752C429.137 26.824 428.753 26.86 428.369 26.86C427.517 26.86 426.737 26.746 426.029 26.518C425.333 26.302 424.739 25.984 424.247 25.564C423.755 25.132 423.371 24.604 423.095 23.98C422.831 23.356 422.699 22.636 422.699 21.82C422.699 21.016 422.825 20.302 423.077 19.678C423.341 19.042 423.701 18.514 424.157 18.094C424.625 17.662 425.177 17.338 425.813 17.122C426.449 16.894 427.151 16.78 427.919 16.78C428.639 16.78 429.317 16.888 429.953 17.104C430.589 17.32 431.141 17.638 431.609 18.058C432.077 18.466 432.449 18.964 432.725 19.552C433.001 20.14 433.139 20.806 433.139 21.55V22.81H425.453C425.597 23.806 425.939 24.52 426.479 24.952C427.031 25.384 427.721 25.6 428.549 25.6ZM427.919 17.95C427.571 17.95 427.247 18.016 426.947 18.148C426.647 18.28 426.383 18.49 426.155 18.778C425.939 19.066 425.759 19.438 425.615 19.894C425.483 20.35 425.411 20.902 425.399 21.55H430.439C430.439 20.926 430.367 20.386 430.223 19.93C430.079 19.474 429.887 19.102 429.647 18.814C429.419 18.514 429.149 18.298 428.837 18.166C428.537 18.022 428.231 17.95 427.919 17.95ZM443.487 18.4H439.707V26.5H437.187V18.4H433.407V17.14H443.487V18.4ZM449.423 16.78C449.807 16.78 450.191 16.816 450.575 16.888C450.959 16.948 451.325 17.038 451.673 17.158C452.033 17.266 452.363 17.404 452.663 17.572C452.975 17.74 453.245 17.926 453.473 18.13L452.753 19.21C452.261 18.838 451.757 18.55 451.241 18.346C450.737 18.142 450.191 18.04 449.603 18.04C449.171 18.04 448.775 18.112 448.415 18.256C448.055 18.388 447.743 18.61 447.479 18.922C447.215 19.222 447.005 19.612 446.849 20.092C446.705 20.572 446.633 21.148 446.633 21.82C446.633 22.492 446.705 23.068 446.849 23.548C447.005 24.028 447.221 24.424 447.497 24.736C447.773 25.036 448.103 25.258 448.487 25.402C448.883 25.534 449.315 25.6 449.783 25.6C450.371 25.6 450.917 25.498 451.421 25.294C451.937 25.09 452.441 24.802 452.933 24.43L453.653 25.51C453.425 25.714 453.155 25.9 452.843 26.068C452.543 26.236 452.213 26.38 451.853 26.5C451.505 26.608 451.139 26.692 450.755 26.752C450.371 26.824 449.987 26.86 449.603 26.86C448.751 26.86 447.971 26.746 447.263 26.518C446.567 26.302 445.973 25.984 445.481 25.564C444.989 25.132 444.605 24.604 444.329 23.98C444.065 23.356 443.933 22.636 443.933 21.82C443.933 21.016 444.065 20.302 444.329 19.678C444.605 19.042 444.983 18.514 445.463 18.094C445.943 17.662 446.519 17.338 447.191 17.122C447.863 16.894 448.607 16.78 449.423 16.78ZM464.194 18.4H460.414V26.5H457.894V18.4H454.114V17.14H464.194V18.4ZM474.815 19.75C474.815 20.206 474.647 20.596 474.311 20.92C473.987 21.244 473.465 21.454 472.745 21.55C473.609 21.682 474.257 21.958 474.689 22.378C475.133 22.786 475.355 23.26 475.355 23.8C475.355 24.184 475.265 24.544 475.085 24.88C474.917 25.204 474.653 25.486 474.293 25.726C473.933 25.966 473.477 26.158 472.925 26.302C472.373 26.434 471.713 26.5 470.945 26.5H465.635V17.14H470.405C471.173 17.14 471.833 17.212 472.385 17.356C472.937 17.488 473.393 17.674 473.753 17.914C474.113 18.142 474.377 18.418 474.545 18.742C474.725 19.054 474.815 19.39 474.815 19.75ZM470.945 25.24C471.485 25.24 471.905 25.102 472.205 24.826C472.505 24.55 472.655 24.208 472.655 23.8C472.655 23.392 472.505 23.05 472.205 22.774C471.905 22.498 471.485 22.36 470.945 22.36H468.155V25.24H470.945ZM470.405 21.1C470.945 21.1 471.365 20.968 471.665 20.704C471.965 20.428 472.115 20.11 472.115 19.75C472.115 19.39 471.965 19.078 471.665 18.814C471.365 18.538 470.945 18.4 470.405 18.4H468.155V21.1H470.405ZM482.742 25.6C483.33 25.6 483.876 25.498 484.38 25.294C484.896 25.09 485.4 24.802 485.892 24.43L486.612 25.51C486.384 25.714 486.114 25.9 485.802 26.068C485.502 26.236 485.172 26.38 484.812 26.5C484.464 26.608 484.098 26.692 483.714 26.752C483.33 26.824 482.946 26.86 482.562 26.86C481.71 26.86 480.93 26.746 480.222 26.518C479.526 26.302 478.932 25.984 478.44 25.564C477.948 25.132 477.564 24.604 477.288 23.98C477.024 23.356 476.892 22.636 476.892 21.82C476.892 21.016 477.018 20.302 477.27 19.678C477.534 19.042 477.894 18.514 478.35 18.094C478.818 17.662 479.37 17.338 480.006 17.122C480.642 16.894 481.344 16.78 482.112 16.78C482.832 16.78 483.51 16.888 484.146 17.104C484.782 17.32 485.334 17.638 485.802 18.058C486.27 18.466 486.642 18.964 486.918 19.552C487.194 20.14 487.332 20.806 487.332 21.55V22.81H479.646C479.79 23.806 480.132 24.52 480.672 24.952C481.224 25.384 481.914 25.6 482.742 25.6ZM482.112 17.95C481.764 17.95 481.44 18.016 481.14 18.148C480.84 18.28 480.576 18.49 480.348 18.778C480.132 19.066 479.952 19.438 479.808 19.894C479.676 20.35 479.604 20.902 479.592 21.55H484.632C484.632 20.926 484.56 20.386 484.416 19.93C484.272 19.474 484.08 19.102 483.84 18.814C483.612 18.514 483.342 18.298 483.03 18.166C482.73 18.022 482.424 17.95 482.112 17.95ZM499.301 17.14V26.5H496.781V22.36H491.921V26.5H489.401V17.14H491.921V21.1H496.781V17.14H499.301ZM511.728 17.14V26.5H509.208V22.36H504.348V26.5H501.828V17.14H504.348V21.1H509.208V17.14H511.728ZM519.296 25.69C519.68 25.69 520.04 25.618 520.376 25.474C520.712 25.33 521.006 25.108 521.258 24.808C521.51 24.496 521.708 24.094 521.852 23.602C522.008 23.11 522.086 22.516 522.086 21.82C522.086 21.124 522.008 20.53 521.852 20.038C521.708 19.546 521.51 19.15 521.258 18.85C521.006 18.538 520.712 18.31 520.376 18.166C520.04 18.022 519.68 17.95 519.296 17.95C518.912 17.95 518.552 18.022 518.216 18.166C517.88 18.31 517.586 18.538 517.334 18.85C517.082 19.15 516.878 19.546 516.722 20.038C516.578 20.53 516.506 21.124 516.506 21.82C516.506 22.516 516.578 23.11 516.722 23.602C516.878 24.094 517.082 24.496 517.334 24.808C517.586 25.108 517.88 25.33 518.216 25.474C518.552 25.618 518.912 25.69 519.296 25.69ZM519.296 16.78C520.1 16.78 520.838 16.894 521.51 17.122C522.194 17.338 522.776 17.662 523.256 18.094C523.736 18.514 524.108 19.042 524.372 19.678C524.648 20.302 524.786 21.016 524.786 21.82C524.786 22.636 524.648 23.356 524.372 23.98C524.108 24.604 523.736 25.132 523.256 25.564C522.776 25.984 522.194 26.302 521.51 26.518C520.838 26.746 520.1 26.86 519.296 26.86C518.48 26.86 517.736 26.746 517.064 26.518C516.392 26.302 515.816 25.984 515.336 25.564C514.856 25.132 514.478 24.604 514.202 23.98C513.938 23.356 513.806 22.636 513.806 21.82C513.806 21.016 513.938 20.302 514.202 19.678C514.478 19.042 514.856 18.514 515.336 18.094C515.816 17.662 516.392 17.338 517.064 17.122C517.736 16.894 518.48 16.78 519.296 16.78ZM531.9 16.78C532.284 16.78 532.668 16.816 533.052 16.888C533.436 16.948 533.802 17.038 534.15 17.158C534.51 17.266 534.84 17.404 535.14 17.572C535.452 17.74 535.722 17.926 535.95 18.13L535.23 19.21C534.738 18.838 534.234 18.55 533.718 18.346C533.214 18.142 532.668 18.04 532.08 18.04C531.648 18.04 531.252 18.112 530.892 18.256C530.532 18.388 530.22 18.61 529.956 18.922C529.692 19.222 529.482 19.612 529.326 20.092C529.182 20.572 529.11 21.148 529.11 21.82C529.11 22.492 529.182 23.068 529.326 23.548C529.482 24.028 529.698 24.424 529.974 24.736C530.25 25.036 530.58 25.258 530.964 25.402C531.36 25.534 531.792 25.6 532.26 25.6C532.848 25.6 533.394 25.498 533.898 25.294C534.414 25.09 534.918 24.802 535.41 24.43L536.13 25.51C535.902 25.714 535.632 25.9 535.32 26.068C535.02 26.236 534.69 26.38 534.33 26.5C533.982 26.608 533.616 26.692 533.232 26.752C532.848 26.824 532.464 26.86 532.08 26.86C531.228 26.86 530.448 26.746 529.74 26.518C529.044 26.302 528.45 25.984 527.958 25.564C527.466 25.132 527.082 24.604 526.806 23.98C526.542 23.356 526.41 22.636 526.41 21.82C526.41 21.016 526.542 20.302 526.806 19.678C527.082 19.042 527.46 18.514 527.94 18.094C528.42 17.662 528.996 17.338 529.668 17.122C530.34 16.894 531.084 16.78 531.9 16.78ZM546.67 18.4H542.89V26.5H540.37V18.4H536.59V17.14H546.67V18.4ZM553.332 20.38C554.868 20.38 555.984 20.656 556.68 21.208C557.388 21.748 557.742 22.492 557.742 23.44C557.742 24.388 557.388 25.138 556.68 25.69C555.984 26.23 554.868 26.5 553.332 26.5H548.112V17.14H550.632V20.38H553.332ZM550.632 21.64V25.24H553.332C553.872 25.24 554.292 25.09 554.592 24.79C554.892 24.478 555.042 24.028 555.042 23.44C555.042 22.852 554.892 22.408 554.592 22.108C554.292 21.796 553.872 21.64 553.332 21.64H550.632ZM569.075 16.78C569.819 16.78 570.509 16.894 571.145 17.122C571.781 17.338 572.333 17.662 572.801 18.094C573.269 18.514 573.635 19.042 573.899 19.678C574.163 20.302 574.295 21.016 574.295 21.82C574.295 22.636 574.163 23.356 573.899 23.98C573.635 24.604 573.269 25.132 572.801 25.564C572.333 25.984 571.781 26.302 571.145 26.518C570.509 26.746 569.819 26.86 569.075 26.86C568.367 26.86 567.707 26.758 567.095 26.554C566.495 26.362 565.967 26.08 565.511 25.708C565.055 25.324 564.683 24.85 564.395 24.286C564.107 23.722 563.933 23.08 563.873 22.36H562.145V26.5H559.625V17.14H562.145V21.1H563.891C563.963 20.404 564.143 19.792 564.431 19.264C564.731 18.724 565.109 18.274 565.565 17.914C566.021 17.542 566.549 17.26 567.149 17.068C567.749 16.876 568.391 16.78 569.075 16.78ZM569.075 25.69C569.387 25.69 569.693 25.618 569.993 25.474C570.305 25.33 570.575 25.108 570.803 24.808C571.043 24.496 571.235 24.094 571.379 23.602C571.523 23.11 571.595 22.516 571.595 21.82C571.595 21.124 571.523 20.53 571.379 20.038C571.235 19.546 571.043 19.15 570.803 18.85C570.575 18.538 570.305 18.31 569.993 18.166C569.693 18.022 569.387 17.95 569.075 17.95C568.763 17.95 568.451 18.022 568.139 18.166C567.839 18.31 567.569 18.538 567.329 18.85C567.101 19.15 566.915 19.546 566.771 20.038C566.627 20.53 566.555 21.124 566.555 21.82C566.555 22.516 566.627 23.11 566.771 23.602C566.915 24.094 567.101 24.496 567.329 24.808C567.569 25.108 567.839 25.33 568.139 25.474C568.451 25.618 568.763 25.69 569.075 25.69Z" fill="black"/>
<path d="M134.96 59.46L147.68 76.5H139.76L128.72 61.62H120.32V76.5H113.36V42.9H120.32V58.02H128.24L139.28 42.9H146.96L134.96 59.46ZM159.194 74.34C160.218 74.34 161.178 74.148 162.074 73.764C162.97 73.38 163.754 72.788 164.426 71.988C165.098 71.156 165.626 70.084 166.01 68.772C166.426 67.46 166.634 65.876 166.634 64.02C166.634 62.164 166.426 60.58 166.01 59.268C165.626 57.956 165.098 56.9 164.426 56.1C163.754 55.268 162.97 54.66 162.074 54.276C161.178 53.892 160.218 53.7 159.194 53.7C158.17 53.7 157.21 53.892 156.314 54.276C155.418 54.66 154.634 55.268 153.962 56.1C153.29 56.9 152.746 57.956 152.33 59.268C151.946 60.58 151.754 62.164 151.754 64.02C151.754 65.876 151.946 67.46 152.33 68.772C152.746 70.084 153.29 71.156 153.962 71.988C154.634 72.788 155.418 73.38 156.314 73.764C157.21 74.148 158.17 74.34 159.194 74.34ZM159.194 50.58C161.338 50.58 163.306 50.884 165.098 51.492C166.922 52.068 168.474 52.932 169.754 54.084C171.034 55.204 172.026 56.612 172.73 58.308C173.466 59.972 173.834 61.876 173.834 64.02C173.834 66.196 173.466 68.116 172.73 69.78C172.026 71.444 171.034 72.852 169.754 74.004C168.474 75.124 166.922 75.972 165.098 76.548C163.306 77.156 161.338 77.46 159.194 77.46C157.018 77.46 155.034 77.156 153.242 76.548C151.45 75.972 149.914 75.124 148.634 74.004C147.354 72.852 146.346 71.444 145.61 69.78C144.906 68.116 144.554 66.196 144.554 64.02C144.554 61.876 144.906 59.972 145.61 58.308C146.346 56.612 147.354 55.204 148.634 54.084C149.914 52.932 151.45 52.068 153.242 51.492C155.034 50.884 157.018 50.58 159.194 50.58ZM193.764 72.18L201.684 51.54H211.524V76.5H204.804V58.26H204.324L197.364 76.5H189.732L182.724 58.26H182.244V76.5H175.524V51.54H185.364L193.284 72.18H193.764ZM240.787 51.54V76.5H234.067V54.9H221.107V76.5H214.387V51.54H240.787ZM257.128 74.34C258.152 74.34 259.112 74.148 260.008 73.764C260.904 73.38 261.688 72.788 262.36 71.988C263.032 71.156 263.56 70.084 263.944 68.772C264.359 67.46 264.567 65.876 264.567 64.02C264.567 62.164 264.359 60.58 263.944 59.268C263.56 57.956 263.032 56.9 262.36 56.1C261.688 55.268 260.904 54.66 260.008 54.276C259.112 53.892 258.152 53.7 257.128 53.7C256.104 53.7 255.144 53.892 254.248 54.276C253.352 54.66 252.568 55.268 251.895 56.1C251.224 56.9 250.68 57.956 250.264 59.268C249.879 60.58 249.687 62.164 249.687 64.02C249.687 65.876 249.879 67.46 250.264 68.772C250.68 70.084 251.224 71.156 251.895 71.988C252.568 72.788 253.352 73.38 254.248 73.764C255.144 74.148 256.104 74.34 257.128 74.34ZM257.128 50.58C259.272 50.58 261.24 50.884 263.032 51.492C264.856 52.068 266.408 52.932 267.688 54.084C268.968 55.204 269.96 56.612 270.664 58.308C271.4 59.972 271.768 61.876 271.768 64.02C271.768 66.196 271.4 68.116 270.664 69.78C269.96 71.444 268.968 72.852 267.688 74.004C266.408 75.124 264.856 75.972 263.032 76.548C261.24 77.156 259.272 77.46 257.128 77.46C254.951 77.46 252.967 77.156 251.175 76.548C249.383 75.972 247.847 75.124 246.567 74.004C245.287 72.852 244.279 71.444 243.543 69.78C242.839 68.116 242.487 66.196 242.487 64.02C242.487 61.876 242.839 59.972 243.543 58.308C244.279 56.612 245.287 55.204 246.567 54.084C247.847 52.932 249.383 52.068 251.175 51.492C252.967 50.884 254.951 50.58 257.128 50.58ZM299.857 51.54V76.5H293.137V65.46H280.177V76.5H273.457V51.54H280.177V62.1H293.137V51.54H299.857ZM317.158 74.1C318.726 74.1 320.182 73.828 321.526 73.284C322.902 72.74 324.246 71.972 325.558 70.98L327.478 73.86C326.87 74.404 326.15 74.9 325.318 75.348C324.518 75.796 323.638 76.18 322.678 76.5C321.75 76.788 320.774 77.012 319.75 77.172C318.726 77.364 317.702 77.46 316.678 77.46C314.406 77.46 312.326 77.156 310.438 76.548C308.582 75.972 306.998 75.124 305.686 74.004C304.374 72.852 303.35 71.444 302.614 69.78C301.91 68.116 301.558 66.196 301.558 64.02C301.558 61.876 301.894 59.972 302.566 58.308C303.27 56.612 304.23 55.204 305.446 54.084C306.694 52.932 308.166 52.068 309.862 51.492C311.558 50.884 313.43 50.58 315.478 50.58C317.398 50.58 319.206 50.868 320.902 51.444C322.598 52.02 324.07 52.868 325.318 53.988C326.566 55.076 327.558 56.404 328.294 57.972C329.03 59.54 329.398 61.316 329.398 63.3V66.66H308.902C309.286 69.316 310.198 71.22 311.638 72.372C313.11 73.524 314.95 74.1 317.158 74.1ZM315.478 53.7C314.55 53.7 313.686 53.876 312.886 54.228C312.086 54.58 311.382 55.14 310.774 55.908C310.198 56.676 309.718 57.668 309.334 58.884C308.982 60.1 308.79 61.572 308.758 63.3H322.198C322.198 61.636 322.006 60.196 321.622 58.98C321.238 57.764 320.726 56.772 320.086 56.004C319.478 55.204 318.758 54.628 317.926 54.276C317.126 53.892 316.31 53.7 315.478 53.7ZM357.474 51.54V76.5H350.754V65.46H337.794V76.5H331.074V51.54H337.794V62.1H350.754V51.54H357.474ZM384.374 54.9H374.294V76.5H367.574V54.9H357.494V51.54H384.374V54.9ZM409.319 73.86C411.079 73.86 412.695 73.62 414.167 73.14C415.639 72.628 416.919 71.876 418.007 70.884C419.127 69.86 420.023 68.564 420.695 66.996C421.367 65.428 421.783 63.556 421.943 61.38H403.847V57.78H421.943C421.783 55.668 421.367 53.844 420.695 52.308C420.023 50.772 419.143 49.508 418.055 48.516C416.999 47.492 415.767 46.74 414.359 46.26C412.951 45.78 411.431 45.54 409.799 45.54C407.623 45.54 405.527 45.924 403.511 46.692C401.527 47.428 399.623 48.644 397.799 50.34L395.399 47.46C397.223 45.764 399.431 44.42 402.023 43.428C404.615 42.436 407.367 41.94 410.279 41.94C413.159 41.94 415.767 42.324 418.103 43.092C420.471 43.86 422.487 44.996 424.151 46.5C425.847 48.004 427.159 49.86 428.087 52.068C429.015 54.276 429.479 56.82 429.479 59.7C429.479 62.58 429.015 65.124 428.087 67.332C427.159 69.54 425.831 71.396 424.103 72.9C422.407 74.404 420.343 75.54 417.911 76.308C415.511 77.076 412.807 77.46 409.799 77.46C406.887 77.46 404.135 76.964 401.543 75.972C398.951 74.98 396.743 73.636 394.919 71.94L397.319 69.06C399.143 70.756 401.047 71.988 403.031 72.756C405.047 73.492 407.143 73.86 409.319 73.86ZM457.801 51.54V76.5H451.081V65.46H438.121V76.5H431.401V51.54H438.121V62.1H451.081V51.54H457.801ZM475.102 74.1C476.67 74.1 478.126 73.828 479.47 73.284C480.846 72.74 482.19 71.972 483.502 70.98L485.422 73.86C484.814 74.404 484.094 74.9 483.262 75.348C482.462 75.796 481.582 76.18 480.622 76.5C479.694 76.788 478.718 77.012 477.694 77.172C476.67 77.364 475.646 77.46 474.622 77.46C472.35 77.46 470.27 77.156 468.382 76.548C466.526 75.972 464.942 75.124 463.63 74.004C462.318 72.852 461.294 71.444 460.558 69.78C459.854 68.116 459.502 66.196 459.502 64.02C459.502 61.876 459.838 59.972 460.51 58.308C461.214 56.612 462.174 55.204 463.39 54.084C464.638 52.932 466.11 52.068 467.806 51.492C469.502 50.884 471.374 50.58 473.422 50.58C475.342 50.58 477.15 50.868 478.846 51.444C480.542 52.02 482.014 52.868 483.262 53.988C484.51 55.076 485.502 56.404 486.238 57.972C486.974 59.54 487.342 61.316 487.342 63.3V66.66H466.846C467.23 69.316 468.142 71.22 469.582 72.372C471.054 73.524 472.894 74.1 475.102 74.1ZM473.422 53.7C472.494 53.7 471.63 53.876 470.83 54.228C470.03 54.58 469.326 55.14 468.718 55.908C468.142 56.676 467.662 57.668 467.278 58.884C466.926 60.1 466.734 61.572 466.702 63.3H480.142C480.142 61.636 479.95 60.196 479.566 58.98C479.182 57.764 478.67 56.772 478.03 56.004C477.422 55.204 476.702 54.628 475.87 54.276C475.07 53.892 474.254 53.7 473.422 53.7ZM495.738 54.9V73.14H501.738C502.826 73.14 503.818 72.98 504.714 72.66C505.642 72.308 506.426 71.764 507.066 71.028C507.738 70.292 508.25 69.348 508.602 68.196C508.986 67.044 509.178 65.652 509.178 64.02C509.178 62.388 508.986 60.996 508.602 59.844C508.25 58.692 507.738 57.748 507.066 57.012C506.426 56.276 505.642 55.748 504.714 55.428C503.818 55.076 502.826 54.9 501.738 54.9H495.738ZM501.738 51.54C503.946 51.54 505.946 51.828 507.738 52.404C509.562 52.98 511.114 53.812 512.394 54.9C513.674 55.988 514.65 57.3 515.322 58.836C516.026 60.372 516.378 62.1 516.378 64.02C516.378 65.94 516.026 67.668 515.322 69.204C514.65 70.74 513.674 72.052 512.394 73.14C511.114 74.228 509.562 75.06 507.738 75.636C505.946 76.212 503.946 76.5 501.738 76.5H495.738V85.14H489.018V51.54H501.738ZM538.197 54.9H524.757V76.5H518.037V51.54H538.197V54.9ZM565.077 51.54V76.5H558.357V57.78H557.877L546.837 76.5H538.197V51.54H544.917V70.26H545.397L556.437 51.54H565.077ZM594.847 51.54V76.5H588.127V57.78H587.647L576.607 76.5H567.967V51.54H574.687V70.26H575.167L586.207 51.54H594.847Z" fill="black"/>
<defs>
<clipPath id="clip0_28_7">
<rect width="100" height="100" fill="white"/>
</clipPath>
</defs>
</svg>
