<svg width="609" height="100" viewBox="0 0 609 100" fill="none" xmlns="http://www.w3.org/2000/svg">
<ellipse cx="43.7864" cy="87.1223" rx="2.13592" ry="2.30216" fill="black"/>
<ellipse cx="66.4807" cy="13.1655" rx="2.40291" ry="2.58993" fill="black"/>
<ellipse cx="72.3545" cy="24.6763" rx="2.40291" ry="2.58993" fill="black"/>
<ellipse cx="78.2281" cy="38.4892" rx="2.40291" ry="2.58993" fill="black"/>
<ellipse cx="83.8349" cy="48.5612" rx="2.6699" ry="2.8777" fill="black"/>
<ellipse cx="78.4951" cy="59.4964" rx="2.6699" ry="2.8777" fill="black"/>
<ellipse cx="66.7477" cy="59.4964" rx="2.6699" ry="2.8777" fill="black"/>
<ellipse cx="83.8349" cy="27.8417" rx="2.6699" ry="2.8777" fill="black"/>
<ellipse cx="92.1117" cy="36.7626" rx="2.93689" ry="3.16547" fill="black"/>
<ellipse cx="95.3157" cy="48.8489" rx="2.93689" ry="3.16547" fill="black"/>
<ellipse cx="92.1117" cy="61.5108" rx="2.93689" ry="3.16547" fill="black"/>
<ellipse cx="84.1019" cy="70.1439" rx="3.47087" ry="3.74101" fill="black"/>
<ellipse cx="72.3544" cy="73.5971" rx="3.47087" ry="3.74101" fill="black"/>
<ellipse cx="60.8739" cy="70.4317" rx="3.73786" ry="4.02878" fill="black"/>
<ellipse cx="52.5971" cy="61.5108" rx="4.00485" ry="4.31655" fill="black"/>
<ellipse cx="78.4951" cy="12.8777" rx="2.6699" ry="2.8777" fill="black"/>
<ellipse cx="89.4418" cy="17.1943" rx="2.93689" ry="3.16547" fill="black"/>
<ellipse cx="98.7864" cy="24.964" rx="3.20388" ry="3.45324" fill="black"/>
<ellipse cx="104.66" cy="36.4748" rx="3.20388" ry="3.45324" fill="black"/>
<ellipse cx="106.529" cy="49.4245" rx="3.47087" ry="3.74101" fill="black"/>
<ellipse cx="104.393" cy="62.0863" rx="3.47087" ry="3.74101" fill="black"/>
<ellipse cx="98.7864" cy="72.7338" rx="3.73786" ry="4.02878" fill="black"/>
<ellipse cx="89.7087" cy="80.7914" rx="3.73786" ry="4.02878" fill="black"/>
<ellipse cx="78.7621" cy="85.1079" rx="4.00485" ry="4.31655" fill="black"/>
<ellipse cx="66.2136" cy="85.3957" rx="4.27184" ry="4.60432" fill="black"/>
<ellipse cx="55" cy="80.7914" rx="4.27184" ry="4.60432" fill="black"/>
<ellipse cx="46.7233" cy="73.0215" rx="4.53884" ry="4.89209" fill="black"/>
<ellipse cx="41.1166" cy="61.7986" rx="4.80583" ry="5.17986" fill="black"/>
<ellipse cx="31.2378" cy="86.8346" rx="2.40291" ry="2.58993" fill="black"/>
<ellipse cx="20.2912" cy="82.518" rx="2.6699" ry="2.8777" fill="black"/>
<ellipse cx="11.4805" cy="74.7482" rx="2.93689" ry="3.16547" fill="black"/>
<ellipse cx="5.87381" cy="63.5251" rx="3.20388" ry="3.45324" fill="black"/>
<ellipse cx="3.20388" cy="50.8633" rx="3.20388" ry="3.45324" fill="black"/>
<ellipse cx="5.33987" cy="37.6259" rx="3.20388" ry="3.45324" fill="black"/>
<ellipse cx="11.4806" cy="26.9784" rx="3.47087" ry="3.74101" fill="black"/>
<ellipse cx="20.2912" cy="19.2086" rx="3.73786" ry="4.02878" fill="black"/>
<ellipse cx="31.7718" cy="14.3165" rx="4.00485" ry="4.31655" fill="black"/>
<ellipse cx="43.5194" cy="14.3165" rx="4.00485" ry="4.31655" fill="black"/>
<ellipse cx="54.733" cy="18.9209" rx="4.00485" ry="4.31655" fill="black"/>
<ellipse cx="63.8107" cy="26.9785" rx="4.53884" ry="4.89209" fill="black"/>
<ellipse cx="69.6845" cy="37.9136" rx="4.53884" ry="4.89209" fill="black"/>
<ellipse cx="71.5534" cy="50.8633" rx="4.80583" ry="5.17986" fill="black"/>
<ellipse cx="37.3787" cy="75.036" rx="2.13592" ry="2.30216" fill="black"/>
<ellipse cx="31.5049" cy="61.2231" rx="2.13592" ry="2.30216" fill="black"/>
<ellipse cx="31.5049" cy="61.2231" rx="2.13592" ry="2.30216" fill="black"/>
<ellipse cx="37.6457" cy="50.5756" rx="2.40291" ry="2.58993" fill="black"/>
<ellipse cx="25.898" cy="50.5756" rx="2.40291" ry="2.58993" fill="black"/>
<ellipse cx="26.165" cy="72.1583" rx="2.6699" ry="2.8777" fill="black"/>
<ellipse cx="18.4224" cy="63.2374" rx="2.93689" ry="3.16547" fill="black"/>
<ellipse cx="14.6845" cy="50.5756" rx="2.93689" ry="3.16547" fill="black"/>
<ellipse cx="18.1554" cy="38.777" rx="3.20388" ry="3.45324" fill="black"/>
<ellipse cx="26.1651" cy="29.5683" rx="3.20388" ry="3.45324" fill="black"/>
<ellipse cx="37.6457" cy="26.4029" rx="3.47087" ry="3.74101" fill="black"/>
<ellipse cx="49.1263" cy="29.5683" rx="3.73786" ry="4.02878" fill="black"/>
<ellipse cx="57.1359" cy="38.2014" rx="3.73786" ry="4.02878" fill="black"/>
<ellipse cx="60.6068" cy="50.5755" rx="4.00485" ry="4.31655" fill="black"/>
<ellipse cx="32.0389" cy="39.9281" rx="2.6699" ry="2.8777" fill="black"/>
<ellipse cx="43.5194" cy="40.2158" rx="2.93689" ry="3.16547" fill="black"/>
<ellipse cx="48.8593" cy="50.5756" rx="2.93689" ry="3.16547" fill="black"/>
<path d="M144.96 48.46L157.68 65.5H149.76L138.72 50.62H130.32V65.5H123.36V31.9H130.32V47.02H138.24L149.28 31.9H156.96L144.96 48.46ZM169.194 63.34C170.218 63.34 171.178 63.148 172.074 62.764C172.97 62.38 173.754 61.788 174.426 60.988C175.098 60.156 175.626 59.084 176.01 57.772C176.426 56.46 176.634 54.876 176.634 53.02C176.634 51.164 176.426 49.58 176.01 48.268C175.626 46.956 175.098 45.9 174.426 45.1C173.754 44.268 172.97 43.66 172.074 43.276C171.178 42.892 170.218 42.7 169.194 42.7C168.17 42.7 167.21 42.892 166.314 43.276C165.418 43.66 164.634 44.268 163.962 45.1C163.29 45.9 162.746 46.956 162.33 48.268C161.946 49.58 161.754 51.164 161.754 53.02C161.754 54.876 161.946 56.46 162.33 57.772C162.746 59.084 163.29 60.156 163.962 60.988C164.634 61.788 165.418 62.38 166.314 62.764C167.21 63.148 168.17 63.34 169.194 63.34ZM169.194 39.58C171.338 39.58 173.306 39.884 175.098 40.492C176.922 41.068 178.474 41.932 179.754 43.084C181.034 44.204 182.026 45.612 182.73 47.308C183.466 48.972 183.834 50.876 183.834 53.02C183.834 55.196 183.466 57.116 182.73 58.78C182.026 60.444 181.034 61.852 179.754 63.004C178.474 64.124 176.922 64.972 175.098 65.548C173.306 66.156 171.338 66.46 169.194 66.46C167.018 66.46 165.034 66.156 163.242 65.548C161.45 64.972 159.914 64.124 158.634 63.004C157.354 61.852 156.346 60.444 155.61 58.78C154.906 57.116 154.554 55.196 154.554 53.02C154.554 50.876 154.906 48.972 155.61 47.308C156.346 45.612 157.354 44.204 158.634 43.084C159.914 41.932 161.45 41.068 163.242 40.492C165.034 39.884 167.018 39.58 169.194 39.58ZM203.764 61.18L211.684 40.54H221.524V65.5H214.804V47.26H214.324L207.364 65.5H199.732L192.724 47.26H192.244V65.5H185.524V40.54H195.364L203.284 61.18H203.764ZM250.787 40.54V65.5H244.067V43.9H231.107V65.5H224.387V40.54H250.787ZM267.128 63.34C268.152 63.34 269.112 63.148 270.008 62.764C270.904 62.38 271.688 61.788 272.36 60.988C273.032 60.156 273.56 59.084 273.944 57.772C274.359 56.46 274.567 54.876 274.567 53.02C274.567 51.164 274.359 49.58 273.944 48.268C273.56 46.956 273.032 45.9 272.36 45.1C271.688 44.268 270.904 43.66 270.008 43.276C269.112 42.892 268.152 42.7 267.128 42.7C266.104 42.7 265.144 42.892 264.248 43.276C263.352 43.66 262.568 44.268 261.895 45.1C261.224 45.9 260.68 46.956 260.264 48.268C259.879 49.58 259.687 51.164 259.687 53.02C259.687 54.876 259.879 56.46 260.264 57.772C260.68 59.084 261.224 60.156 261.895 60.988C262.568 61.788 263.352 62.38 264.248 62.764C265.144 63.148 266.104 63.34 267.128 63.34ZM267.128 39.58C269.272 39.58 271.24 39.884 273.032 40.492C274.856 41.068 276.408 41.932 277.688 43.084C278.968 44.204 279.96 45.612 280.664 47.308C281.4 48.972 281.768 50.876 281.768 53.02C281.768 55.196 281.4 57.116 280.664 58.78C279.96 60.444 278.968 61.852 277.688 63.004C276.408 64.124 274.856 64.972 273.032 65.548C271.24 66.156 269.272 66.46 267.128 66.46C264.951 66.46 262.967 66.156 261.175 65.548C259.383 64.972 257.847 64.124 256.567 63.004C255.287 61.852 254.279 60.444 253.543 58.78C252.839 57.116 252.487 55.196 252.487 53.02C252.487 50.876 252.839 48.972 253.543 47.308C254.279 45.612 255.287 44.204 256.567 43.084C257.847 41.932 259.383 41.068 261.175 40.492C262.967 39.884 264.951 39.58 267.128 39.58ZM309.857 40.54V65.5H303.137V54.46H290.177V65.5H283.457V40.54H290.177V51.1H303.137V40.54H309.857ZM327.158 63.1C328.726 63.1 330.182 62.828 331.526 62.284C332.902 61.74 334.246 60.972 335.558 59.98L337.478 62.86C336.87 63.404 336.15 63.9 335.318 64.348C334.518 64.796 333.638 65.18 332.678 65.5C331.75 65.788 330.774 66.012 329.75 66.172C328.726 66.364 327.702 66.46 326.678 66.46C324.406 66.46 322.326 66.156 320.438 65.548C318.582 64.972 316.998 64.124 315.686 63.004C314.374 61.852 313.35 60.444 312.614 58.78C311.91 57.116 311.558 55.196 311.558 53.02C311.558 50.876 311.894 48.972 312.566 47.308C313.27 45.612 314.23 44.204 315.446 43.084C316.694 41.932 318.166 41.068 319.862 40.492C321.558 39.884 323.43 39.58 325.478 39.58C327.398 39.58 329.206 39.868 330.902 40.444C332.598 41.02 334.07 41.868 335.318 42.988C336.566 44.076 337.558 45.404 338.294 46.972C339.03 48.54 339.398 50.316 339.398 52.3V55.66H318.902C319.286 58.316 320.198 60.22 321.638 61.372C323.11 62.524 324.95 63.1 327.158 63.1ZM325.478 42.7C324.55 42.7 323.686 42.876 322.886 43.228C322.086 43.58 321.382 44.14 320.774 44.908C320.198 45.676 319.718 46.668 319.334 47.884C318.982 49.1 318.79 50.572 318.758 52.3H332.198C332.198 50.636 332.006 49.196 331.622 47.98C331.238 46.764 330.726 45.772 330.086 45.004C329.478 44.204 328.758 43.628 327.926 43.276C327.126 42.892 326.31 42.7 325.478 42.7ZM367.474 40.54V65.5H360.754V54.46H347.794V65.5H341.074V40.54H347.794V51.1H360.754V40.54H367.474ZM394.374 43.9H384.294V65.5H377.574V43.9H367.494V40.54H394.374V43.9ZM419.319 62.86C421.079 62.86 422.695 62.62 424.167 62.14C425.639 61.628 426.919 60.876 428.007 59.884C429.127 58.86 430.023 57.564 430.695 55.996C431.367 54.428 431.783 52.556 431.943 50.38H413.847V46.78H431.943C431.783 44.668 431.367 42.844 430.695 41.308C430.023 39.772 429.143 38.508 428.055 37.516C426.999 36.492 425.767 35.74 424.359 35.26C422.951 34.78 421.431 34.54 419.799 34.54C417.623 34.54 415.527 34.924 413.511 35.692C411.527 36.428 409.623 37.644 407.799 39.34L405.399 36.46C407.223 34.764 409.431 33.42 412.023 32.428C414.615 31.436 417.367 30.94 420.279 30.94C423.159 30.94 425.767 31.324 428.103 32.092C430.471 32.86 432.487 33.996 434.151 35.5C435.847 37.004 437.159 38.86 438.087 41.068C439.015 43.276 439.479 45.82 439.479 48.7C439.479 51.58 439.015 54.124 438.087 56.332C437.159 58.54 435.831 60.396 434.103 61.9C432.407 63.404 430.343 64.54 427.911 65.308C425.511 66.076 422.807 66.46 419.799 66.46C416.887 66.46 414.135 65.964 411.543 64.972C408.951 63.98 406.743 62.636 404.919 60.94L407.319 58.06C409.143 59.756 411.047 60.988 413.031 61.756C415.047 62.492 417.143 62.86 419.319 62.86ZM467.801 40.54V65.5H461.081V54.46H448.121V65.5H441.401V40.54H448.121V51.1H461.081V40.54H467.801ZM485.102 63.1C486.67 63.1 488.126 62.828 489.47 62.284C490.846 61.74 492.19 60.972 493.502 59.98L495.422 62.86C494.814 63.404 494.094 63.9 493.262 64.348C492.462 64.796 491.582 65.18 490.622 65.5C489.694 65.788 488.718 66.012 487.694 66.172C486.67 66.364 485.646 66.46 484.622 66.46C482.35 66.46 480.27 66.156 478.382 65.548C476.526 64.972 474.942 64.124 473.63 63.004C472.318 61.852 471.294 60.444 470.558 58.78C469.854 57.116 469.502 55.196 469.502 53.02C469.502 50.876 469.838 48.972 470.51 47.308C471.214 45.612 472.174 44.204 473.39 43.084C474.638 41.932 476.11 41.068 477.806 40.492C479.502 39.884 481.374 39.58 483.422 39.58C485.342 39.58 487.15 39.868 488.846 40.444C490.542 41.02 492.014 41.868 493.262 42.988C494.51 44.076 495.502 45.404 496.238 46.972C496.974 48.54 497.342 50.316 497.342 52.3V55.66H476.846C477.23 58.316 478.142 60.22 479.582 61.372C481.054 62.524 482.894 63.1 485.102 63.1ZM483.422 42.7C482.494 42.7 481.63 42.876 480.83 43.228C480.03 43.58 479.326 44.14 478.718 44.908C478.142 45.676 477.662 46.668 477.278 47.884C476.926 49.1 476.734 50.572 476.702 52.3H490.142C490.142 50.636 489.95 49.196 489.566 47.98C489.182 46.764 488.67 45.772 488.03 45.004C487.422 44.204 486.702 43.628 485.87 43.276C485.07 42.892 484.254 42.7 483.422 42.7ZM505.738 43.9V62.14H511.738C512.826 62.14 513.818 61.98 514.714 61.66C515.642 61.308 516.426 60.764 517.066 60.028C517.738 59.292 518.25 58.348 518.602 57.196C518.986 56.044 519.178 54.652 519.178 53.02C519.178 51.388 518.986 49.996 518.602 48.844C518.25 47.692 517.738 46.748 517.066 46.012C516.426 45.276 515.642 44.748 514.714 44.428C513.818 44.076 512.826 43.9 511.738 43.9H505.738ZM511.738 40.54C513.946 40.54 515.946 40.828 517.738 41.404C519.562 41.98 521.114 42.812 522.394 43.9C523.674 44.988 524.65 46.3 525.322 47.836C526.026 49.372 526.378 51.1 526.378 53.02C526.378 54.94 526.026 56.668 525.322 58.204C524.65 59.74 523.674 61.052 522.394 62.14C521.114 63.228 519.562 64.06 517.738 64.636C515.946 65.212 513.946 65.5 511.738 65.5H505.738V74.14H499.018V40.54H511.738ZM548.197 43.9H534.757V65.5H528.037V40.54H548.197V43.9ZM575.077 40.54V65.5H568.357V46.78H567.877L556.837 65.5H548.197V40.54H554.917V59.26H555.397L566.437 40.54H575.077ZM604.847 40.54V65.5H598.127V46.78H597.647L586.607 65.5H577.967V40.54H584.687V59.26H585.167L596.207 40.54H604.847Z" fill="black"/>
</svg>
