<svg width="600" height="100" viewBox="0 0 600 100" fill="none" xmlns="http://www.w3.org/2000/svg">
<g clip-path="url(#clip0_28_7)">
<path d="M20.8362 11.6565C28.393 6.35778 37.3368 3.36256 46.6028 3.0276C55.8684 2.69278 65.0654 5.03228 73.0972 9.76754C81.1292 14.5029 87.6574 21.434 91.9044 29.7354C96.151 38.0366 97.9374 47.3582 97.0504 56.5886C96.163 65.8194 92.64 74.5702 86.9006 81.7984C81.1612 89.0264 73.4476 94.427 64.6792 97.3568C55.9104 100.286 46.4564 100.621 37.444 98.322C28.4314 96.0226 20.24 91.1858 13.8459 84.3876L18.4152 80.0888C23.9756 86.0004 31.0992 90.2068 38.9366 92.2066C46.7744 94.2062 54.996 93.9148 62.6214 91.367C70.2468 88.8196 76.9546 84.1228 81.9458 77.837C86.937 71.5514 90.0008 63.9414 90.7724 55.9142C91.5438 47.8866 89.9904 39.7806 86.2972 32.5614C82.604 25.3424 76.9268 19.3146 69.942 15.1969C62.9574 11.0788 54.9594 9.0444 46.9016 9.33568C38.8436 9.62682 31.0656 12.2317 24.4942 16.8397L20.8362 11.6565Z" fill="black"/>
<path d="M100 50C100 59.8892 97.0674 69.556 91.5732 77.7784C86.0794 86.001 78.2702 92.4094 69.134 96.194C59.9976 99.9784 49.9444 100.968 40.2456 99.0392C30.5464 97.11 21.6372 92.348 14.6447 85.3554C7.65202 78.3626 2.88996 69.4534 0.960681 59.7544C-0.968463 50.0554 0.0216944 40.0024 3.80602 30.866C7.59034 21.7296 13.999 13.9208 22.2216 8.4266C30.4438 2.93244 40.111 0 50 0V11.9858C42.4814 11.9858 35.1318 14.2153 28.8802 18.3923C22.629 22.5692 17.7566 28.5066 14.8794 35.4526C12.0023 42.3988 11.2493 50.042 12.7162 57.4162C14.1829 64.7902 17.8035 71.5636 23.1198 76.88C28.4362 82.1964 35.2096 85.8168 42.5836 87.2836C49.9578 88.7504 57.6012 87.9978 64.5472 85.1204C71.4934 82.2434 77.4306 77.3708 81.6076 71.1194C85.7846 64.868 88.0142 57.5186 88.0142 50H100Z" fill="black"/>
<mask id="mask0_28_7" style="mask-type:luminance" maskUnits="userSpaceOnUse" x="32" y="22" width="33" height="50">
<path d="M64.249 22H32.999V72H64.249V22Z" fill="white"/>
</mask>
<g mask="url(#mask0_28_7)">
<path fill-rule="evenodd" clip-rule="evenodd" d="M55.6694 33.4982L55.6662 33.4814C55.6632 33.4664 55.6586 33.4422 55.6522 33.4092C55.64 33.343 55.622 33.2426 55.6006 33.1124C55.558 32.852 55.503 32.4756 55.4546 32.022C55.357 31.1062 55.292 29.9182 55.4 28.7564C55.5104 27.567 55.7884 26.5636 56.251 25.894C56.652 25.314 57.2196 24.926 58.2474 24.926C58.8978 24.926 59.3448 25.0768 59.672 25.2804C60.008 25.4894 60.3022 25.8072 60.5556 26.2568C61.0788 27.1858 61.3292 28.4984 61.4346 29.9032C61.4264 31.3248 61.2334 32.7352 60.8634 34.0858C59.818 36.9474 59.742 40.1456 60.647 43.0652C60.6642 43.1204 60.6844 43.1744 60.708 43.2274C60.8764 43.6036 60.9818 44.0234 61.0122 44.461C61.017 44.531 61.0272 44.6 61.0418 44.668C61.5328 46.9114 61.3882 49.2772 60.6352 51.4106C59.882 53.544 58.573 55.2992 56.942 56.4526C56.6036 56.6918 56.3826 57.0582 56.332 57.4632C56.2818 57.8686 56.4066 58.276 56.6764 58.5874C57.1636 59.1498 57.3084 59.6392 57.3244 60.0452C57.3418 60.478 57.2158 60.9298 56.9852 61.3808C56.7552 61.831 56.4488 62.225 56.188 62.5132C56.0602 62.6546 55.9494 62.7636 55.8744 62.8342C55.8372 62.8694 55.8092 62.8946 55.793 62.9088L55.7794 62.9208C55.2 63.408 55.0886 64.2418 55.513 64.8546C55.5168 64.862 55.5224 64.8748 55.5284 64.892C55.5476 64.9478 55.5744 65.0588 55.5446 65.2254C55.4906 65.5268 55.1574 66.4502 53.0104 67.6894C51.1956 68.7362 48.7132 68.6716 46.0404 67.9668C43.4182 67.2746 40.9324 66.0508 39.3692 65.2088C38.4364 64.7064 37.9372 63.5618 37.7646 62.1124C37.6842 61.4346 37.689 60.792 37.7158 60.314C37.7292 60.077 37.7476 59.8862 37.762 59.758C37.769 59.694 37.7754 59.646 37.7794 59.6162L37.7838 59.5856L37.784 59.583C37.8564 59.1184 37.6964 58.6466 37.3534 58.3166C37.2708 58.2368 37.1282 58.0352 36.991 57.6256C36.8586 57.2304 36.7612 56.7336 36.7014 56.1678C36.684 56.0014 36.6698 55.8324 36.659 55.6624C37.2314 55.6874 37.7928 55.3894 38.067 54.857C38.44 54.1338 38.1422 53.2524 37.4022 52.8882C37.1566 52.7676 36.9192 52.6032 36.699 52.3968C36.6028 51.9832 36.3258 51.6298 35.9454 51.4302C35.9028 51.3106 35.8802 51.1752 35.8834 51.0344C35.8846 50.9854 35.8832 50.9368 35.8794 50.8882C35.8306 50.2694 36.2468 49.5826 37.0822 48.8942C37.4642 48.5788 37.861 48.3264 38.1672 48.151C38.3184 48.0648 38.443 47.9998 38.5258 47.9584C38.5674 47.9376 38.5982 47.9228 38.6164 47.914L38.6334 47.9062C38.6334 47.9062 36.7824 48.334 36.1566 47.0018C35.5306 45.6694 37.379 45.243 37.379 45.243L37.3758 45.2442L37.3706 45.2468L37.3554 45.2536C37.3554 45.2536 37.3464 45.258 37.3412 45.2602C37.3322 45.2644 37.3212 45.2696 37.3092 45.2752C37.2716 45.2932 37.22 45.3176 37.1572 45.3494C37.0314 45.4124 36.8578 45.5034 36.6526 45.6204C36.504 45.7054 36.3364 45.8058 36.1566 45.921C36.0912 45.6108 36.0582 45.2936 36.0582 44.9762C36.0582 44.1786 36.2666 43.3834 36.6768 42.6938C36.6634 42.7216 36.65 42.75 36.6372 42.7784L38.006 43.3778L36.7262 42.613C36.7096 42.64 36.693 42.6668 36.6768 42.6938C37.409 41.182 38.9008 40.2748 40.363 39.7124C41.8866 39.1264 43.6522 38.8078 45.2712 38.632C46.9038 38.4548 48.4624 38.4154 49.6068 38.4196C50.181 38.4214 50.6556 38.4344 50.9888 38.4468C51.1056 38.4512 51.2052 38.4556 51.2858 38.4594C51.233 38.4752 51.1788 38.489 51.123 38.5L51.429 39.9352L51.331 41.3982L51.3272 41.3978L51.307 41.3964C51.2884 41.3954 51.2592 41.3938 51.2202 41.3918C51.1422 41.3878 51.0248 41.3824 50.8732 41.3766C50.5698 41.3654 50.1304 41.353 49.5962 41.3512C48.5232 41.3476 47.0858 41.385 45.6022 41.546C44.105 41.7086 42.6348 41.9892 41.4616 42.4404C40.254 42.905 39.6164 43.4502 39.3746 43.9776C39.3484 44.0344 39.3188 44.0896 39.2854 44.1428C39.1462 44.3656 39.058 44.6576 39.058 44.9762C39.058 45.295 39.1462 45.5872 39.2854 45.8096C39.5092 46.167 39.5658 46.601 39.4408 47.0018C39.316 47.4022 39.0226 47.7312 38.6334 47.9062L36.1566 47.0018L36.7262 47.3398C36.453 46.903 36.2626 46.4208 36.1566 45.921C35.845 46.1206 35.4968 46.3654 35.1476 46.6528C34.1308 47.4912 32.756 48.9922 32.8832 51.0414C32.8808 51.5176 32.9632 51.9938 33.1296 52.4426C33.2598 52.7926 33.441 53.1254 33.6714 53.4254C33.6132 54.346 33.6072 55.4276 33.7172 56.469C33.7906 57.1638 33.9198 57.8812 34.14 58.5382C34.2808 58.958 34.4732 59.3976 34.7446 59.801C34.7358 59.9078 34.7276 60.0258 34.7202 60.1536C34.6872 60.7438 34.679 61.561 34.7846 62.451C34.9852 64.1366 35.6578 66.5576 37.921 67.7768C39.5536 68.656 42.288 70.0136 45.2588 70.7974C48.1794 71.5676 51.6626 71.8718 54.5354 70.214C57.0758 68.7482 58.234 67.2128 58.4996 65.7312C58.5908 65.2238 58.566 64.772 58.49 64.3944C58.8534 63.9854 59.3052 63.4028 59.669 62.6906C60.0514 61.9426 60.3648 60.996 60.3222 59.9304C60.2958 59.2674 60.1324 58.5984 59.8074 57.9428C61.4444 56.4698 62.7028 54.5434 63.4712 52.3668C64.3934 49.754 64.5748 46.883 63.9968 44.1536C63.937 43.4592 63.7686 42.7772 63.4952 42.1402C62.7948 39.822 62.871 37.2782 63.7058 35.0246C63.72 34.987 63.7324 34.9486 63.7432 34.9098C64.198 33.2734 64.4308 31.5698 64.4348 29.8568C64.4348 29.8212 64.4338 29.7858 64.431 29.7502C64.321 28.2242 64.0388 26.3614 63.1834 24.8434C62.7444 24.0634 62.133 23.3362 61.2836 22.8076C60.4258 22.2736 59.4078 21.9942 58.2474 21.9942C56.1856 21.9942 54.7024 22.897 53.765 24.2532C52.8894 25.52 52.5414 27.0984 52.4122 28.4912C52.2802 29.9114 52.3618 31.3052 52.4708 32.326C52.5256 32.8408 52.5886 33.271 52.6384 33.5754C52.6632 33.7278 52.685 33.8492 52.7008 33.9344C52.7084 33.9744 52.7146 34.007 52.7192 34.0304L52.7206 34.04C52.7244 34.0684 52.7304 34.1146 52.7368 34.1766C52.7506 34.3002 52.767 34.4838 52.777 34.7088C52.7974 35.1656 52.7902 35.7582 52.6918 36.3504C52.4954 37.534 52.0518 38.2304 51.2858 38.4594C51.3202 38.4614 51.3512 38.4626 51.3788 38.464C51.4014 38.4654 51.4216 38.4662 51.4392 38.4674C51.4572 38.4682 51.4724 38.4692 51.485 38.4698L51.5144 38.4718L51.523 38.4722H51.5256C51.5256 38.4722 51.5272 38.4726 51.429 39.9352C51.331 41.3982 51.331 41.3982 51.331 41.3982C51.4662 41.4068 51.6026 41.3974 51.7352 41.3702C54.4906 40.809 55.3836 38.4438 55.653 36.8196C55.7944 35.967 55.8002 35.161 55.7742 34.5802C55.7608 34.2862 55.7392 34.042 55.7202 33.867C55.7106 33.7794 55.7018 33.7086 55.6948 33.6576C55.6916 33.6318 55.6886 33.6112 55.6864 33.5956L55.6834 33.5762L55.6822 33.5694L55.6816 33.5658C55.6816 33.5658 55.6818 33.5648 54.199 33.7878L55.6816 33.5658C55.6782 33.5438 55.674 33.52 55.6694 33.4982ZM33.6714 53.4254C33.728 53.4992 33.7874 53.5706 33.85 53.64L33.6714 53.4254ZM32.8832 51.0414C32.8846 51.0652 32.8862 51.0892 32.8882 51.1132L34.3838 51.0008L32.884 50.9674C32.8836 50.992 32.8832 51.0168 32.8832 51.0414Z" fill="black"/>
<path fill-rule="evenodd" clip-rule="evenodd" d="M43.8478 47.4098L43.8706 47.4178L43.9428 47.4432C44.0066 47.4658 44.1016 47.499 44.2236 47.5414C44.4682 47.626 44.821 47.7472 45.2522 47.8908C46.116 48.179 47.2884 48.557 48.5292 48.9186C49.775 49.282 51.0644 49.6212 52.1692 49.8394C52.7218 49.9484 53.2048 50.0224 53.599 50.0562C53.9504 50.0864 54.162 50.0782 54.264 50.0654C55.7406 49.6212 57.3052 49.751 58.6982 50.4228C58.7468 50.446 58.7938 50.472 58.8396 50.5004C59.9296 51.1778 60.4766 52.1554 60.6224 53.1846C60.7586 54.1442 60.5408 55.0814 60.2754 55.8192C60.0044 56.5742 59.6384 57.2432 59.3518 57.7116C59.2064 57.949 59.0762 58.1434 58.9802 58.281C58.9322 58.35 58.8926 58.4052 58.8634 58.4448C58.8488 58.4648 58.8368 58.4808 58.8282 58.4928L58.8166 58.5076L58.8128 58.5128L58.8106 58.5158C58.8104 58.516 58.8102 58.5166 57.6084 57.639C58.5756 58.7596 58.5746 58.7604 58.5732 58.7614L58.571 58.7634L58.5658 58.7674L58.5544 58.7768C58.5462 58.7834 58.5366 58.7906 58.526 58.7988C58.5048 58.8156 58.4788 58.8352 58.4476 58.8576C58.3858 58.9024 58.3042 58.9582 58.2026 59.022C57.999 59.1492 57.7154 59.307 57.347 59.4682C56.6076 59.7926 55.5386 60.1266 54.1082 60.266C51.2412 60.5444 47.0192 60.0306 41.1814 57.2342C40.4374 56.8776 40.13 55.9994 40.4946 55.2724C40.8592 54.5454 41.7578 54.2448 42.5018 54.6014C47.9564 57.2144 51.6178 57.5614 53.8112 57.3482C54.9112 57.2414 55.6664 56.9916 56.1188 56.7932C56.3052 56.7116 56.4426 56.6376 56.5328 56.5842C56.598 56.4892 56.683 56.3606 56.7774 56.2064C57.0034 55.8372 57.2634 55.3534 57.445 54.848C57.6324 54.326 57.6944 53.8952 57.6508 53.587C57.6194 53.3656 57.5378 53.186 57.2918 53.015C56.5798 52.6946 55.815 52.6528 55.093 52.8844C55.043 52.9004 54.992 52.914 54.9404 52.9248C54.428 53.0322 53.8556 53.0214 53.3358 52.9768C52.792 52.93 52.1912 52.8346 51.5756 52.7132C50.343 52.4702 48.9558 52.1028 47.6714 51.7282C46.3822 51.3524 45.1706 50.9616 44.2834 50.6658C43.839 50.5176 43.4746 50.3928 43.2204 50.3046C43.0932 50.2604 42.9936 50.2254 42.9252 50.2014L42.8466 50.1736L42.8188 50.1638C42.8186 50.1638 42.818 50.1634 43.3152 48.8338L42.8188 50.1638C42.0408 49.8858 41.6396 49.0436 41.9242 48.2834C42.2086 47.5228 43.07 47.132 43.8478 47.4098ZM57.6084 57.639L58.5756 58.7596C58.663 58.6874 58.7422 58.6054 58.8106 58.5158L57.6084 57.639Z" fill="black"/>
<path fill-rule="evenodd" clip-rule="evenodd" d="M41.2902 62.286C41.583 61.5288 42.4488 61.1468 43.2236 61.4328C48.4006 63.345 51.687 63.5948 53.5906 63.434C54.5406 63.3538 55.153 63.1708 55.4944 63.036C55.666 62.968 55.7726 62.911 55.822 62.8822C55.8354 62.8746 55.8446 62.8688 55.85 62.8654C56.492 62.3894 57.409 62.494 57.9204 63.1096C58.4426 63.7384 58.3446 64.6616 57.7016 65.1718L56.7558 64.0338C57.7016 65.1718 57.6988 65.174 57.6988 65.174L57.696 65.1762L57.6906 65.1806L57.6784 65.19C57.6696 65.1968 57.66 65.2038 57.6494 65.2114C57.6284 65.227 57.6036 65.2448 57.575 65.2644C57.5176 65.3038 57.4448 65.3504 57.3554 65.4024C57.1768 65.5064 56.9338 65.6298 56.6192 65.7542C55.9884 66.0034 55.0828 66.2508 53.849 66.355C51.3846 66.5632 47.6398 66.1984 42.1634 64.1758C41.3882 63.8894 40.9974 63.0434 41.2902 62.286Z" fill="black"/>
<path fill-rule="evenodd" clip-rule="evenodd" d="M54.3154 43.778C54.646 43.0354 55.53 42.6956 56.2898 43.0186C58.6554 44.024 59.7754 45.446 60.1528 46.8488C60.3316 47.5126 60.3224 48.099 60.2666 48.5252C60.2388 48.7388 60.1986 48.9164 60.162 49.0494C60.1504 49.092 60.1392 49.1304 60.1284 49.164C59.7814 50.7676 58.6792 51.719 57.7862 52.2342C57.3274 52.4984 56.8932 52.6684 56.5742 52.7728C56.4132 52.8256 56.2768 52.8632 56.1754 52.8886C56.1246 52.9014 56.0824 52.9112 56.0496 52.9184C56.0332 52.922 56.0192 52.925 56.0078 52.9274L55.9926 52.9304L55.9862 52.9314L55.9822 52.9322C55.9816 52.9326 55.981 52.9328 55.6914 51.4944L55.9822 52.9322C55.1692 53.0888 54.379 52.5716 54.2192 51.7772C54.0596 50.9866 54.5832 50.2194 55.39 50.0582M57.2618 48.2972C57.2622 48.2954 57.2628 48.293 57.2638 48.2896C57.2696 48.268 57.2814 48.2208 57.2898 48.154C57.3076 48.0192 57.3116 47.8214 57.2506 47.594C57.1484 47.2138 56.7766 46.4228 55.0928 45.707C54.3326 45.3842 53.9848 44.5204 54.3154 43.778" fill="black"/>
</g>
</g>
<path d="M119.45 13.85C118.736 13.85 118.064 13.976 117.434 14.228C116.818 14.48 116.279 14.865 115.817 15.383C115.355 15.901 114.984 16.559 114.704 17.357C114.438 18.141 114.305 19.072 114.305 20.15C114.305 21.228 114.438 22.166 114.704 22.964C114.984 23.748 115.355 24.399 115.817 24.917C116.279 25.435 116.818 25.82 117.434 26.072C118.064 26.324 118.736 26.45 119.45 26.45C120.164 26.45 120.829 26.324 121.445 26.072C122.075 25.82 122.621 25.435 123.083 24.917C123.545 24.399 123.909 23.748 124.175 22.964C124.455 22.166 124.595 21.228 124.595 20.15C124.595 19.072 124.455 18.141 124.175 17.357C123.909 16.559 123.545 15.901 123.083 15.383C122.621 14.865 122.075 14.48 121.445 14.228C120.829 13.976 120.164 13.85 119.45 13.85ZM119.45 12.38C120.71 12.38 121.851 12.548 122.873 12.884C123.909 13.22 124.791 13.717 125.519 14.375C126.261 15.033 126.835 15.845 127.241 16.811C127.647 17.777 127.85 18.89 127.85 20.15C127.85 21.41 127.647 22.523 127.241 23.489C126.835 24.455 126.261 25.267 125.519 25.925C124.791 26.583 123.909 27.08 122.873 27.416C121.851 27.752 120.71 27.92 119.45 27.92C118.19 27.92 117.042 27.752 116.006 27.416C114.97 27.08 114.081 26.583 113.339 25.925C112.611 25.267 112.044 24.455 111.638 23.489C111.246 22.523 111.05 21.41 111.05 20.15C111.05 18.89 111.246 17.777 111.638 16.811C112.044 15.845 112.611 15.033 113.339 14.375C114.081 13.717 114.97 13.22 116.006 12.884C117.042 12.548 118.19 12.38 119.45 12.38ZM134.473 18.89C134.053 18.89 133.654 18.974 133.276 19.142C132.898 19.296 132.562 19.534 132.268 19.856C131.974 20.164 131.743 20.556 131.575 21.032C131.407 21.494 131.323 22.04 131.323 22.67C131.323 23.328 131.407 23.902 131.575 24.392C131.743 24.868 131.974 25.267 132.268 25.589C132.562 25.911 132.898 26.156 133.276 26.324C133.654 26.478 134.053 26.555 134.473 26.555C134.893 26.555 135.292 26.478 135.67 26.324C136.048 26.156 136.384 25.911 136.678 25.589C136.972 25.267 137.203 24.868 137.371 24.392C137.539 23.902 137.623 23.328 137.623 22.67C137.623 22.04 137.539 21.494 137.371 21.032C137.203 20.556 136.972 20.164 136.678 19.856C136.384 19.534 136.048 19.296 135.67 19.142C135.292 18.974 134.893 18.89 134.473 18.89ZM134.683 17.42C135.551 17.42 136.356 17.546 137.098 17.798C137.84 18.05 138.484 18.407 139.03 18.869C139.576 19.331 140.003 19.884 140.311 20.528C140.619 21.172 140.773 21.886 140.773 22.67C140.773 23.454 140.612 24.168 140.29 24.812C139.982 25.456 139.548 26.009 138.988 26.471C138.442 26.933 137.784 27.29 137.014 27.542C136.244 27.794 135.397 27.92 134.473 27.92C133.549 27.92 132.702 27.787 131.932 27.521C131.162 27.269 130.497 26.905 129.937 26.429C129.391 25.939 128.957 25.344 128.635 24.644C128.327 23.944 128.173 23.146 128.173 22.25V19.835C128.173 17.637 128.698 15.978 129.748 14.858C130.798 13.738 132.268 13.087 134.158 12.905L139.618 12.38V14.795L134.368 15.32C131.428 15.614 129.958 17.119 129.958 19.835H130.168C130.588 19.037 131.169 18.435 131.911 18.029C132.653 17.623 133.577 17.42 134.683 17.42ZM141.292 27.5V16.58H144.232V26.03H148.012V16.58H150.952V26.03H154.732V16.58H157.672V26.03H159.457V30.65H157.042L156.622 27.5H141.292ZM165.866 26.45C166.552 26.45 167.189 26.331 167.777 26.093C168.379 25.855 168.967 25.519 169.541 25.085L170.381 26.345C170.115 26.583 169.8 26.8 169.436 26.996C169.086 27.192 168.701 27.36 168.281 27.5C167.875 27.626 167.448 27.724 167 27.794C166.552 27.878 166.104 27.92 165.656 27.92C164.662 27.92 163.752 27.787 162.926 27.521C162.114 27.269 161.421 26.898 160.847 26.408C160.273 25.904 159.825 25.288 159.503 24.56C159.195 23.832 159.041 22.992 159.041 22.04C159.041 21.102 159.188 20.269 159.482 19.541C159.79 18.799 160.21 18.183 160.742 17.693C161.288 17.189 161.932 16.811 162.674 16.559C163.416 16.293 164.235 16.16 165.131 16.16C165.971 16.16 166.762 16.286 167.504 16.538C168.246 16.79 168.89 17.161 169.436 17.651C169.982 18.127 170.416 18.708 170.738 19.394C171.06 20.08 171.221 20.857 171.221 21.725V23.195H162.254C162.422 24.357 162.821 25.19 163.451 25.694C164.095 26.198 164.9 26.45 165.866 26.45ZM165.131 17.525C164.725 17.525 164.347 17.602 163.997 17.756C163.647 17.91 163.339 18.155 163.073 18.491C162.821 18.827 162.611 19.261 162.443 19.793C162.289 20.325 162.205 20.969 162.191 21.725H168.071C168.071 20.997 167.987 20.367 167.819 19.835C167.651 19.303 167.427 18.869 167.147 18.533C166.881 18.183 166.566 17.931 166.202 17.777C165.852 17.609 165.495 17.525 165.131 17.525ZM177.834 16.16C178.282 16.16 178.73 16.202 179.178 16.286C179.626 16.356 180.053 16.461 180.459 16.601C180.879 16.727 181.264 16.888 181.614 17.084C181.978 17.28 182.293 17.497 182.559 17.735L181.719 18.995C181.145 18.561 180.557 18.225 179.955 17.987C179.367 17.749 178.73 17.63 178.044 17.63C177.54 17.63 177.078 17.714 176.658 17.882C176.238 18.036 175.874 18.295 175.566 18.659C175.258 19.009 175.013 19.464 174.831 20.024C174.663 20.584 174.579 21.256 174.579 22.04C174.579 22.824 174.663 23.496 174.831 24.056C175.013 24.616 175.265 25.078 175.587 25.442C175.909 25.792 176.294 26.051 176.742 26.219C177.204 26.373 177.708 26.45 178.254 26.45C178.94 26.45 179.577 26.331 180.165 26.093C180.767 25.855 181.355 25.519 181.929 25.085L182.769 26.345C182.503 26.583 182.188 26.8 181.824 26.996C181.474 27.192 181.089 27.36 180.669 27.5C180.263 27.626 179.836 27.724 179.388 27.794C178.94 27.878 178.492 27.92 178.044 27.92C177.05 27.92 176.14 27.787 175.314 27.521C174.502 27.269 173.809 26.898 173.235 26.408C172.661 25.904 172.213 25.288 171.891 24.56C171.583 23.832 171.429 22.992 171.429 22.04C171.429 21.102 171.583 20.269 171.891 19.541C172.213 18.799 172.654 18.183 173.214 17.693C173.774 17.189 174.446 16.811 175.23 16.559C176.014 16.293 176.882 16.16 177.834 16.16ZM193.386 18.05H188.976V27.5H186.036V18.05H181.626V16.58H193.386V18.05ZM204.098 19.625C204.098 20.157 203.902 20.612 203.51 20.99C203.132 21.368 202.523 21.613 201.683 21.725C202.691 21.879 203.447 22.201 203.951 22.691C204.469 23.167 204.728 23.72 204.728 24.35C204.728 24.798 204.623 25.218 204.413 25.61C204.217 25.988 203.909 26.317 203.489 26.597C203.069 26.877 202.537 27.101 201.893 27.269C201.249 27.423 200.479 27.5 199.583 27.5H193.388V16.58H198.953C199.849 16.58 200.619 16.664 201.263 16.832C201.907 16.986 202.439 17.203 202.859 17.483C203.279 17.749 203.587 18.071 203.783 18.449C203.993 18.813 204.098 19.205 204.098 19.625ZM199.583 26.03C200.213 26.03 200.703 25.869 201.053 25.547C201.403 25.225 201.578 24.826 201.578 24.35C201.578 23.874 201.403 23.475 201.053 23.153C200.703 22.831 200.213 22.67 199.583 22.67H196.328V26.03H199.583ZM198.953 21.2C199.583 21.2 200.073 21.046 200.423 20.738C200.773 20.416 200.948 20.045 200.948 19.625C200.948 19.205 200.773 18.841 200.423 18.533C200.073 18.211 199.583 18.05 198.953 18.05H196.328V21.2H198.953ZM211.246 26.555C211.694 26.555 212.114 26.471 212.506 26.303C212.898 26.135 213.241 25.876 213.535 25.526C213.829 25.162 214.06 24.693 214.228 24.119C214.41 23.545 214.501 22.852 214.501 22.04C214.501 21.228 214.41 20.535 214.228 19.961C214.06 19.387 213.829 18.925 213.535 18.575C213.241 18.211 212.898 17.945 212.506 17.777C212.114 17.609 211.694 17.525 211.246 17.525C210.798 17.525 210.378 17.609 209.986 17.777C209.594 17.945 209.251 18.211 208.957 18.575C208.663 18.925 208.425 19.387 208.243 19.961C208.075 20.535 207.991 21.228 207.991 22.04C207.991 22.852 208.075 23.545 208.243 24.119C208.425 24.693 208.663 25.162 208.957 25.526C209.251 25.876 209.594 26.135 209.986 26.303C210.378 26.471 210.798 26.555 211.246 26.555ZM211.246 16.16C212.184 16.16 213.045 16.293 213.829 16.559C214.627 16.811 215.306 17.189 215.866 17.693C216.426 18.183 216.86 18.799 217.168 19.541C217.49 20.269 217.651 21.102 217.651 22.04C217.651 22.992 217.49 23.832 217.168 24.56C216.86 25.288 216.426 25.904 215.866 26.408C215.306 26.898 214.627 27.269 213.829 27.521C213.045 27.787 212.184 27.92 211.246 27.92C210.294 27.92 209.426 27.787 208.642 27.521C207.858 27.269 207.186 26.898 206.626 26.408C206.066 25.904 205.625 25.288 205.303 24.56C204.995 23.832 204.841 22.992 204.841 22.04C204.841 21.102 204.995 20.269 205.303 19.541C205.625 18.799 206.066 18.183 206.626 17.693C207.186 17.189 207.858 16.811 208.642 16.559C209.426 16.293 210.294 16.16 211.246 16.16ZM229.932 16.16C230.38 16.16 230.828 16.202 231.276 16.286C231.724 16.356 232.151 16.461 232.557 16.601C232.977 16.727 233.362 16.888 233.712 17.084C234.076 17.28 234.391 17.497 234.657 17.735L233.817 18.995C233.243 18.561 232.655 18.225 232.053 17.987C231.465 17.749 230.828 17.63 230.142 17.63C229.638 17.63 229.176 17.714 228.756 17.882C228.336 18.036 227.972 18.295 227.664 18.659C227.356 19.009 227.111 19.464 226.929 20.024C226.761 20.584 226.677 21.256 226.677 22.04C226.677 22.824 226.761 23.496 226.929 24.056C227.111 24.616 227.363 25.078 227.685 25.442C228.007 25.792 228.392 26.051 228.84 26.219C229.302 26.373 229.806 26.45 230.352 26.45C231.038 26.45 231.675 26.331 232.263 26.093C232.865 25.855 233.453 25.519 234.027 25.085L234.867 26.345C234.601 26.583 234.286 26.8 233.922 26.996C233.572 27.192 233.187 27.36 232.767 27.5C232.361 27.626 231.934 27.724 231.486 27.794C231.038 27.878 230.59 27.92 230.142 27.92C229.148 27.92 228.238 27.787 227.412 27.521C226.6 27.269 225.907 26.898 225.333 26.408C224.759 25.904 224.311 25.288 223.989 24.56C223.681 23.832 223.527 22.992 223.527 22.04C223.527 21.102 223.681 20.269 223.989 19.541C224.311 18.799 224.752 18.183 225.312 17.693C225.872 17.189 226.544 16.811 227.328 16.559C228.112 16.293 228.98 16.16 229.932 16.16ZM246.936 26.555C247.384 26.555 247.804 26.471 248.196 26.303C248.588 26.135 248.931 25.876 249.225 25.526C249.519 25.162 249.75 24.693 249.918 24.119C250.1 23.545 250.191 22.852 250.191 22.04C250.191 21.228 250.1 20.535 249.918 19.961C249.75 19.387 249.519 18.925 249.225 18.575C248.931 18.211 248.588 17.945 248.196 17.777C247.804 17.609 247.384 17.525 246.936 17.525C246.488 17.525 246.068 17.609 245.676 17.777C245.284 17.945 244.941 18.211 244.647 18.575C244.353 18.925 244.115 19.387 243.933 19.961C243.765 20.535 243.681 21.228 243.681 22.04C243.681 22.852 243.765 23.545 243.933 24.119C244.115 24.693 244.353 25.162 244.647 25.526C244.941 25.876 245.284 26.135 245.676 26.303C246.068 26.471 246.488 26.555 246.936 26.555ZM246.936 16.16C247.874 16.16 248.735 16.293 249.519 16.559C250.317 16.811 250.996 17.189 251.556 17.693C252.116 18.183 252.55 18.799 252.858 19.541C253.18 20.269 253.341 21.102 253.341 22.04C253.341 22.992 253.18 23.832 252.858 24.56C252.55 25.288 252.116 25.904 251.556 26.408C250.996 26.898 250.317 27.269 249.519 27.521C248.735 27.787 247.874 27.92 246.936 27.92C245.984 27.92 245.116 27.787 244.332 27.521C243.548 27.269 242.876 26.898 242.316 26.408C241.756 25.904 241.315 25.288 240.993 24.56C240.685 23.832 240.531 22.992 240.531 22.04C240.531 21.102 240.685 20.269 240.993 19.541C241.315 18.799 241.756 18.183 242.316 17.693C242.876 17.189 243.548 16.811 244.332 16.559C245.116 16.293 245.984 16.16 246.936 16.16ZM262.901 18.05H257.021V27.5H254.081V16.58H262.901V18.05ZM265.841 18.05V26.03H268.466C268.942 26.03 269.376 25.96 269.768 25.82C270.174 25.666 270.517 25.428 270.797 25.106C271.091 24.784 271.315 24.371 271.469 23.867C271.637 23.363 271.721 22.754 271.721 22.04C271.721 21.326 271.637 20.717 271.469 20.213C271.315 19.709 271.091 19.296 270.797 18.974C270.517 18.652 270.174 18.421 269.768 18.281C269.376 18.127 268.942 18.05 268.466 18.05H265.841ZM268.466 16.58C269.432 16.58 270.307 16.706 271.091 16.958C271.889 17.21 272.568 17.574 273.128 18.05C273.688 18.526 274.115 19.1 274.409 19.772C274.717 20.444 274.871 21.2 274.871 22.04C274.871 22.88 274.717 23.636 274.409 24.308C274.115 24.98 273.688 25.554 273.128 26.03C272.568 26.506 271.889 26.87 271.091 27.122C270.307 27.374 269.432 27.5 268.466 27.5H265.841V31.28H262.901V16.58H268.466ZM278.011 24.035C278.011 25.365 278.816 26.03 280.426 26.03H283.366V22.04H280.426C278.816 22.04 278.011 22.705 278.011 24.035ZM283.366 20.57C283.366 19.562 283.1 18.82 282.568 18.344C282.05 17.868 281.371 17.63 280.531 17.63C279.901 17.63 279.285 17.728 278.683 17.924C278.081 18.106 277.542 18.358 277.066 18.68L276.331 17.42C276.639 17.21 276.975 17.028 277.339 16.874C277.717 16.72 278.102 16.594 278.494 16.496C278.886 16.384 279.271 16.3 279.649 16.244C280.041 16.188 280.405 16.16 280.741 16.16C281.637 16.16 282.428 16.265 283.114 16.475C283.8 16.685 284.381 16.986 284.857 17.378C285.333 17.77 285.69 18.239 285.928 18.785C286.18 19.317 286.306 19.912 286.306 20.57V27.5H280.426C278.522 27.5 277.115 27.213 276.205 26.639C275.309 26.065 274.861 25.197 274.861 24.035C274.861 22.873 275.309 22.005 276.205 21.431C277.115 20.857 278.522 20.57 280.426 20.57H283.366ZM299.002 16.58V27.5H296.062V22.67H290.392V27.5H287.452V16.58H290.392V21.2H296.062V16.58H299.002ZM312.031 16.58V27.5H309.091V19.31H308.881L304.051 27.5H300.271V16.58H303.211V24.77H303.421L308.251 16.58H312.031ZM312.98 16.58H315.92V20.36C315.92 21.046 316.116 21.571 316.508 21.935C316.9 22.285 317.544 22.46 318.44 22.46H321.17V16.58H324.11V27.5H321.17V23.93H318.44C317.474 23.93 316.641 23.846 315.941 23.678C315.255 23.51 314.688 23.272 314.24 22.964C313.806 22.656 313.484 22.285 313.274 21.851C313.078 21.403 312.98 20.906 312.98 20.36V16.58ZM331.676 26.45C332.362 26.45 332.999 26.331 333.587 26.093C334.189 25.855 334.777 25.519 335.351 25.085L336.191 26.345C335.925 26.583 335.61 26.8 335.246 26.996C334.896 27.192 334.511 27.36 334.091 27.5C333.685 27.626 333.258 27.724 332.81 27.794C332.362 27.878 331.914 27.92 331.466 27.92C330.472 27.92 329.562 27.787 328.736 27.521C327.924 27.269 327.231 26.898 326.657 26.408C326.083 25.904 325.635 25.288 325.313 24.56C325.005 23.832 324.851 22.992 324.851 22.04C324.851 21.102 324.998 20.269 325.292 19.541C325.6 18.799 326.02 18.183 326.552 17.693C327.098 17.189 327.742 16.811 328.484 16.559C329.226 16.293 330.045 16.16 330.941 16.16C331.781 16.16 332.572 16.286 333.314 16.538C334.056 16.79 334.7 17.161 335.246 17.651C335.792 18.127 336.226 18.708 336.548 19.394C336.87 20.08 337.031 20.857 337.031 21.725V23.195H328.064C328.232 24.357 328.631 25.19 329.261 25.694C329.905 26.198 330.71 26.45 331.676 26.45ZM330.941 17.525C330.535 17.525 330.157 17.602 329.807 17.756C329.457 17.91 329.149 18.155 328.883 18.491C328.631 18.827 328.421 19.261 328.253 19.793C328.099 20.325 328.015 20.969 328.001 21.725H333.881C333.881 20.997 333.797 20.367 333.629 19.835C333.461 19.303 333.237 18.869 332.957 18.533C332.691 18.183 332.376 17.931 332.012 17.777C331.662 17.609 331.305 17.525 330.941 17.525ZM349.314 16.58V27.5H346.374V22.67H340.704V27.5H337.764V16.58H340.704V21.2H346.374V16.58H349.314ZM362.133 16.58V27.5H359.193V22.67H353.523V27.5H350.583V16.58H353.523V21.2H359.193V16.58H362.133ZM369.282 26.555C369.73 26.555 370.15 26.471 370.542 26.303C370.934 26.135 371.277 25.876 371.571 25.526C371.865 25.162 372.096 24.693 372.264 24.119C372.446 23.545 372.537 22.852 372.537 22.04C372.537 21.228 372.446 20.535 372.264 19.961C372.096 19.387 371.865 18.925 371.571 18.575C371.277 18.211 370.934 17.945 370.542 17.777C370.15 17.609 369.73 17.525 369.282 17.525C368.834 17.525 368.414 17.609 368.022 17.777C367.63 17.945 367.287 18.211 366.993 18.575C366.699 18.925 366.461 19.387 366.279 19.961C366.111 20.535 366.027 21.228 366.027 22.04C366.027 22.852 366.111 23.545 366.279 24.119C366.461 24.693 366.699 25.162 366.993 25.526C367.287 25.876 367.63 26.135 368.022 26.303C368.414 26.471 368.834 26.555 369.282 26.555ZM369.282 16.16C370.22 16.16 371.081 16.293 371.865 16.559C372.663 16.811 373.342 17.189 373.902 17.693C374.462 18.183 374.896 18.799 375.204 19.541C375.526 20.269 375.687 21.102 375.687 22.04C375.687 22.992 375.526 23.832 375.204 24.56C374.896 25.288 374.462 25.904 373.902 26.408C373.342 26.898 372.663 27.269 371.865 27.521C371.081 27.787 370.22 27.92 369.282 27.92C368.33 27.92 367.462 27.787 366.678 27.521C365.894 27.269 365.222 26.898 364.662 26.408C364.102 25.904 363.661 25.288 363.339 24.56C363.031 23.832 362.877 22.992 362.877 22.04C362.877 21.102 363.031 20.269 363.339 19.541C363.661 18.799 364.102 18.183 364.662 17.693C365.222 17.189 365.894 16.811 366.678 16.559C367.462 16.293 368.33 16.16 369.282 16.16ZM382.096 15.32C380.78 15.32 379.786 15.019 379.114 14.417C378.442 13.801 378.106 13.017 378.106 12.065H380.521C380.521 12.597 380.675 13.031 380.983 13.367C381.305 13.689 381.676 13.85 382.096 13.85C382.516 13.85 382.88 13.689 383.188 13.367C383.51 13.031 383.671 12.597 383.671 12.065H386.086C386.086 13.017 385.75 13.801 385.078 14.417C384.406 15.019 383.412 15.32 382.096 15.32ZM388.186 16.58V27.5H385.246V19.31H385.036L380.206 27.5H376.426V16.58H379.366V24.77H379.576L384.406 16.58H388.186ZM400.992 26.555C401.44 26.555 401.86 26.471 402.252 26.303C402.644 26.135 402.987 25.876 403.281 25.526C403.575 25.162 403.806 24.693 403.974 24.119C404.156 23.545 404.247 22.852 404.247 22.04C404.247 21.228 404.156 20.535 403.974 19.961C403.806 19.387 403.575 18.925 403.281 18.575C402.987 18.211 402.644 17.945 402.252 17.777C401.86 17.609 401.44 17.525 400.992 17.525C400.544 17.525 400.124 17.609 399.732 17.777C399.34 17.945 398.997 18.211 398.703 18.575C398.409 18.925 398.171 19.387 397.989 19.961C397.821 20.535 397.737 21.228 397.737 22.04C397.737 22.852 397.821 23.545 397.989 24.119C398.171 24.693 398.409 25.162 398.703 25.526C398.997 25.876 399.34 26.135 399.732 26.303C400.124 26.471 400.544 26.555 400.992 26.555ZM400.992 16.16C401.93 16.16 402.791 16.293 403.575 16.559C404.373 16.811 405.052 17.189 405.612 17.693C406.172 18.183 406.606 18.799 406.914 19.541C407.236 20.269 407.397 21.102 407.397 22.04C407.397 22.992 407.236 23.832 406.914 24.56C406.606 25.288 406.172 25.904 405.612 26.408C405.052 26.898 404.373 27.269 403.575 27.521C402.791 27.787 401.93 27.92 400.992 27.92C400.04 27.92 399.172 27.787 398.388 27.521C397.604 27.269 396.932 26.898 396.372 26.408C395.812 25.904 395.371 25.288 395.049 24.56C394.741 23.832 394.587 22.992 394.587 22.04C394.587 21.102 394.741 20.269 395.049 19.541C395.371 18.799 395.812 18.183 396.372 17.693C396.932 17.189 397.604 16.811 398.388 16.559C399.172 16.293 400.04 16.16 400.992 16.16ZM418 18.05H413.59V27.5H410.65V18.05H406.24V16.58H418V18.05ZM428.712 19.625C428.712 20.157 428.516 20.612 428.124 20.99C427.746 21.368 427.137 21.613 426.297 21.725C427.305 21.879 428.061 22.201 428.565 22.691C429.083 23.167 429.342 23.72 429.342 24.35C429.342 24.798 429.237 25.218 429.027 25.61C428.831 25.988 428.523 26.317 428.103 26.597C427.683 26.877 427.151 27.101 426.507 27.269C425.863 27.423 425.093 27.5 424.197 27.5H418.002V16.58H423.567C424.463 16.58 425.233 16.664 425.877 16.832C426.521 16.986 427.053 17.203 427.473 17.483C427.893 17.749 428.201 18.071 428.397 18.449C428.607 18.813 428.712 19.205 428.712 19.625ZM424.197 26.03C424.827 26.03 425.317 25.869 425.667 25.547C426.017 25.225 426.192 24.826 426.192 24.35C426.192 23.874 426.017 23.475 425.667 23.153C425.317 22.831 424.827 22.67 424.197 22.67H420.942V26.03H424.197ZM423.567 21.2C424.197 21.2 424.687 21.046 425.037 20.738C425.387 20.416 425.562 20.045 425.562 19.625C425.562 19.205 425.387 18.841 425.037 18.533C424.687 18.211 424.197 18.05 423.567 18.05H420.942V21.2H423.567ZM436.28 26.45C436.966 26.45 437.603 26.331 438.191 26.093C438.793 25.855 439.381 25.519 439.955 25.085L440.795 26.345C440.529 26.583 440.214 26.8 439.85 26.996C439.5 27.192 439.115 27.36 438.695 27.5C438.289 27.626 437.862 27.724 437.414 27.794C436.966 27.878 436.518 27.92 436.07 27.92C435.076 27.92 434.166 27.787 433.34 27.521C432.528 27.269 431.835 26.898 431.261 26.408C430.687 25.904 430.239 25.288 429.917 24.56C429.609 23.832 429.455 22.992 429.455 22.04C429.455 21.102 429.602 20.269 429.896 19.541C430.204 18.799 430.624 18.183 431.156 17.693C431.702 17.189 432.346 16.811 433.088 16.559C433.83 16.293 434.649 16.16 435.545 16.16C436.385 16.16 437.176 16.286 437.918 16.538C438.66 16.79 439.304 17.161 439.85 17.651C440.396 18.127 440.83 18.708 441.152 19.394C441.474 20.08 441.635 20.857 441.635 21.725V23.195H432.668C432.836 24.357 433.235 25.19 433.865 25.694C434.509 26.198 435.314 26.45 436.28 26.45ZM435.545 17.525C435.139 17.525 434.761 17.602 434.411 17.756C434.061 17.91 433.753 18.155 433.487 18.491C433.235 18.827 433.025 19.261 432.857 19.793C432.703 20.325 432.619 20.969 432.605 21.725H438.485C438.485 20.997 438.401 20.367 438.233 19.835C438.065 19.303 437.841 18.869 437.561 18.533C437.295 18.183 436.98 17.931 436.616 17.777C436.266 17.609 435.909 17.525 435.545 17.525ZM452.028 18.05H447.618V27.5H444.678V18.05H440.268V16.58H452.028V18.05ZM457.274 16.16C457.722 16.16 458.17 16.202 458.618 16.286C459.066 16.356 459.493 16.461 459.899 16.601C460.319 16.727 460.704 16.888 461.054 17.084C461.418 17.28 461.733 17.497 461.999 17.735L461.159 18.995C460.585 18.561 459.997 18.225 459.395 17.987C458.807 17.749 458.17 17.63 457.484 17.63C456.98 17.63 456.518 17.714 456.098 17.882C455.678 18.036 455.314 18.295 455.006 18.659C454.698 19.009 454.453 19.464 454.271 20.024C454.103 20.584 454.019 21.256 454.019 22.04C454.019 22.824 454.103 23.496 454.271 24.056C454.453 24.616 454.705 25.078 455.027 25.442C455.349 25.792 455.734 26.051 456.182 26.219C456.644 26.373 457.148 26.45 457.694 26.45C458.38 26.45 459.017 26.331 459.605 26.093C460.207 25.855 460.795 25.519 461.369 25.085L462.209 26.345C461.943 26.583 461.628 26.8 461.264 26.996C460.914 27.192 460.529 27.36 460.109 27.5C459.703 27.626 459.276 27.724 458.828 27.794C458.38 27.878 457.932 27.92 457.484 27.92C456.49 27.92 455.58 27.787 454.754 27.521C453.942 27.269 453.249 26.898 452.675 26.408C452.101 25.904 451.653 25.288 451.331 24.56C451.023 23.832 450.869 22.992 450.869 22.04C450.869 21.102 451.023 20.269 451.331 19.541C451.653 18.799 452.094 18.183 452.654 17.693C453.214 17.189 453.886 16.811 454.67 16.559C455.454 16.293 456.322 16.16 457.274 16.16ZM472.826 18.05H468.416V27.5H465.476V18.05H461.066V16.58H472.826V18.05ZM483.538 19.625C483.538 20.157 483.342 20.612 482.95 20.99C482.572 21.368 481.963 21.613 481.123 21.725C482.131 21.879 482.887 22.201 483.391 22.691C483.909 23.167 484.168 23.72 484.168 24.35C484.168 24.798 484.063 25.218 483.853 25.61C483.657 25.988 483.349 26.317 482.929 26.597C482.509 26.877 481.977 27.101 481.333 27.269C480.689 27.423 479.919 27.5 479.023 27.5H472.828V16.58H478.393C479.289 16.58 480.059 16.664 480.703 16.832C481.347 16.986 481.879 17.203 482.299 17.483C482.719 17.749 483.027 18.071 483.223 18.449C483.433 18.813 483.538 19.205 483.538 19.625ZM479.023 26.03C479.653 26.03 480.143 25.869 480.493 25.547C480.843 25.225 481.018 24.826 481.018 24.35C481.018 23.874 480.843 23.475 480.493 23.153C480.143 22.831 479.653 22.67 479.023 22.67H475.768V26.03H479.023ZM478.393 21.2C479.023 21.2 479.513 21.046 479.863 20.738C480.213 20.416 480.388 20.045 480.388 19.625C480.388 19.205 480.213 18.841 479.863 18.533C479.513 18.211 479.023 18.05 478.393 18.05H475.768V21.2H478.393ZM491.106 26.45C491.792 26.45 492.429 26.331 493.017 26.093C493.619 25.855 494.207 25.519 494.781 25.085L495.621 26.345C495.355 26.583 495.04 26.8 494.676 26.996C494.326 27.192 493.941 27.36 493.521 27.5C493.115 27.626 492.688 27.724 492.24 27.794C491.792 27.878 491.344 27.92 490.896 27.92C489.902 27.92 488.992 27.787 488.166 27.521C487.354 27.269 486.661 26.898 486.087 26.408C485.513 25.904 485.065 25.288 484.743 24.56C484.435 23.832 484.281 22.992 484.281 22.04C484.281 21.102 484.428 20.269 484.722 19.541C485.03 18.799 485.45 18.183 485.982 17.693C486.528 17.189 487.172 16.811 487.914 16.559C488.656 16.293 489.475 16.16 490.371 16.16C491.211 16.16 492.002 16.286 492.744 16.538C493.486 16.79 494.13 17.161 494.676 17.651C495.222 18.127 495.656 18.708 495.978 19.394C496.3 20.08 496.461 20.857 496.461 21.725V23.195H487.494C487.662 24.357 488.061 25.19 488.691 25.694C489.335 26.198 490.14 26.45 491.106 26.45ZM490.371 17.525C489.965 17.525 489.587 17.602 489.237 17.756C488.887 17.91 488.579 18.155 488.313 18.491C488.061 18.827 487.851 19.261 487.683 19.793C487.529 20.325 487.445 20.969 487.431 21.725H493.311C493.311 20.997 493.227 20.367 493.059 19.835C492.891 19.303 492.667 18.869 492.387 18.533C492.121 18.183 491.806 17.931 491.442 17.777C491.092 17.609 490.735 17.525 490.371 17.525ZM508.744 16.58V27.5H505.804V22.67H500.134V27.5H497.194V16.58H500.134V21.2H505.804V16.58H508.744ZM521.563 16.58V27.5H518.623V22.67H512.953V27.5H510.013V16.58H512.953V21.2H518.623V16.58H521.563ZM528.712 26.555C529.16 26.555 529.58 26.471 529.972 26.303C530.364 26.135 530.707 25.876 531.001 25.526C531.295 25.162 531.526 24.693 531.694 24.119C531.876 23.545 531.967 22.852 531.967 22.04C531.967 21.228 531.876 20.535 531.694 19.961C531.526 19.387 531.295 18.925 531.001 18.575C530.707 18.211 530.364 17.945 529.972 17.777C529.58 17.609 529.16 17.525 528.712 17.525C528.264 17.525 527.844 17.609 527.452 17.777C527.06 17.945 526.717 18.211 526.423 18.575C526.129 18.925 525.891 19.387 525.709 19.961C525.541 20.535 525.457 21.228 525.457 22.04C525.457 22.852 525.541 23.545 525.709 24.119C525.891 24.693 526.129 25.162 526.423 25.526C526.717 25.876 527.06 26.135 527.452 26.303C527.844 26.471 528.264 26.555 528.712 26.555ZM528.712 16.16C529.65 16.16 530.511 16.293 531.295 16.559C532.093 16.811 532.772 17.189 533.332 17.693C533.892 18.183 534.326 18.799 534.634 19.541C534.956 20.269 535.117 21.102 535.117 22.04C535.117 22.992 534.956 23.832 534.634 24.56C534.326 25.288 533.892 25.904 533.332 26.408C532.772 26.898 532.093 27.269 531.295 27.521C530.511 27.787 529.65 27.92 528.712 27.92C527.76 27.92 526.892 27.787 526.108 27.521C525.324 27.269 524.652 26.898 524.092 26.408C523.532 25.904 523.091 25.288 522.769 24.56C522.461 23.832 522.307 22.992 522.307 22.04C522.307 21.102 522.461 20.269 522.769 19.541C523.091 18.799 523.532 18.183 524.092 17.693C524.652 17.189 525.324 16.811 526.108 16.559C526.892 16.293 527.76 16.16 528.712 16.16ZM541.736 16.16C542.184 16.16 542.632 16.202 543.08 16.286C543.528 16.356 543.955 16.461 544.361 16.601C544.781 16.727 545.166 16.888 545.516 17.084C545.88 17.28 546.195 17.497 546.461 17.735L545.621 18.995C545.047 18.561 544.459 18.225 543.857 17.987C543.269 17.749 542.632 17.63 541.946 17.63C541.442 17.63 540.98 17.714 540.56 17.882C540.14 18.036 539.776 18.295 539.468 18.659C539.16 19.009 538.915 19.464 538.733 20.024C538.565 20.584 538.481 21.256 538.481 22.04C538.481 22.824 538.565 23.496 538.733 24.056C538.915 24.616 539.167 25.078 539.489 25.442C539.811 25.792 540.196 26.051 540.644 26.219C541.106 26.373 541.61 26.45 542.156 26.45C542.842 26.45 543.479 26.331 544.067 26.093C544.669 25.855 545.257 25.519 545.831 25.085L546.671 26.345C546.405 26.583 546.09 26.8 545.726 26.996C545.376 27.192 544.991 27.36 544.571 27.5C544.165 27.626 543.738 27.724 543.29 27.794C542.842 27.878 542.394 27.92 541.946 27.92C540.952 27.92 540.042 27.787 539.216 27.521C538.404 27.269 537.711 26.898 537.137 26.408C536.563 25.904 536.115 25.288 535.793 24.56C535.485 23.832 535.331 22.992 535.331 22.04C535.331 21.102 535.485 20.269 535.793 19.541C536.115 18.799 536.556 18.183 537.116 17.693C537.676 17.189 538.348 16.811 539.132 16.559C539.916 16.293 540.784 16.16 541.736 16.16ZM557.289 18.05H552.879V27.5H549.939V18.05H545.529V16.58H557.289V18.05ZM563.38 20.36C565.172 20.36 566.474 20.682 567.286 21.326C568.112 21.956 568.525 22.824 568.525 23.93C568.525 25.036 568.112 25.911 567.286 26.555C566.474 27.185 565.172 27.5 563.38 27.5H557.29V16.58H560.23V20.36H563.38ZM560.23 21.83V26.03H563.38C564.01 26.03 564.5 25.855 564.85 25.505C565.2 25.141 565.375 24.616 565.375 23.93C565.375 23.244 565.2 22.726 564.85 22.376C564.5 22.012 564.01 21.83 563.38 21.83H560.23ZM580.068 16.16C580.936 16.16 581.741 16.293 582.483 16.559C583.225 16.811 583.869 17.189 584.415 17.693C584.961 18.183 585.388 18.799 585.696 19.541C586.004 20.269 586.158 21.102 586.158 22.04C586.158 22.992 586.004 23.832 585.696 24.56C585.388 25.288 584.961 25.904 584.415 26.408C583.869 26.898 583.225 27.269 582.483 27.521C581.741 27.787 580.936 27.92 580.068 27.92C579.242 27.92 578.472 27.801 577.758 27.563C577.058 27.339 576.442 27.01 575.91 26.576C575.378 26.128 574.944 25.575 574.608 24.917C574.272 24.259 574.069 23.51 573.999 22.67H571.983V27.5H569.043V16.58H571.983V21.2H574.02C574.104 20.388 574.314 19.674 574.65 19.058C575 18.428 575.441 17.903 575.973 17.483C576.505 17.049 577.121 16.72 577.821 16.496C578.521 16.272 579.27 16.16 580.068 16.16ZM580.068 26.555C580.432 26.555 580.789 26.471 581.139 26.303C581.503 26.135 581.818 25.876 582.084 25.526C582.364 25.162 582.588 24.693 582.756 24.119C582.924 23.545 583.008 22.852 583.008 22.04C583.008 21.228 582.924 20.535 582.756 19.961C582.588 19.387 582.364 18.925 582.084 18.575C581.818 18.211 581.503 17.945 581.139 17.777C580.789 17.609 580.432 17.525 580.068 17.525C579.704 17.525 579.34 17.609 578.976 17.777C578.626 17.945 578.311 18.211 578.031 18.575C577.765 18.925 577.548 19.387 577.38 19.961C577.212 20.535 577.128 21.228 577.128 22.04C577.128 22.852 577.212 23.545 577.38 24.119C577.548 24.693 577.765 25.162 578.031 25.526C578.311 25.876 578.626 26.135 578.976 26.303C579.34 26.471 579.704 26.555 580.068 26.555Z" fill="black"/>
<path d="M134.96 61.46L147.68 78.5H139.76L128.72 63.62H120.32V78.5H113.36V44.9H120.32V60.02H128.24L139.28 44.9H146.96L134.96 61.46ZM159.194 76.34C160.218 76.34 161.178 76.148 162.074 75.764C162.97 75.38 163.754 74.788 164.426 73.988C165.098 73.156 165.626 72.084 166.01 70.772C166.426 69.46 166.634 67.876 166.634 66.02C166.634 64.164 166.426 62.58 166.01 61.268C165.626 59.956 165.098 58.9 164.426 58.1C163.754 57.268 162.97 56.66 162.074 56.276C161.178 55.892 160.218 55.7 159.194 55.7C158.17 55.7 157.21 55.892 156.314 56.276C155.418 56.66 154.634 57.268 153.962 58.1C153.29 58.9 152.746 59.956 152.33 61.268C151.946 62.58 151.754 64.164 151.754 66.02C151.754 67.876 151.946 69.46 152.33 70.772C152.746 72.084 153.29 73.156 153.962 73.988C154.634 74.788 155.418 75.38 156.314 75.764C157.21 76.148 158.17 76.34 159.194 76.34ZM159.194 52.58C161.338 52.58 163.306 52.884 165.098 53.492C166.922 54.068 168.474 54.932 169.754 56.084C171.034 57.204 172.026 58.612 172.73 60.308C173.466 61.972 173.834 63.876 173.834 66.02C173.834 68.196 173.466 70.116 172.73 71.78C172.026 73.444 171.034 74.852 169.754 76.004C168.474 77.124 166.922 77.972 165.098 78.548C163.306 79.156 161.338 79.46 159.194 79.46C157.018 79.46 155.034 79.156 153.242 78.548C151.45 77.972 149.914 77.124 148.634 76.004C147.354 74.852 146.346 73.444 145.61 71.78C144.906 70.116 144.554 68.196 144.554 66.02C144.554 63.876 144.906 61.972 145.61 60.308C146.346 58.612 147.354 57.204 148.634 56.084C149.914 54.932 151.45 54.068 153.242 53.492C155.034 52.884 157.018 52.58 159.194 52.58ZM193.764 74.18L201.684 53.54H211.524V78.5H204.804V60.26H204.324L197.364 78.5H189.732L182.724 60.26H182.244V78.5H175.524V53.54H185.364L193.284 74.18H193.764ZM240.787 53.54V78.5H234.067V56.9H221.107V78.5H214.387V53.54H240.787ZM257.128 76.34C258.152 76.34 259.112 76.148 260.008 75.764C260.904 75.38 261.688 74.788 262.36 73.988C263.032 73.156 263.56 72.084 263.944 70.772C264.359 69.46 264.567 67.876 264.567 66.02C264.567 64.164 264.359 62.58 263.944 61.268C263.56 59.956 263.032 58.9 262.36 58.1C261.688 57.268 260.904 56.66 260.008 56.276C259.112 55.892 258.152 55.7 257.128 55.7C256.104 55.7 255.144 55.892 254.248 56.276C253.352 56.66 252.568 57.268 251.895 58.1C251.224 58.9 250.68 59.956 250.264 61.268C249.879 62.58 249.687 64.164 249.687 66.02C249.687 67.876 249.879 69.46 250.264 70.772C250.68 72.084 251.224 73.156 251.895 73.988C252.568 74.788 253.352 75.38 254.248 75.764C255.144 76.148 256.104 76.34 257.128 76.34ZM257.128 52.58C259.272 52.58 261.24 52.884 263.032 53.492C264.856 54.068 266.408 54.932 267.688 56.084C268.968 57.204 269.96 58.612 270.664 60.308C271.4 61.972 271.768 63.876 271.768 66.02C271.768 68.196 271.4 70.116 270.664 71.78C269.96 73.444 268.968 74.852 267.688 76.004C266.408 77.124 264.856 77.972 263.032 78.548C261.24 79.156 259.272 79.46 257.128 79.46C254.951 79.46 252.967 79.156 251.175 78.548C249.383 77.972 247.847 77.124 246.567 76.004C245.287 74.852 244.279 73.444 243.543 71.78C242.839 70.116 242.487 68.196 242.487 66.02C242.487 63.876 242.839 61.972 243.543 60.308C244.279 58.612 245.287 57.204 246.567 56.084C247.847 54.932 249.383 54.068 251.175 53.492C252.967 52.884 254.951 52.58 257.128 52.58ZM299.857 53.54V78.5H293.137V67.46H280.177V78.5H273.457V53.54H280.177V64.1H293.137V53.54H299.857ZM317.158 76.1C318.726 76.1 320.182 75.828 321.526 75.284C322.902 74.74 324.246 73.972 325.558 72.98L327.478 75.86C326.87 76.404 326.15 76.9 325.318 77.348C324.518 77.796 323.638 78.18 322.678 78.5C321.75 78.788 320.774 79.012 319.75 79.172C318.726 79.364 317.702 79.46 316.678 79.46C314.406 79.46 312.326 79.156 310.438 78.548C308.582 77.972 306.998 77.124 305.686 76.004C304.374 74.852 303.35 73.444 302.614 71.78C301.91 70.116 301.558 68.196 301.558 66.02C301.558 63.876 301.894 61.972 302.566 60.308C303.27 58.612 304.23 57.204 305.446 56.084C306.694 54.932 308.166 54.068 309.862 53.492C311.558 52.884 313.43 52.58 315.478 52.58C317.398 52.58 319.206 52.868 320.902 53.444C322.598 54.02 324.07 54.868 325.318 55.988C326.566 57.076 327.558 58.404 328.294 59.972C329.03 61.54 329.398 63.316 329.398 65.3V68.66H308.902C309.286 71.316 310.198 73.22 311.638 74.372C313.11 75.524 314.95 76.1 317.158 76.1ZM315.478 55.7C314.55 55.7 313.686 55.876 312.886 56.228C312.086 56.58 311.382 57.14 310.774 57.908C310.198 58.676 309.718 59.668 309.334 60.884C308.982 62.1 308.79 63.572 308.758 65.3H322.198C322.198 63.636 322.006 62.196 321.622 60.98C321.238 59.764 320.726 58.772 320.086 58.004C319.478 57.204 318.758 56.628 317.926 56.276C317.126 55.892 316.31 55.7 315.478 55.7ZM357.474 53.54V78.5H350.754V67.46H337.794V78.5H331.074V53.54H337.794V64.1H350.754V53.54H357.474ZM384.374 56.9H374.294V78.5H367.574V56.9H357.494V53.54H384.374V56.9ZM409.319 75.86C411.079 75.86 412.695 75.62 414.167 75.14C415.639 74.628 416.919 73.876 418.007 72.884C419.127 71.86 420.023 70.564 420.695 68.996C421.367 67.428 421.783 65.556 421.943 63.38H403.847V59.78H421.943C421.783 57.668 421.367 55.844 420.695 54.308C420.023 52.772 419.143 51.508 418.055 50.516C416.999 49.492 415.767 48.74 414.359 48.26C412.951 47.78 411.431 47.54 409.799 47.54C407.623 47.54 405.527 47.924 403.511 48.692C401.527 49.428 399.623 50.644 397.799 52.34L395.399 49.46C397.223 47.764 399.431 46.42 402.023 45.428C404.615 44.436 407.367 43.94 410.279 43.94C413.159 43.94 415.767 44.324 418.103 45.092C420.471 45.86 422.487 46.996 424.151 48.5C425.847 50.004 427.159 51.86 428.087 54.068C429.015 56.276 429.479 58.82 429.479 61.7C429.479 64.58 429.015 67.124 428.087 69.332C427.159 71.54 425.831 73.396 424.103 74.9C422.407 76.404 420.343 77.54 417.911 78.308C415.511 79.076 412.807 79.46 409.799 79.46C406.887 79.46 404.135 78.964 401.543 77.972C398.951 76.98 396.743 75.636 394.919 73.94L397.319 71.06C399.143 72.756 401.047 73.988 403.031 74.756C405.047 75.492 407.143 75.86 409.319 75.86ZM457.801 53.54V78.5H451.081V67.46H438.121V78.5H431.401V53.54H438.121V64.1H451.081V53.54H457.801ZM475.102 76.1C476.67 76.1 478.126 75.828 479.47 75.284C480.846 74.74 482.19 73.972 483.502 72.98L485.422 75.86C484.814 76.404 484.094 76.9 483.262 77.348C482.462 77.796 481.582 78.18 480.622 78.5C479.694 78.788 478.718 79.012 477.694 79.172C476.67 79.364 475.646 79.46 474.622 79.46C472.35 79.46 470.27 79.156 468.382 78.548C466.526 77.972 464.942 77.124 463.63 76.004C462.318 74.852 461.294 73.444 460.558 71.78C459.854 70.116 459.502 68.196 459.502 66.02C459.502 63.876 459.838 61.972 460.51 60.308C461.214 58.612 462.174 57.204 463.39 56.084C464.638 54.932 466.11 54.068 467.806 53.492C469.502 52.884 471.374 52.58 473.422 52.58C475.342 52.58 477.15 52.868 478.846 53.444C480.542 54.02 482.014 54.868 483.262 55.988C484.51 57.076 485.502 58.404 486.238 59.972C486.974 61.54 487.342 63.316 487.342 65.3V68.66H466.846C467.23 71.316 468.142 73.22 469.582 74.372C471.054 75.524 472.894 76.1 475.102 76.1ZM473.422 55.7C472.494 55.7 471.63 55.876 470.83 56.228C470.03 56.58 469.326 57.14 468.718 57.908C468.142 58.676 467.662 59.668 467.278 60.884C466.926 62.1 466.734 63.572 466.702 65.3H480.142C480.142 63.636 479.95 62.196 479.566 60.98C479.182 59.764 478.67 58.772 478.03 58.004C477.422 57.204 476.702 56.628 475.87 56.276C475.07 55.892 474.254 55.7 473.422 55.7ZM495.738 56.9V75.14H501.738C502.826 75.14 503.818 74.98 504.714 74.66C505.642 74.308 506.426 73.764 507.066 73.028C507.738 72.292 508.25 71.348 508.602 70.196C508.986 69.044 509.178 67.652 509.178 66.02C509.178 64.388 508.986 62.996 508.602 61.844C508.25 60.692 507.738 59.748 507.066 59.012C506.426 58.276 505.642 57.748 504.714 57.428C503.818 57.076 502.826 56.9 501.738 56.9H495.738ZM501.738 53.54C503.946 53.54 505.946 53.828 507.738 54.404C509.562 54.98 511.114 55.812 512.394 56.9C513.674 57.988 514.65 59.3 515.322 60.836C516.026 62.372 516.378 64.1 516.378 66.02C516.378 67.94 516.026 69.668 515.322 71.204C514.65 72.74 513.674 74.052 512.394 75.14C511.114 76.228 509.562 77.06 507.738 77.636C505.946 78.212 503.946 78.5 501.738 78.5H495.738V87.14H489.018V53.54H501.738ZM538.197 56.9H524.757V78.5H518.037V53.54H538.197V56.9ZM565.077 53.54V78.5H558.357V59.78H557.877L546.837 78.5H538.197V53.54H544.917V72.26H545.397L556.437 53.54H565.077ZM594.847 53.54V78.5H588.127V59.78H587.647L576.607 78.5H567.967V53.54H574.687V72.26H575.167L586.207 53.54H594.847Z" fill="black"/>
<defs>
<clipPath id="clip0_28_7">
<rect width="100" height="100" fill="white"/>
</clipPath>
</defs>
</svg>
