<svg width="81" height="65" viewBox="0 0 81 65" fill="none" xmlns="http://www.w3.org/2000/svg">
<path d="M72.2947 12.0292H53.4854V7.95283C53.4854 3.76853 50.6867 0.36438 47.2481 0.36438H33.7547C30.3152 0.36438 27.5174 3.76853 27.5174 7.95283V12.0292H8.7053C4.18107 12.0292 0.5 15.7093 0.5 20.2345V56.4303C0.5 60.9545 4.18012 64.6356 8.7053 64.6356H72.2947C76.8189 64.6356 80.5 60.9555 80.5 56.4303V20.2345C80.5 15.7093 76.8189 12.0292 72.2947 12.0292ZM30.3821 7.95283C30.3821 5.39183 31.9261 3.22903 33.7547 3.22903H47.2481C49.0768 3.22903 50.6208 5.39183 50.6208 7.95283V12.0292H30.3821V7.95283ZM77.6354 56.4303C77.6354 59.3751 75.2396 61.7709 72.2947 61.7709H8.7053C5.76044 61.7709 3.36465 59.3751 3.36465 56.4303V20.2345C3.36465 17.2897 5.76044 14.8939 8.7053 14.8939H72.2947C75.2396 14.8939 77.6354 17.2897 77.6354 20.2345V56.4303Z" fill="black"/>
<path d="M24.2384 40.2603C23.4468 40.2603 22.806 40.902 22.806 41.6926V53.8292C22.806 54.6198 23.4468 55.2615 24.2384 55.2615C25.0299 55.2615 25.6707 54.6198 25.6707 53.8292V41.6926C25.6707 40.902 25.0299 40.2603 24.2384 40.2603Z" fill="black"/>
<path d="M34.1243 35.6329C33.3327 35.6329 32.692 36.2746 32.692 37.0653V53.8301C32.692 54.6208 33.3327 55.2624 34.1243 55.2624C34.9159 55.2624 35.5566 54.6208 35.5566 53.8301V37.0653C35.5566 36.2746 34.9159 35.6329 34.1243 35.6329Z" fill="black"/>
<path d="M44.7263 31.3007C43.9357 31.3007 43.294 31.9414 43.294 32.733V53.8292C43.294 54.6198 43.9357 55.2615 44.7263 55.2615C45.517 55.2615 46.1587 54.6198 46.1587 53.8292V32.733C46.1587 31.9414 45.517 31.3007 44.7263 31.3007Z" fill="black"/>
<path d="M55.8087 26.3515C55.018 26.3515 54.3763 26.9922 54.3763 27.7838V53.8292C54.3763 54.6198 55.018 55.2615 55.8087 55.2615C56.5993 55.2615 57.241 54.6198 57.241 53.8292V27.7838C57.241 26.9922 56.6003 26.3515 55.8087 26.3515Z" fill="black"/>
</svg>
