<svg width="76" height="81" viewBox="0 0 76 81" fill="none" xmlns="http://www.w3.org/2000/svg">
<path d="M75.0845 23.1224V23.1189C75.0845 23.1154 75.0836 23.1127 75.0836 23.1092C75.0827 23.0142 75.0695 22.9192 75.0484 22.8259C75.0414 22.796 75.0317 22.7679 75.0229 22.7388C75.0035 22.6746 74.9789 22.6113 74.949 22.5488C74.9332 22.5163 74.9164 22.4837 74.898 22.4529C74.8857 22.4318 74.8768 22.4081 74.8637 22.3878C74.8399 22.3526 74.8109 22.3236 74.7845 22.2911C74.7634 22.2647 74.744 22.2383 74.7211 22.2137C74.6534 22.1415 74.5804 22.0773 74.5003 22.0236C74.4994 22.0228 74.4986 22.0219 74.4977 22.021L74.4968 22.0201C74.4942 22.0184 74.4915 22.0166 74.4898 22.0148L42.4941 0.721032C42.0507 0.426323 41.4745 0.426323 41.0311 0.721032L29.7688 8.22951L29.7679 8.23038L19.4197 15.1283C19.2781 15.1908 19.1452 15.2761 19.0309 15.3878L1.51286 27.0671C1.42841 27.1225 1.35099 27.1912 1.27885 27.2668C1.25598 27.2914 1.23663 27.3178 1.21551 27.3442C1.18912 27.3768 1.16009 27.4049 1.13634 27.441C1.12226 27.4612 1.11435 27.4841 1.10203 27.5052C1.08355 27.5369 1.06596 27.5694 1.05013 27.6037C1.02109 27.6644 0.997342 27.7269 0.977988 27.7902C0.968311 27.821 0.958634 27.8501 0.951596 27.8809C0.931362 27.9706 0.919046 28.0612 0.918166 28.1527C0.918166 28.1597 0.915527 28.1659 0.915527 28.172V28.1791V57.8804C0.915527 58.3221 1.13634 58.7347 1.50407 58.9792L33.5059 80.2792C33.5103 80.2818 33.5147 80.2827 33.5191 80.2853C33.6115 80.3452 33.7126 80.39 33.8182 80.4261C33.8446 80.4349 33.8701 80.4437 33.8965 80.4507C34.0056 80.4798 34.1182 80.5 34.2361 80.5C34.354 80.5 34.4666 80.4798 34.5757 80.4499C34.6021 80.4428 34.6284 80.434 34.654 80.4252C34.7622 80.3892 34.866 80.3434 34.9592 80.2818C34.9619 80.2801 34.9645 80.2792 34.9671 80.2783L34.9724 80.2748C34.9733 80.2748 34.9733 80.2739 34.9742 80.2739L74.495 53.9261C74.8619 53.6815 75.0827 53.2698 75.0827 52.8282V23.1286C75.0845 23.1268 75.0845 23.1242 75.0845 23.1224ZM41.7639 3.4042L71.3843 23.1198L62.0161 29.3658L32.8364 9.35643L41.7639 3.4042ZM34.237 47.8859L4.61478 28.1703L19.9616 17.9391L49.1422 37.9485L34.237 47.8859ZM30.47 10.9338L59.6497 30.9432L51.5078 36.3711L22.3272 16.3617L30.47 10.9338ZM52.7895 38.6883L60.6235 33.4654L60.3446 45.8994L52.7895 50.8558V38.6883ZM3.55471 30.6344L32.9174 50.1784V76.7163L3.55471 57.1731V30.6344ZM35.5566 76.7145V50.1775L50.1504 40.4478V53.2997C50.1504 53.7844 50.4169 54.2305 50.8427 54.4609C51.0398 54.5665 51.2553 54.6193 51.4699 54.6193C51.7224 54.6193 51.9749 54.5472 52.194 54.4029L62.3724 47.7249C62.7349 47.4865 62.9574 47.0853 62.968 46.6507L63.3032 31.6786L72.4453 25.5839V52.1217L35.5566 76.7145Z" fill="black"/>
<path d="M30.5034 56.7341C30.9301 56.7341 31.3488 56.5283 31.6031 56.1456C32.0069 55.5394 31.8424 54.7195 31.2362 54.3157L16.1172 44.2525C15.5102 43.8487 14.6903 44.0124 14.2874 44.6203C13.8836 45.2264 14.0481 46.0463 14.6542 46.4501L29.7741 56.5133C29.9984 56.6629 30.2527 56.7341 30.5034 56.7341Z" fill="black"/>
<path d="M31.2363 61.1996L22.578 55.4365C21.971 55.0327 21.1511 55.1972 20.7481 55.8042C20.3443 56.4104 20.5089 57.2303 21.115 57.6341L29.7733 63.3972C29.9976 63.5467 30.2518 63.618 30.5034 63.618C30.9301 63.618 31.3489 63.4121 31.6031 63.0294C32.0069 62.4224 31.8424 61.6034 31.2363 61.1996Z" fill="black"/>
</svg>
