<svg width="40" height="40" viewBox="0 0 40 40" fill="none" xmlns="http://www.w3.org/2000/svg">
<path d="M0.213799 35.4596L7.81565 27.9091C7.95219 27.7734 8.13781 27.6971 8.33119 27.6971C8.52409 27.6971 8.71019 27.7734 8.84721 27.9091L10.0945 29.1497L12.3384 26.92C9.60084 24.0587 7.91574 20.1949 7.91574 15.9442C7.91574 7.15257 15.1124 2.44528e-08 23.9581 2.44528e-08C32.8034 -0.000482898 40 7.15209 40 15.9437C40 24.7358 32.8034 31.8879 23.9576 31.8879C19.9121 31.8879 16.2139 30.3884 13.3889 27.924L11.1241 30.1745L12.1688 31.2132C12.4531 31.4962 12.4531 31.955 12.1683 32.2375L4.56694 39.788C4.43041 39.9237 4.2448 40 4.05141 40C3.85803 40 3.6729 39.9237 3.53588 39.788L0.213314 36.4838C0.0767771 36.3481 0 36.1637 0 35.9715C0.000485897 35.7793 0.0772615 35.5953 0.213799 35.4596ZM38.5423 15.9437C38.5423 7.95084 31.9997 1.44829 23.9576 1.44829C15.9156 1.44829 9.37295 7.95084 9.37295 15.9437C9.37295 23.9365 15.9156 30.4391 23.9576 30.4391C31.9997 30.4391 38.5423 23.9365 38.5423 15.9437ZM4.05239 38.2513L10.6222 31.7246L8.33022 29.4452L1.75992 35.9719L4.05239 38.2513Z" fill="black"/>
</svg>
