<svg width="46" height="41" viewBox="0 0 46 41" fill="none" xmlns="http://www.w3.org/2000/svg">
<path d="M0.940021 35.6629L9.51118 28.1124C9.66513 27.9767 9.87441 27.9004 10.0925 27.9004C10.31 27.9004 10.5198 27.9767 10.6743 28.1124L12.0806 29.3531L14.6106 27.1234C11.524 24.2621 9.62403 20.3982 9.62403 16.1475C9.62403 7.35594 17.7383 0.203369 27.712 0.203369C37.6851 0.202886 45.7993 7.35546 45.7993 16.1471C45.7993 24.9392 37.6851 32.0912 27.7114 32.0912C23.15 32.0912 18.9803 30.5918 15.7951 28.1274L13.2415 30.3778L14.4194 31.4166C14.7399 31.6996 14.7399 32.1584 14.4188 32.4409L5.84823 39.9914C5.69428 40.1271 5.48501 40.2034 5.26697 40.2034C5.04892 40.2034 4.84019 40.1271 4.68569 39.9914L0.939475 36.6872C0.785528 36.5515 0.698961 36.367 0.698961 36.1748C0.699509 35.9826 0.786074 35.7986 0.940021 35.6629ZM44.1558 16.1471C44.1558 8.15421 36.7789 1.65165 27.7114 1.65165C18.6439 1.65165 11.267 8.15421 11.267 16.1471C11.267 24.1399 18.6439 30.6425 27.7114 30.6425C36.7789 30.6425 44.1558 24.1399 44.1558 16.1471ZM5.26806 38.4547L12.6756 31.928L10.0914 29.6486L2.68329 36.1753L5.26806 38.4547Z" fill="#575699"/>
</svg>
