<svg width="411" height="83" viewBox="0 0 411 83" fill="none" xmlns="http://www.w3.org/2000/svg">
<path d="M62.08 48.1706C62.08 50.722 61.546 53.125 60.478 55.3796C59.41 57.575 57.6597 59.5033 55.227 61.1646C52.8537 62.7666 49.7387 64.0423 45.882 64.9916C42.0847 65.941 37.3973 66.4156 31.82 66.4156C28.6753 66.4156 25.59 66.1783 22.564 65.7036C19.5973 65.229 16.7493 64.5466 14.02 63.6566C11.35 62.7666 8.858 61.6986 6.544 60.4526C4.28933 59.1473 2.33133 57.7233 0.67 56.1806L5.12 50.8406C8.502 53.748 12.4477 55.973 16.957 57.5156C21.4663 58.999 26.4207 59.7406 31.82 59.7406C37.8127 59.7406 42.055 58.91 44.547 57.2486C47.039 55.5873 48.285 53.303 48.285 50.3956C48.285 48.141 47.306 46.2423 45.348 44.6996C43.39 43.157 40.0673 41.644 35.38 40.1606L18.47 34.8206C12.8927 33.0406 8.68 30.786 5.832 28.0566C2.984 25.268 1.56 21.7376 1.56 17.4656C1.56 15.2703 2.06433 13.164 3.073 11.1466C4.141 9.06995 5.77267 7.26028 7.968 5.71761C10.1633 4.11562 12.952 2.86962 16.334 1.97962C19.7753 1.03028 23.899 0.555618 28.705 0.555618C31.6123 0.555618 34.49 0.792951 37.338 1.26762C40.2453 1.74228 43.0043 2.42462 45.615 3.31462C48.285 4.20462 50.7473 5.30229 53.002 6.60762C55.316 7.85362 57.3037 9.24795 58.965 10.7906L54.515 16.1306C51.133 13.2233 47.3357 11.028 43.123 9.54462C38.9103 8.00195 34.1043 7.23062 28.705 7.23062C24.255 7.23062 20.9027 8.00195 18.648 9.54462C16.4527 11.0873 15.355 12.986 15.355 15.2406C15.355 16.4866 15.5627 17.5843 15.978 18.5336C16.3933 19.4236 17.0757 20.284 18.025 21.1146C19.0337 21.886 20.339 22.6276 21.941 23.3396C23.543 23.9923 25.5307 24.7043 27.904 25.4756L44.725 30.8156C50.1243 32.5363 54.3667 34.791 57.452 37.5796C60.5373 40.3683 62.08 43.8986 62.08 48.1706ZM112.81 64.6356H100.35V36.6006C100.35 32.3286 99.282 29.273 97.146 27.4336C95.01 25.535 91.9247 24.5856 87.89 24.5856H76.32V64.6356H63.86V2.33562H76.32V18.3556H87.89C96.3747 18.3556 102.634 19.8983 106.669 22.9836C110.763 26.0096 112.81 30.5486 112.81 36.6006V64.6356ZM142.587 60.6306C144.485 60.6306 146.265 60.2746 147.927 59.5626C149.588 58.8506 151.042 57.753 152.288 56.2696C153.534 54.727 154.513 52.7393 155.225 50.3066C155.996 47.874 156.382 44.937 156.382 41.4956C156.382 38.0543 155.996 35.1173 155.225 32.6846C154.513 30.252 153.534 28.294 152.288 26.8106C151.042 25.268 149.588 24.1406 147.927 23.4286C146.265 22.7166 144.485 22.3606 142.587 22.3606C140.688 22.3606 138.908 22.7166 137.247 23.4286C135.585 24.1406 134.132 25.268 132.886 26.8106C131.64 28.294 130.631 30.252 129.86 32.6846C129.148 35.1173 128.792 38.0543 128.792 41.4956C128.792 44.937 129.148 47.874 129.86 50.3066C130.631 52.7393 131.64 54.727 132.886 56.2696C134.132 57.753 135.585 58.8506 137.247 59.5626C138.908 60.2746 140.688 60.6306 142.587 60.6306ZM142.587 16.5756C146.562 16.5756 150.211 17.1393 153.534 18.2666C156.916 19.3346 159.793 20.9366 162.167 23.0726C164.54 25.1493 166.379 27.76 167.685 30.9046C169.049 33.99 169.732 37.5203 169.732 41.4956C169.732 45.5303 169.049 49.0903 167.685 52.1756C166.379 55.261 164.54 57.8716 162.167 60.0076C159.793 62.0843 156.916 63.6566 153.534 64.7246C150.211 65.852 146.562 66.4156 142.587 66.4156C138.552 66.4156 134.873 65.852 131.551 64.7246C128.228 63.6566 125.38 62.0843 123.007 60.0076C120.633 57.8716 118.764 55.261 117.4 52.1756C116.094 49.0903 115.442 45.5303 115.442 41.4956C115.442 37.5203 116.094 33.99 117.4 30.9046C118.764 27.76 120.633 25.1493 123.007 23.0726C125.38 20.9366 128.228 19.3346 131.551 18.2666C134.873 17.1393 138.552 16.5756 142.587 16.5756ZM185.324 24.5856V58.4056H196.449C198.466 58.4056 200.306 58.109 201.967 57.5156C203.688 56.863 205.141 55.8543 206.328 54.4896C207.574 53.125 208.523 51.3746 209.176 49.2386C209.888 47.1026 210.244 44.5216 210.244 41.4956C210.244 38.4696 209.888 35.8886 209.176 33.7526C208.523 31.6166 207.574 29.8663 206.328 28.5016C205.141 27.137 203.688 26.158 201.967 25.5646C200.306 24.912 198.466 24.5856 196.449 24.5856H185.324ZM196.449 18.3556C200.543 18.3556 204.251 18.8896 207.574 19.9576C210.956 21.0256 213.834 22.5683 216.207 24.5856C218.58 26.603 220.39 29.0356 221.636 31.8836C222.941 34.7316 223.594 37.9356 223.594 41.4956C223.594 45.0556 222.941 48.2596 221.636 51.1076C220.39 53.9556 218.58 56.3883 216.207 58.4056C213.834 60.423 210.956 61.9656 207.574 63.0336C204.251 64.1016 200.543 64.6356 196.449 64.6356H185.324V80.6556H172.864V18.3556H196.449ZM258.711 2.33562C263.161 2.33562 267.136 2.83995 270.637 3.84862C274.197 4.79795 277.193 6.22195 279.626 8.12062C282.059 9.95995 283.928 12.2443 285.233 14.9736C286.538 17.6436 287.191 20.6993 287.191 24.1406C287.191 27.582 286.538 30.6673 285.233 33.3966C283.928 36.0666 282.059 38.351 279.626 40.2496C277.193 42.089 274.197 43.513 270.637 44.5216C267.136 45.471 263.161 45.9456 258.711 45.9456H239.576V64.6356H226.671V2.33562H258.711ZM239.576 9.01062V39.2706H258.711C263.398 39.2706 267.018 38.0543 269.569 35.6216C272.18 33.1296 273.485 29.3026 273.485 24.1406C273.485 18.9786 272.18 15.1813 269.569 12.7486C267.018 10.2566 263.398 9.01062 258.711 9.01062H239.576ZM302.769 64.6356H290.309V19.2456H302.769V64.6356ZM303.214 7.23062C303.214 9.01062 302.591 10.583 301.345 11.9476C300.159 13.253 298.557 13.9056 296.539 13.9056C294.522 13.9056 292.89 13.253 291.644 11.9476C290.458 10.583 289.864 9.01062 289.864 7.23062C289.864 5.45062 290.458 3.90795 291.644 2.60262C292.89 1.23795 294.522 0.555618 296.539 0.555618C298.497 0.555618 300.099 1.23795 301.345 2.60262C302.591 3.90795 303.214 5.45062 303.214 7.23062ZM357.508 64.6356H345.048V36.6006C345.048 32.3286 343.98 29.273 341.844 27.4336C339.708 25.535 336.623 24.5856 332.588 24.5856H321.018V64.6356H308.558V18.3556H332.588C341.073 18.3556 347.332 19.8983 351.367 22.9836C355.461 26.0096 357.508 30.5486 357.508 36.6006V64.6356ZM387.285 24.5856C383.013 24.5856 379.631 25.9206 377.139 28.5906C374.706 31.2013 373.49 35.2063 373.49 40.6056C373.49 46.005 374.706 50.0396 377.139 52.7096C379.631 55.3203 383.013 56.6256 387.285 56.6256H398.41V24.5856H387.285ZM410.87 63.7456C410.87 66.5343 410.336 69.056 409.268 71.3106C408.2 73.6246 406.598 75.6123 404.462 77.2736C402.385 78.935 399.745 80.2106 396.541 81.1006C393.396 81.9906 389.717 82.4356 385.505 82.4356C384.081 82.4356 382.538 82.317 380.877 82.0796C379.275 81.9016 377.643 81.5753 375.982 81.1006C374.32 80.6853 372.689 80.1216 371.087 79.4096C369.544 78.757 368.12 77.9856 366.815 77.0956L369.93 71.7556C371.947 73.1203 374.231 74.1883 376.783 74.9596C379.334 75.7903 381.945 76.2056 384.615 76.2056C389.065 76.2056 392.476 75.197 394.85 73.1796C397.223 71.1623 398.41 68.0176 398.41 63.7456V62.8556H387.285C383.191 62.8556 379.453 62.3216 376.071 61.2536C372.748 60.1856 369.9 58.6726 367.527 56.7146C365.153 54.7566 363.314 52.413 362.009 49.6836C360.763 46.9543 360.14 43.9283 360.14 40.6056C360.14 37.283 360.763 34.257 362.009 31.5276C363.314 28.7983 365.153 26.4546 367.527 24.4966C369.9 22.5386 372.748 21.0256 376.071 19.9576C379.453 18.8896 383.191 18.3556 387.285 18.3556H410.87V63.7456Z" fill="black"/>
</svg>
