<svg width="600" height="100" viewBox="0 0 600 100" fill="none" xmlns="http://www.w3.org/2000/svg">
<g clip-path="url(#clip0_28_7)">
<path d="M20.8362 11.6565C28.393 6.35778 37.3368 3.36256 46.6028 3.0276C55.8684 2.69278 65.0654 5.03228 73.0972 9.76754C81.1292 14.5029 87.6574 21.434 91.9044 29.7354C96.151 38.0366 97.9374 47.3582 97.0504 56.5886C96.163 65.8194 92.64 74.5702 86.9006 81.7984C81.1612 89.0264 73.4476 94.427 64.6792 97.3568C55.9104 100.286 46.4564 100.621 37.444 98.322C28.4314 96.0226 20.24 91.1858 13.8459 84.3876L18.4152 80.0888C23.9756 86.0004 31.0992 90.2068 38.9366 92.2066C46.7744 94.2062 54.996 93.9148 62.6214 91.367C70.2468 88.8196 76.9546 84.1228 81.9458 77.837C86.937 71.5514 90.0008 63.9414 90.7724 55.9142C91.5438 47.8866 89.9904 39.7806 86.2972 32.5614C82.604 25.3424 76.9268 19.3146 69.942 15.1969C62.9574 11.0788 54.9594 9.0444 46.9016 9.33568C38.8436 9.62682 31.0656 12.2317 24.4942 16.8397L20.8362 11.6565Z" fill="#97A29B"/>
<path d="M100 50C100 59.8892 97.0674 69.556 91.5732 77.7784C86.0794 86.001 78.2702 92.4094 69.134 96.194C59.9976 99.9784 49.9444 100.968 40.2456 99.0392C30.5464 97.11 21.6372 92.348 14.6447 85.3554C7.65202 78.3626 2.88996 69.4534 0.960681 59.7544C-0.968463 50.0554 0.0216944 40.0024 3.80602 30.866C7.59034 21.7296 13.999 13.9208 22.2216 8.4266C30.4438 2.93244 40.111 0 50 0V11.9858C42.4814 11.9858 35.1318 14.2153 28.8802 18.3923C22.629 22.5692 17.7566 28.5066 14.8794 35.4526C12.0023 42.3988 11.2493 50.042 12.7162 57.4162C14.1829 64.7902 17.8035 71.5636 23.1198 76.88C28.4362 82.1964 35.2096 85.8168 42.5836 87.2836C49.9578 88.7504 57.6012 87.9978 64.5472 85.1204C71.4934 82.2434 77.4306 77.3708 81.6076 71.1194C85.7846 64.868 88.0142 57.5186 88.0142 50H100Z" fill="black"/>
<mask id="mask0_28_7" style="mask-type:luminance" maskUnits="userSpaceOnUse" x="32" y="22" width="33" height="50">
<path d="M64.249 22H32.999V72H64.249V22Z" fill="white"/>
</mask>
<g mask="url(#mask0_28_7)">
<path fill-rule="evenodd" clip-rule="evenodd" d="M55.6694 33.4982L55.6662 33.4814C55.6632 33.4664 55.6586 33.4422 55.6522 33.4092C55.64 33.343 55.622 33.2426 55.6006 33.1124C55.558 32.852 55.503 32.4756 55.4546 32.022C55.357 31.1062 55.292 29.9182 55.4 28.7564C55.5104 27.567 55.7884 26.5636 56.251 25.894C56.652 25.314 57.2196 24.926 58.2474 24.926C58.8978 24.926 59.3448 25.0768 59.672 25.2804C60.008 25.4894 60.3022 25.8072 60.5556 26.2568C61.0788 27.1858 61.3292 28.4984 61.4346 29.9032C61.4264 31.3248 61.2334 32.7352 60.8634 34.0858C59.818 36.9474 59.742 40.1456 60.647 43.0652C60.6642 43.1204 60.6844 43.1744 60.708 43.2274C60.8764 43.6036 60.9818 44.0234 61.0122 44.461C61.017 44.531 61.0272 44.6 61.0418 44.668C61.5328 46.9114 61.3882 49.2772 60.6352 51.4106C59.882 53.544 58.573 55.2992 56.942 56.4526C56.6036 56.6918 56.3826 57.0582 56.332 57.4632C56.2818 57.8686 56.4066 58.276 56.6764 58.5874C57.1636 59.1498 57.3084 59.6392 57.3244 60.0452C57.3418 60.478 57.2158 60.9298 56.9852 61.3808C56.7552 61.831 56.4488 62.225 56.188 62.5132C56.0602 62.6546 55.9494 62.7636 55.8744 62.8342C55.8372 62.8694 55.8092 62.8946 55.793 62.9088L55.7794 62.9208C55.2 63.408 55.0886 64.2418 55.513 64.8546C55.5168 64.862 55.5224 64.8748 55.5284 64.892C55.5476 64.9478 55.5744 65.0588 55.5446 65.2254C55.4906 65.5268 55.1574 66.4502 53.0104 67.6894C51.1956 68.7362 48.7132 68.6716 46.0404 67.9668C43.4182 67.2746 40.9324 66.0508 39.3692 65.2088C38.4364 64.7064 37.9372 63.5618 37.7646 62.1124C37.6842 61.4346 37.689 60.792 37.7158 60.314C37.7292 60.077 37.7476 59.8862 37.762 59.758C37.769 59.694 37.7754 59.646 37.7794 59.6162L37.7838 59.5856L37.784 59.583C37.8564 59.1184 37.6964 58.6466 37.3534 58.3166C37.2708 58.2368 37.1282 58.0352 36.991 57.6256C36.8586 57.2304 36.7612 56.7336 36.7014 56.1678C36.684 56.0014 36.6698 55.8324 36.659 55.6624C37.2314 55.6874 37.7928 55.3894 38.067 54.857C38.44 54.1338 38.1422 53.2524 37.4022 52.8882C37.1566 52.7676 36.9192 52.6032 36.699 52.3968C36.6028 51.9832 36.3258 51.6298 35.9454 51.4302C35.9028 51.3106 35.8802 51.1752 35.8834 51.0344C35.8846 50.9854 35.8832 50.9368 35.8794 50.8882C35.8306 50.2694 36.2468 49.5826 37.0822 48.8942C37.4642 48.5788 37.861 48.3264 38.1672 48.151C38.3184 48.0648 38.443 47.9998 38.5258 47.9584C38.5674 47.9376 38.5982 47.9228 38.6164 47.914L38.6334 47.9062C38.6334 47.9062 36.7824 48.334 36.1566 47.0018C35.5306 45.6694 37.379 45.243 37.379 45.243L37.3758 45.2442L37.3706 45.2468L37.3554 45.2536C37.3554 45.2536 37.3464 45.258 37.3412 45.2602C37.3322 45.2644 37.3212 45.2696 37.3092 45.2752C37.2716 45.2932 37.22 45.3176 37.1572 45.3494C37.0314 45.4124 36.8578 45.5034 36.6526 45.6204C36.504 45.7054 36.3364 45.8058 36.1566 45.921C36.0912 45.6108 36.0582 45.2936 36.0582 44.9762C36.0582 44.1786 36.2666 43.3834 36.6768 42.6938C36.6634 42.7216 36.65 42.75 36.6372 42.7784L38.006 43.3778L36.7262 42.613C36.7096 42.64 36.693 42.6668 36.6768 42.6938C37.409 41.182 38.9008 40.2748 40.363 39.7124C41.8866 39.1264 43.6522 38.8078 45.2712 38.632C46.9038 38.4548 48.4624 38.4154 49.6068 38.4196C50.181 38.4214 50.6556 38.4344 50.9888 38.4468C51.1056 38.4512 51.2052 38.4556 51.2858 38.4594C51.233 38.4752 51.1788 38.489 51.123 38.5L51.429 39.9352L51.331 41.3982L51.3272 41.3978L51.307 41.3964C51.2884 41.3954 51.2592 41.3938 51.2202 41.3918C51.1422 41.3878 51.0248 41.3824 50.8732 41.3766C50.5698 41.3654 50.1304 41.353 49.5962 41.3512C48.5232 41.3476 47.0858 41.385 45.6022 41.546C44.105 41.7086 42.6348 41.9892 41.4616 42.4404C40.254 42.905 39.6164 43.4502 39.3746 43.9776C39.3484 44.0344 39.3188 44.0896 39.2854 44.1428C39.1462 44.3656 39.058 44.6576 39.058 44.9762C39.058 45.295 39.1462 45.5872 39.2854 45.8096C39.5092 46.167 39.5658 46.601 39.4408 47.0018C39.316 47.4022 39.0226 47.7312 38.6334 47.9062L36.1566 47.0018L36.7262 47.3398C36.453 46.903 36.2626 46.4208 36.1566 45.921C35.845 46.1206 35.4968 46.3654 35.1476 46.6528C34.1308 47.4912 32.756 48.9922 32.8832 51.0414C32.8808 51.5176 32.9632 51.9938 33.1296 52.4426C33.2598 52.7926 33.441 53.1254 33.6714 53.4254C33.6132 54.346 33.6072 55.4276 33.7172 56.469C33.7906 57.1638 33.9198 57.8812 34.14 58.5382C34.2808 58.958 34.4732 59.3976 34.7446 59.801C34.7358 59.9078 34.7276 60.0258 34.7202 60.1536C34.6872 60.7438 34.679 61.561 34.7846 62.451C34.9852 64.1366 35.6578 66.5576 37.921 67.7768C39.5536 68.656 42.288 70.0136 45.2588 70.7974C48.1794 71.5676 51.6626 71.8718 54.5354 70.214C57.0758 68.7482 58.234 67.2128 58.4996 65.7312C58.5908 65.2238 58.566 64.772 58.49 64.3944C58.8534 63.9854 59.3052 63.4028 59.669 62.6906C60.0514 61.9426 60.3648 60.996 60.3222 59.9304C60.2958 59.2674 60.1324 58.5984 59.8074 57.9428C61.4444 56.4698 62.7028 54.5434 63.4712 52.3668C64.3934 49.754 64.5748 46.883 63.9968 44.1536C63.937 43.4592 63.7686 42.7772 63.4952 42.1402C62.7948 39.822 62.871 37.2782 63.7058 35.0246C63.72 34.987 63.7324 34.9486 63.7432 34.9098C64.198 33.2734 64.4308 31.5698 64.4348 29.8568C64.4348 29.8212 64.4338 29.7858 64.431 29.7502C64.321 28.2242 64.0388 26.3614 63.1834 24.8434C62.7444 24.0634 62.133 23.3362 61.2836 22.8076C60.4258 22.2736 59.4078 21.9942 58.2474 21.9942C56.1856 21.9942 54.7024 22.897 53.765 24.2532C52.8894 25.52 52.5414 27.0984 52.4122 28.4912C52.2802 29.9114 52.3618 31.3052 52.4708 32.326C52.5256 32.8408 52.5886 33.271 52.6384 33.5754C52.6632 33.7278 52.685 33.8492 52.7008 33.9344C52.7084 33.9744 52.7146 34.007 52.7192 34.0304L52.7206 34.04C52.7244 34.0684 52.7304 34.1146 52.7368 34.1766C52.7506 34.3002 52.767 34.4838 52.777 34.7088C52.7974 35.1656 52.7902 35.7582 52.6918 36.3504C52.4954 37.534 52.0518 38.2304 51.2858 38.4594C51.3202 38.4614 51.3512 38.4626 51.3788 38.464C51.4014 38.4654 51.4216 38.4662 51.4392 38.4674C51.4572 38.4682 51.4724 38.4692 51.485 38.4698L51.5144 38.4718L51.523 38.4722H51.5256C51.5256 38.4722 51.5272 38.4726 51.429 39.9352C51.331 41.3982 51.331 41.3982 51.331 41.3982C51.4662 41.4068 51.6026 41.3974 51.7352 41.3702C54.4906 40.809 55.3836 38.4438 55.653 36.8196C55.7944 35.967 55.8002 35.161 55.7742 34.5802C55.7608 34.2862 55.7392 34.042 55.7202 33.867C55.7106 33.7794 55.7018 33.7086 55.6948 33.6576C55.6916 33.6318 55.6886 33.6112 55.6864 33.5956L55.6834 33.5762L55.6822 33.5694L55.6816 33.5658C55.6816 33.5658 55.6818 33.5648 54.199 33.7878L55.6816 33.5658C55.6782 33.5438 55.674 33.52 55.6694 33.4982ZM33.6714 53.4254C33.728 53.4992 33.7874 53.5706 33.85 53.64L33.6714 53.4254ZM32.8832 51.0414C32.8846 51.0652 32.8862 51.0892 32.8882 51.1132L34.3838 51.0008L32.884 50.9674C32.8836 50.992 32.8832 51.0168 32.8832 51.0414Z" fill="black"/>
<path fill-rule="evenodd" clip-rule="evenodd" d="M43.8478 47.4098L43.8706 47.4178L43.9428 47.4432C44.0066 47.4658 44.1016 47.499 44.2236 47.5414C44.4682 47.626 44.821 47.7472 45.2522 47.8908C46.116 48.179 47.2884 48.557 48.5292 48.9186C49.775 49.282 51.0644 49.6212 52.1692 49.8394C52.7218 49.9484 53.2048 50.0224 53.599 50.0562C53.9504 50.0864 54.162 50.0782 54.264 50.0654C55.7406 49.6212 57.3052 49.751 58.6982 50.4228C58.7468 50.446 58.7938 50.472 58.8396 50.5004C59.9296 51.1778 60.4766 52.1554 60.6224 53.1846C60.7586 54.1442 60.5408 55.0814 60.2754 55.8192C60.0044 56.5742 59.6384 57.2432 59.3518 57.7116C59.2064 57.949 59.0762 58.1434 58.9802 58.281C58.9322 58.35 58.8926 58.4052 58.8634 58.4448C58.8488 58.4648 58.8368 58.4808 58.8282 58.4928L58.8166 58.5076L58.8128 58.5128L58.8106 58.5158C58.8104 58.516 58.8102 58.5166 57.6084 57.639C58.5756 58.7596 58.5746 58.7604 58.5732 58.7614L58.571 58.7634L58.5658 58.7674L58.5544 58.7768C58.5462 58.7834 58.5366 58.7906 58.526 58.7988C58.5048 58.8156 58.4788 58.8352 58.4476 58.8576C58.3858 58.9024 58.3042 58.9582 58.2026 59.022C57.999 59.1492 57.7154 59.307 57.347 59.4682C56.6076 59.7926 55.5386 60.1266 54.1082 60.266C51.2412 60.5444 47.0192 60.0306 41.1814 57.2342C40.4374 56.8776 40.13 55.9994 40.4946 55.2724C40.8592 54.5454 41.7578 54.2448 42.5018 54.6014C47.9564 57.2144 51.6178 57.5614 53.8112 57.3482C54.9112 57.2414 55.6664 56.9916 56.1188 56.7932C56.3052 56.7116 56.4426 56.6376 56.5328 56.5842C56.598 56.4892 56.683 56.3606 56.7774 56.2064C57.0034 55.8372 57.2634 55.3534 57.445 54.848C57.6324 54.326 57.6944 53.8952 57.6508 53.587C57.6194 53.3656 57.5378 53.186 57.2918 53.015C56.5798 52.6946 55.815 52.6528 55.093 52.8844C55.043 52.9004 54.992 52.914 54.9404 52.9248C54.428 53.0322 53.8556 53.0214 53.3358 52.9768C52.792 52.93 52.1912 52.8346 51.5756 52.7132C50.343 52.4702 48.9558 52.1028 47.6714 51.7282C46.3822 51.3524 45.1706 50.9616 44.2834 50.6658C43.839 50.5176 43.4746 50.3928 43.2204 50.3046C43.0932 50.2604 42.9936 50.2254 42.9252 50.2014L42.8466 50.1736L42.8188 50.1638C42.8186 50.1638 42.818 50.1634 43.3152 48.8338L42.8188 50.1638C42.0408 49.8858 41.6396 49.0436 41.9242 48.2834C42.2086 47.5228 43.07 47.132 43.8478 47.4098ZM57.6084 57.639L58.5756 58.7596C58.663 58.6874 58.7422 58.6054 58.8106 58.5158L57.6084 57.639Z" fill="black"/>
<path fill-rule="evenodd" clip-rule="evenodd" d="M41.2902 62.286C41.583 61.5288 42.4488 61.1468 43.2236 61.4328C48.4006 63.345 51.687 63.5948 53.5906 63.434C54.5406 63.3538 55.153 63.1708 55.4944 63.036C55.666 62.968 55.7726 62.911 55.822 62.8822C55.8354 62.8746 55.8446 62.8688 55.85 62.8654C56.492 62.3894 57.409 62.494 57.9204 63.1096C58.4426 63.7384 58.3446 64.6616 57.7016 65.1718L56.7558 64.0338C57.7016 65.1718 57.6988 65.174 57.6988 65.174L57.696 65.1762L57.6906 65.1806L57.6784 65.19C57.6696 65.1968 57.66 65.2038 57.6494 65.2114C57.6284 65.227 57.6036 65.2448 57.575 65.2644C57.5176 65.3038 57.4448 65.3504 57.3554 65.4024C57.1768 65.5064 56.9338 65.6298 56.6192 65.7542C55.9884 66.0034 55.0828 66.2508 53.849 66.355C51.3846 66.5632 47.6398 66.1984 42.1634 64.1758C41.3882 63.8894 40.9974 63.0434 41.2902 62.286Z" fill="black"/>
<path fill-rule="evenodd" clip-rule="evenodd" d="M54.3154 43.778C54.646 43.0354 55.53 42.6956 56.2898 43.0186C58.6554 44.024 59.7754 45.446 60.1528 46.8488C60.3316 47.5126 60.3224 48.099 60.2666 48.5252C60.2388 48.7388 60.1986 48.9164 60.162 49.0494C60.1504 49.092 60.1392 49.1304 60.1284 49.164C59.7814 50.7676 58.6792 51.719 57.7862 52.2342C57.3274 52.4984 56.8932 52.6684 56.5742 52.7728C56.4132 52.8256 56.2768 52.8632 56.1754 52.8886C56.1246 52.9014 56.0824 52.9112 56.0496 52.9184C56.0332 52.922 56.0192 52.925 56.0078 52.9274L55.9926 52.9304L55.9862 52.9314L55.9822 52.9322C55.9816 52.9326 55.981 52.9328 55.6914 51.4944L55.9822 52.9322C55.1692 53.0888 54.379 52.5716 54.2192 51.7772C54.0596 50.9866 54.5832 50.2194 55.39 50.0582M57.2618 48.2972C57.2622 48.2954 57.2628 48.293 57.2638 48.2896C57.2696 48.268 57.2814 48.2208 57.2898 48.154C57.3076 48.0192 57.3116 47.8214 57.2506 47.594C57.1484 47.2138 56.7766 46.4228 55.0928 45.707C54.3326 45.3842 53.9848 44.5204 54.3154 43.778" fill="black"/>
</g>
</g>
<path d="M134.96 45.96L147.68 63H139.76L128.72 48.12H120.32V63H113.36V29.4H120.32V44.52H128.24L139.28 29.4H146.96L134.96 45.96ZM159.194 60.84C160.218 60.84 161.178 60.648 162.074 60.264C162.97 59.88 163.754 59.288 164.426 58.488C165.098 57.656 165.626 56.584 166.01 55.272C166.426 53.96 166.634 52.376 166.634 50.52C166.634 48.664 166.426 47.08 166.01 45.768C165.626 44.456 165.098 43.4 164.426 42.6C163.754 41.768 162.97 41.16 162.074 40.776C161.178 40.392 160.218 40.2 159.194 40.2C158.17 40.2 157.21 40.392 156.314 40.776C155.418 41.16 154.634 41.768 153.962 42.6C153.29 43.4 152.746 44.456 152.33 45.768C151.946 47.08 151.754 48.664 151.754 50.52C151.754 52.376 151.946 53.96 152.33 55.272C152.746 56.584 153.29 57.656 153.962 58.488C154.634 59.288 155.418 59.88 156.314 60.264C157.21 60.648 158.17 60.84 159.194 60.84ZM159.194 37.08C161.338 37.08 163.306 37.384 165.098 37.992C166.922 38.568 168.474 39.432 169.754 40.584C171.034 41.704 172.026 43.112 172.73 44.808C173.466 46.472 173.834 48.376 173.834 50.52C173.834 52.696 173.466 54.616 172.73 56.28C172.026 57.944 171.034 59.352 169.754 60.504C168.474 61.624 166.922 62.472 165.098 63.048C163.306 63.656 161.338 63.96 159.194 63.96C157.018 63.96 155.034 63.656 153.242 63.048C151.45 62.472 149.914 61.624 148.634 60.504C147.354 59.352 146.346 57.944 145.61 56.28C144.906 54.616 144.554 52.696 144.554 50.52C144.554 48.376 144.906 46.472 145.61 44.808C146.346 43.112 147.354 41.704 148.634 40.584C149.914 39.432 151.45 38.568 153.242 37.992C155.034 37.384 157.018 37.08 159.194 37.08ZM193.764 58.68L201.684 38.04H211.524V63H204.804V44.76H204.324L197.364 63H189.732L182.724 44.76H182.244V63H175.524V38.04H185.364L193.284 58.68H193.764ZM240.787 38.04V63H234.067V41.4H221.107V63H214.387V38.04H240.787ZM257.128 60.84C258.152 60.84 259.112 60.648 260.008 60.264C260.904 59.88 261.688 59.288 262.36 58.488C263.032 57.656 263.56 56.584 263.944 55.272C264.359 53.96 264.567 52.376 264.567 50.52C264.567 48.664 264.359 47.08 263.944 45.768C263.56 44.456 263.032 43.4 262.36 42.6C261.688 41.768 260.904 41.16 260.008 40.776C259.112 40.392 258.152 40.2 257.128 40.2C256.104 40.2 255.144 40.392 254.248 40.776C253.352 41.16 252.568 41.768 251.895 42.6C251.224 43.4 250.68 44.456 250.264 45.768C249.879 47.08 249.687 48.664 249.687 50.52C249.687 52.376 249.879 53.96 250.264 55.272C250.68 56.584 251.224 57.656 251.895 58.488C252.568 59.288 253.352 59.88 254.248 60.264C255.144 60.648 256.104 60.84 257.128 60.84ZM257.128 37.08C259.272 37.08 261.24 37.384 263.032 37.992C264.856 38.568 266.408 39.432 267.688 40.584C268.968 41.704 269.96 43.112 270.664 44.808C271.4 46.472 271.768 48.376 271.768 50.52C271.768 52.696 271.4 54.616 270.664 56.28C269.96 57.944 268.968 59.352 267.688 60.504C266.408 61.624 264.856 62.472 263.032 63.048C261.24 63.656 259.272 63.96 257.128 63.96C254.951 63.96 252.967 63.656 251.175 63.048C249.383 62.472 247.847 61.624 246.567 60.504C245.287 59.352 244.279 57.944 243.543 56.28C242.839 54.616 242.487 52.696 242.487 50.52C242.487 48.376 242.839 46.472 243.543 44.808C244.279 43.112 245.287 41.704 246.567 40.584C247.847 39.432 249.383 38.568 251.175 37.992C252.967 37.384 254.951 37.08 257.128 37.08ZM299.857 38.04V63H293.137V51.96H280.177V63H273.457V38.04H280.177V48.6H293.137V38.04H299.857ZM317.158 60.6C318.726 60.6 320.182 60.328 321.526 59.784C322.902 59.24 324.246 58.472 325.558 57.48L327.478 60.36C326.87 60.904 326.15 61.4 325.318 61.848C324.518 62.296 323.638 62.68 322.678 63C321.75 63.288 320.774 63.512 319.75 63.672C318.726 63.864 317.702 63.96 316.678 63.96C314.406 63.96 312.326 63.656 310.438 63.048C308.582 62.472 306.998 61.624 305.686 60.504C304.374 59.352 303.35 57.944 302.614 56.28C301.91 54.616 301.558 52.696 301.558 50.52C301.558 48.376 301.894 46.472 302.566 44.808C303.27 43.112 304.23 41.704 305.446 40.584C306.694 39.432 308.166 38.568 309.862 37.992C311.558 37.384 313.43 37.08 315.478 37.08C317.398 37.08 319.206 37.368 320.902 37.944C322.598 38.52 324.07 39.368 325.318 40.488C326.566 41.576 327.558 42.904 328.294 44.472C329.03 46.04 329.398 47.816 329.398 49.8V53.16H308.902C309.286 55.816 310.198 57.72 311.638 58.872C313.11 60.024 314.95 60.6 317.158 60.6ZM315.478 40.2C314.55 40.2 313.686 40.376 312.886 40.728C312.086 41.08 311.382 41.64 310.774 42.408C310.198 43.176 309.718 44.168 309.334 45.384C308.982 46.6 308.79 48.072 308.758 49.8H322.198C322.198 48.136 322.006 46.696 321.622 45.48C321.238 44.264 320.726 43.272 320.086 42.504C319.478 41.704 318.758 41.128 317.926 40.776C317.126 40.392 316.31 40.2 315.478 40.2ZM357.474 38.04V63H350.754V51.96H337.794V63H331.074V38.04H337.794V48.6H350.754V38.04H357.474ZM384.374 41.4H374.294V63H367.574V41.4H357.494V38.04H384.374V41.4ZM409.319 60.36C411.079 60.36 412.695 60.12 414.167 59.64C415.639 59.128 416.919 58.376 418.007 57.384C419.127 56.36 420.023 55.064 420.695 53.496C421.367 51.928 421.783 50.056 421.943 47.88H403.847V44.28H421.943C421.783 42.168 421.367 40.344 420.695 38.808C420.023 37.272 419.143 36.008 418.055 35.016C416.999 33.992 415.767 33.24 414.359 32.76C412.951 32.28 411.431 32.04 409.799 32.04C407.623 32.04 405.527 32.424 403.511 33.192C401.527 33.928 399.623 35.144 397.799 36.84L395.399 33.96C397.223 32.264 399.431 30.92 402.023 29.928C404.615 28.936 407.367 28.44 410.279 28.44C413.159 28.44 415.767 28.824 418.103 29.592C420.471 30.36 422.487 31.496 424.151 33C425.847 34.504 427.159 36.36 428.087 38.568C429.015 40.776 429.479 43.32 429.479 46.2C429.479 49.08 429.015 51.624 428.087 53.832C427.159 56.04 425.831 57.896 424.103 59.4C422.407 60.904 420.343 62.04 417.911 62.808C415.511 63.576 412.807 63.96 409.799 63.96C406.887 63.96 404.135 63.464 401.543 62.472C398.951 61.48 396.743 60.136 394.919 58.44L397.319 55.56C399.143 57.256 401.047 58.488 403.031 59.256C405.047 59.992 407.143 60.36 409.319 60.36ZM457.801 38.04V63H451.081V51.96H438.121V63H431.401V38.04H438.121V48.6H451.081V38.04H457.801ZM475.102 60.6C476.67 60.6 478.126 60.328 479.47 59.784C480.846 59.24 482.19 58.472 483.502 57.48L485.422 60.36C484.814 60.904 484.094 61.4 483.262 61.848C482.462 62.296 481.582 62.68 480.622 63C479.694 63.288 478.718 63.512 477.694 63.672C476.67 63.864 475.646 63.96 474.622 63.96C472.35 63.96 470.27 63.656 468.382 63.048C466.526 62.472 464.942 61.624 463.63 60.504C462.318 59.352 461.294 57.944 460.558 56.28C459.854 54.616 459.502 52.696 459.502 50.52C459.502 48.376 459.838 46.472 460.51 44.808C461.214 43.112 462.174 41.704 463.39 40.584C464.638 39.432 466.11 38.568 467.806 37.992C469.502 37.384 471.374 37.08 473.422 37.08C475.342 37.08 477.15 37.368 478.846 37.944C480.542 38.52 482.014 39.368 483.262 40.488C484.51 41.576 485.502 42.904 486.238 44.472C486.974 46.04 487.342 47.816 487.342 49.8V53.16H466.846C467.23 55.816 468.142 57.72 469.582 58.872C471.054 60.024 472.894 60.6 475.102 60.6ZM473.422 40.2C472.494 40.2 471.63 40.376 470.83 40.728C470.03 41.08 469.326 41.64 468.718 42.408C468.142 43.176 467.662 44.168 467.278 45.384C466.926 46.6 466.734 48.072 466.702 49.8H480.142C480.142 48.136 479.95 46.696 479.566 45.48C479.182 44.264 478.67 43.272 478.03 42.504C477.422 41.704 476.702 41.128 475.87 40.776C475.07 40.392 474.254 40.2 473.422 40.2ZM495.738 41.4V59.64H501.738C502.826 59.64 503.818 59.48 504.714 59.16C505.642 58.808 506.426 58.264 507.066 57.528C507.738 56.792 508.25 55.848 508.602 54.696C508.986 53.544 509.178 52.152 509.178 50.52C509.178 48.888 508.986 47.496 508.602 46.344C508.25 45.192 507.738 44.248 507.066 43.512C506.426 42.776 505.642 42.248 504.714 41.928C503.818 41.576 502.826 41.4 501.738 41.4H495.738ZM501.738 38.04C503.946 38.04 505.946 38.328 507.738 38.904C509.562 39.48 511.114 40.312 512.394 41.4C513.674 42.488 514.65 43.8 515.322 45.336C516.026 46.872 516.378 48.6 516.378 50.52C516.378 52.44 516.026 54.168 515.322 55.704C514.65 57.24 513.674 58.552 512.394 59.64C511.114 60.728 509.562 61.56 507.738 62.136C505.946 62.712 503.946 63 501.738 63H495.738V71.64H489.018V38.04H501.738ZM538.197 41.4H524.757V63H518.037V38.04H538.197V41.4ZM565.077 38.04V63H558.357V44.28H557.877L546.837 63H538.197V38.04H544.917V56.76H545.397L556.437 38.04H565.077ZM594.847 38.04V63H588.127V44.28H587.647L576.607 63H567.967V38.04H574.687V56.76H575.167L586.207 38.04H594.847Z" fill="black"/>
<path d="M115.4 70.2C114.992 70.2 114.608 70.272 114.248 70.416C113.896 70.56 113.588 70.78 113.324 71.076C113.06 71.372 112.848 71.748 112.688 72.204C112.536 72.652 112.46 73.184 112.46 73.8C112.46 74.416 112.536 74.952 112.688 75.408C112.848 75.856 113.06 76.228 113.324 76.524C113.588 76.82 113.896 77.04 114.248 77.184C114.608 77.328 114.992 77.4 115.4 77.4C115.808 77.4 116.188 77.328 116.54 77.184C116.9 77.04 117.212 76.82 117.476 76.524C117.74 76.228 117.948 75.856 118.1 75.408C118.26 74.952 118.34 74.416 118.34 73.8C118.34 73.184 118.26 72.652 118.1 72.204C117.948 71.748 117.74 71.372 117.476 71.076C117.212 70.78 116.9 70.56 116.54 70.416C116.188 70.272 115.808 70.2 115.4 70.2ZM115.4 69.36C116.12 69.36 116.772 69.456 117.356 69.648C117.948 69.84 118.452 70.124 118.868 70.5C119.292 70.876 119.62 71.34 119.852 71.892C120.084 72.444 120.2 73.08 120.2 73.8C120.2 74.52 120.084 75.156 119.852 75.708C119.62 76.26 119.292 76.724 118.868 77.1C118.452 77.476 117.948 77.76 117.356 77.952C116.772 78.144 116.12 78.24 115.4 78.24C114.68 78.24 114.024 78.144 113.432 77.952C112.84 77.76 112.332 77.476 111.908 77.1C111.492 76.724 111.168 76.26 110.936 75.708C110.712 75.156 110.6 74.52 110.6 73.8C110.6 73.08 110.712 72.444 110.936 71.892C111.168 71.34 111.492 70.876 111.908 70.5C112.332 70.124 112.84 69.84 113.432 69.648C114.024 69.456 114.68 69.36 115.4 69.36ZM124.945 73.08C124.705 73.08 124.477 73.128 124.261 73.224C124.045 73.312 123.853 73.448 123.685 73.632C123.517 73.808 123.385 74.032 123.289 74.304C123.193 74.568 123.145 74.88 123.145 75.24C123.145 75.616 123.193 75.944 123.289 76.224C123.385 76.496 123.517 76.724 123.685 76.908C123.853 77.092 124.045 77.232 124.261 77.328C124.477 77.416 124.705 77.46 124.945 77.46C125.185 77.46 125.413 77.416 125.629 77.328C125.845 77.232 126.037 77.092 126.205 76.908C126.373 76.724 126.505 76.496 126.601 76.224C126.697 75.944 126.745 75.616 126.745 75.24C126.745 74.88 126.697 74.568 126.601 74.304C126.505 74.032 126.373 73.808 126.205 73.632C126.037 73.448 125.845 73.312 125.629 73.224C125.413 73.128 125.185 73.08 124.945 73.08ZM125.065 72.24C125.561 72.24 126.021 72.312 126.445 72.456C126.869 72.6 127.237 72.804 127.549 73.068C127.861 73.332 128.105 73.648 128.281 74.016C128.457 74.384 128.545 74.792 128.545 75.24C128.545 75.688 128.453 76.096 128.269 76.464C128.093 76.832 127.845 77.148 127.525 77.412C127.213 77.676 126.837 77.88 126.397 78.024C125.957 78.168 125.473 78.24 124.945 78.24C124.417 78.24 123.933 78.164 123.493 78.012C123.053 77.868 122.673 77.66 122.353 77.388C122.041 77.108 121.793 76.768 121.609 76.368C121.433 75.968 121.345 75.512 121.345 75V73.62C121.345 72.364 121.645 71.416 122.245 70.776C122.845 70.136 123.685 69.764 124.765 69.66L127.885 69.36V70.74L124.885 71.04C123.205 71.208 122.365 72.068 122.365 73.62H122.485C122.725 73.164 123.057 72.82 123.481 72.588C123.905 72.356 124.433 72.24 125.065 72.24ZM129.801 78V71.76H131.481V77.16H133.641V71.76H135.321V77.16H137.481V71.76H139.161V77.16H140.181V79.8H138.801L138.561 78H129.801ZM144.803 77.4C145.195 77.4 145.559 77.332 145.895 77.196C146.239 77.06 146.575 76.868 146.903 76.62L147.383 77.34C147.231 77.476 147.051 77.6 146.843 77.712C146.643 77.824 146.423 77.92 146.183 78C145.951 78.072 145.707 78.128 145.451 78.168C145.195 78.216 144.939 78.24 144.683 78.24C144.115 78.24 143.595 78.164 143.123 78.012C142.659 77.868 142.263 77.656 141.935 77.376C141.607 77.088 141.351 76.736 141.167 76.32C140.991 75.904 140.903 75.424 140.903 74.88C140.903 74.344 140.987 73.868 141.155 73.452C141.331 73.028 141.571 72.676 141.875 72.396C142.187 72.108 142.555 71.892 142.979 71.748C143.403 71.596 143.871 71.52 144.383 71.52C144.863 71.52 145.315 71.592 145.739 71.736C146.163 71.88 146.531 72.092 146.843 72.372C147.155 72.644 147.403 72.976 147.587 73.368C147.771 73.76 147.863 74.204 147.863 74.7V75.54H142.739C142.835 76.204 143.063 76.68 143.423 76.968C143.791 77.256 144.251 77.4 144.803 77.4ZM144.383 72.3C144.151 72.3 143.935 72.344 143.735 72.432C143.535 72.52 143.359 72.66 143.207 72.852C143.063 73.044 142.943 73.292 142.847 73.596C142.759 73.9 142.711 74.268 142.703 74.7H146.063C146.063 74.284 146.015 73.924 145.919 73.62C145.823 73.316 145.695 73.068 145.535 72.876C145.383 72.676 145.203 72.532 144.995 72.444C144.795 72.348 144.591 72.3 144.383 72.3ZM152.602 71.52C152.858 71.52 153.114 71.544 153.37 71.592C153.626 71.632 153.87 71.692 154.102 71.772C154.342 71.844 154.562 71.936 154.762 72.048C154.97 72.16 155.15 72.284 155.302 72.42L154.822 73.14C154.494 72.892 154.158 72.7 153.814 72.564C153.478 72.428 153.114 72.36 152.722 72.36C152.434 72.36 152.17 72.408 151.93 72.504C151.69 72.592 151.482 72.74 151.306 72.948C151.13 73.148 150.99 73.408 150.886 73.728C150.79 74.048 150.742 74.432 150.742 74.88C150.742 75.328 150.79 75.712 150.886 76.032C150.99 76.352 151.134 76.616 151.318 76.824C151.502 77.024 151.722 77.172 151.978 77.268C152.242 77.356 152.53 77.4 152.842 77.4C153.234 77.4 153.598 77.332 153.934 77.196C154.278 77.06 154.614 76.868 154.942 76.62L155.422 77.34C155.27 77.476 155.09 77.6 154.882 77.712C154.682 77.824 154.462 77.92 154.222 78C153.99 78.072 153.746 78.128 153.49 78.168C153.234 78.216 152.978 78.24 152.722 78.24C152.154 78.24 151.634 78.164 151.162 78.012C150.698 77.868 150.302 77.656 149.974 77.376C149.646 77.088 149.39 76.736 149.206 76.32C149.03 75.904 148.942 75.424 148.942 74.88C148.942 74.344 149.03 73.868 149.206 73.452C149.39 73.028 149.642 72.676 149.962 72.396C150.282 72.108 150.666 71.892 151.114 71.748C151.562 71.596 152.058 71.52 152.602 71.52ZM162.449 72.6H159.929V78H158.249V72.6H155.729V71.76H162.449V72.6ZM169.53 73.5C169.53 73.804 169.418 74.064 169.194 74.28C168.978 74.496 168.63 74.636 168.15 74.7C168.726 74.788 169.158 74.972 169.446 75.252C169.742 75.524 169.89 75.84 169.89 76.2C169.89 76.456 169.83 76.696 169.71 76.92C169.598 77.136 169.422 77.324 169.182 77.484C168.942 77.644 168.638 77.772 168.27 77.868C167.902 77.956 167.462 78 166.95 78H163.41V71.76H166.59C167.102 71.76 167.542 71.808 167.91 71.904C168.278 71.992 168.582 72.116 168.822 72.276C169.062 72.428 169.238 72.612 169.35 72.828C169.47 73.036 169.53 73.26 169.53 73.5ZM166.95 77.16C167.31 77.16 167.59 77.068 167.79 76.884C167.99 76.7 168.09 76.472 168.09 76.2C168.09 75.928 167.99 75.7 167.79 75.516C167.59 75.332 167.31 75.24 166.95 75.24H165.09V77.16H166.95ZM166.59 74.4C166.95 74.4 167.23 74.312 167.43 74.136C167.63 73.952 167.73 73.74 167.73 73.5C167.73 73.26 167.63 73.052 167.43 72.876C167.23 72.692 166.95 72.6 166.59 72.6H165.09V74.4H166.59ZM174.575 77.46C174.831 77.46 175.071 77.412 175.295 77.316C175.519 77.22 175.715 77.072 175.883 76.872C176.051 76.664 176.183 76.396 176.279 76.068C176.383 75.74 176.435 75.344 176.435 74.88C176.435 74.416 176.383 74.02 176.279 73.692C176.183 73.364 176.051 73.1 175.883 72.9C175.715 72.692 175.519 72.54 175.295 72.444C175.071 72.348 174.831 72.3 174.575 72.3C174.319 72.3 174.079 72.348 173.855 72.444C173.631 72.54 173.435 72.692 173.267 72.9C173.099 73.1 172.963 73.364 172.859 73.692C172.763 74.02 172.715 74.416 172.715 74.88C172.715 75.344 172.763 75.74 172.859 76.068C172.963 76.396 173.099 76.664 173.267 76.872C173.435 77.072 173.631 77.22 173.855 77.316C174.079 77.412 174.319 77.46 174.575 77.46ZM174.575 71.52C175.111 71.52 175.603 71.596 176.051 71.748C176.507 71.892 176.895 72.108 177.215 72.396C177.535 72.676 177.783 73.028 177.959 73.452C178.143 73.868 178.235 74.344 178.235 74.88C178.235 75.424 178.143 75.904 177.959 76.32C177.783 76.736 177.535 77.088 177.215 77.376C176.895 77.656 176.507 77.868 176.051 78.012C175.603 78.164 175.111 78.24 174.575 78.24C174.031 78.24 173.535 78.164 173.087 78.012C172.639 77.868 172.255 77.656 171.935 77.376C171.615 77.088 171.363 76.736 171.179 76.32C171.003 75.904 170.915 75.424 170.915 74.88C170.915 74.344 171.003 73.868 171.179 73.452C171.363 73.028 171.615 72.676 171.935 72.396C172.255 72.108 172.639 71.892 173.087 71.748C173.535 71.596 174.031 71.52 174.575 71.52ZM187.173 71.52C187.429 71.52 187.685 71.544 187.941 71.592C188.197 71.632 188.441 71.692 188.673 71.772C188.913 71.844 189.133 71.936 189.333 72.048C189.541 72.16 189.721 72.284 189.873 72.42L189.393 73.14C189.065 72.892 188.729 72.7 188.385 72.564C188.049 72.428 187.685 72.36 187.293 72.36C187.005 72.36 186.741 72.408 186.501 72.504C186.261 72.592 186.053 72.74 185.877 72.948C185.701 73.148 185.561 73.408 185.457 73.728C185.361 74.048 185.313 74.432 185.313 74.88C185.313 75.328 185.361 75.712 185.457 76.032C185.561 76.352 185.705 76.616 185.889 76.824C186.073 77.024 186.293 77.172 186.549 77.268C186.813 77.356 187.101 77.4 187.413 77.4C187.805 77.4 188.169 77.332 188.505 77.196C188.849 77.06 189.185 76.868 189.513 76.62L189.993 77.34C189.841 77.476 189.661 77.6 189.453 77.712C189.253 77.824 189.033 77.92 188.793 78C188.561 78.072 188.317 78.128 188.061 78.168C187.805 78.216 187.549 78.24 187.293 78.24C186.725 78.24 186.205 78.164 185.733 78.012C185.269 77.868 184.873 77.656 184.545 77.376C184.217 77.088 183.961 76.736 183.777 76.32C183.601 75.904 183.513 75.424 183.513 74.88C183.513 74.344 183.601 73.868 183.777 73.452C183.961 73.028 184.213 72.676 184.533 72.396C184.853 72.108 185.237 71.892 185.685 71.748C186.133 71.596 186.629 71.52 187.173 71.52ZM198.809 77.46C199.065 77.46 199.305 77.412 199.529 77.316C199.753 77.22 199.949 77.072 200.117 76.872C200.285 76.664 200.417 76.396 200.513 76.068C200.617 75.74 200.669 75.344 200.669 74.88C200.669 74.416 200.617 74.02 200.513 73.692C200.417 73.364 200.285 73.1 200.117 72.9C199.949 72.692 199.753 72.54 199.529 72.444C199.305 72.348 199.065 72.3 198.809 72.3C198.553 72.3 198.313 72.348 198.089 72.444C197.865 72.54 197.669 72.692 197.501 72.9C197.333 73.1 197.197 73.364 197.093 73.692C196.997 74.02 196.949 74.416 196.949 74.88C196.949 75.344 196.997 75.74 197.093 76.068C197.197 76.396 197.333 76.664 197.501 76.872C197.669 77.072 197.865 77.22 198.089 77.316C198.313 77.412 198.553 77.46 198.809 77.46ZM198.809 71.52C199.345 71.52 199.837 71.596 200.285 71.748C200.741 71.892 201.129 72.108 201.449 72.396C201.769 72.676 202.017 73.028 202.193 73.452C202.377 73.868 202.469 74.344 202.469 74.88C202.469 75.424 202.377 75.904 202.193 76.32C202.017 76.736 201.769 77.088 201.449 77.376C201.129 77.656 200.741 77.868 200.285 78.012C199.837 78.164 199.345 78.24 198.809 78.24C198.265 78.24 197.769 78.164 197.321 78.012C196.873 77.868 196.489 77.656 196.169 77.376C195.849 77.088 195.597 76.736 195.413 76.32C195.237 75.904 195.149 75.424 195.149 74.88C195.149 74.344 195.237 73.868 195.413 73.452C195.597 73.028 195.849 72.676 196.169 72.396C196.489 72.108 196.873 71.892 197.321 71.748C197.769 71.596 198.265 71.52 198.809 71.52ZM208.892 72.6H205.532V78H203.852V71.76H208.892V72.6ZM211.532 72.6V77.16H213.032C213.304 77.16 213.552 77.12 213.776 77.04C214.008 76.952 214.204 76.816 214.364 76.632C214.532 76.448 214.66 76.212 214.748 75.924C214.844 75.636 214.892 75.288 214.892 74.88C214.892 74.472 214.844 74.124 214.748 73.836C214.66 73.548 214.532 73.312 214.364 73.128C214.204 72.944 214.008 72.812 213.776 72.732C213.552 72.644 213.304 72.6 213.032 72.6H211.532ZM213.032 71.76C213.584 71.76 214.084 71.832 214.532 71.976C214.988 72.12 215.376 72.328 215.696 72.6C216.016 72.872 216.26 73.2 216.428 73.584C216.604 73.968 216.692 74.4 216.692 74.88C216.692 75.36 216.604 75.792 216.428 76.176C216.26 76.56 216.016 76.888 215.696 77.16C215.376 77.432 214.988 77.64 214.532 77.784C214.084 77.928 213.584 78 213.032 78H211.532V80.16H209.852V71.76H213.032ZM219.447 76.02C219.447 76.78 219.907 77.16 220.827 77.16H222.507V74.88H220.827C219.907 74.88 219.447 75.26 219.447 76.02ZM222.507 74.04C222.507 73.464 222.355 73.04 222.051 72.768C221.755 72.496 221.367 72.36 220.887 72.36C220.527 72.36 220.175 72.416 219.831 72.528C219.487 72.632 219.179 72.776 218.907 72.96L218.487 72.24C218.663 72.12 218.855 72.016 219.063 71.928C219.279 71.84 219.499 71.768 219.723 71.712C219.947 71.648 220.167 71.6 220.383 71.568C220.607 71.536 220.815 71.52 221.007 71.52C221.519 71.52 221.971 71.58 222.363 71.7C222.755 71.82 223.087 71.992 223.359 72.216C223.631 72.44 223.835 72.708 223.971 73.02C224.115 73.324 224.187 73.664 224.187 74.04V78H220.827C219.739 78 218.935 77.836 218.415 77.508C217.903 77.18 217.647 76.684 217.647 76.02C217.647 75.356 217.903 74.86 218.415 74.532C218.935 74.204 219.739 74.04 220.827 74.04H222.507ZM232.401 71.76V78H230.721V75.24H227.481V78H225.801V71.76H227.481V74.4H230.721V71.76H232.401ZM240.806 71.76V78H239.126V73.32H239.006L236.246 78H234.086V71.76H235.766V76.44H235.886L238.646 71.76H240.806ZM242.308 71.76H243.988V73.92C243.988 74.312 244.1 74.612 244.324 74.82C244.548 75.02 244.916 75.12 245.428 75.12H246.988V71.76H248.668V78H246.988V75.96H245.428C244.876 75.96 244.4 75.912 244 75.816C243.608 75.72 243.284 75.584 243.028 75.408C242.78 75.232 242.596 75.02 242.476 74.772C242.364 74.516 242.308 74.232 242.308 73.92V71.76ZM253.952 77.4C254.344 77.4 254.708 77.332 255.044 77.196C255.388 77.06 255.724 76.868 256.052 76.62L256.532 77.34C256.38 77.476 256.2 77.6 255.992 77.712C255.792 77.824 255.572 77.92 255.332 78C255.1 78.072 254.856 78.128 254.6 78.168C254.344 78.216 254.088 78.24 253.832 78.24C253.264 78.24 252.744 78.164 252.272 78.012C251.808 77.868 251.412 77.656 251.084 77.376C250.756 77.088 250.5 76.736 250.316 76.32C250.14 75.904 250.052 75.424 250.052 74.88C250.052 74.344 250.136 73.868 250.304 73.452C250.48 73.028 250.72 72.676 251.024 72.396C251.336 72.108 251.704 71.892 252.128 71.748C252.552 71.596 253.02 71.52 253.532 71.52C254.012 71.52 254.464 71.592 254.888 71.736C255.312 71.88 255.68 72.092 255.992 72.372C256.304 72.644 256.552 72.976 256.736 73.368C256.92 73.76 257.012 74.204 257.012 74.7V75.54H251.888C251.984 76.204 252.212 76.68 252.572 76.968C252.94 77.256 253.4 77.4 253.952 77.4ZM253.532 72.3C253.3 72.3 253.084 72.344 252.884 72.432C252.684 72.52 252.508 72.66 252.356 72.852C252.212 73.044 252.092 73.292 251.996 73.596C251.908 73.9 251.86 74.268 251.852 74.7H255.212C255.212 74.284 255.164 73.924 255.068 73.62C254.972 73.316 254.844 73.068 254.684 72.876C254.532 72.676 254.352 72.532 254.144 72.444C253.944 72.348 253.74 72.3 253.532 72.3ZM264.991 71.76V78H263.311V75.24H260.071V78H258.391V71.76H260.071V74.4H263.311V71.76H264.991ZM273.276 71.76V78H271.596V75.24H268.356V78H266.676V71.76H268.356V74.4H271.596V71.76H273.276ZM278.321 77.46C278.577 77.46 278.817 77.412 279.041 77.316C279.265 77.22 279.461 77.072 279.629 76.872C279.797 76.664 279.929 76.396 280.025 76.068C280.129 75.74 280.181 75.344 280.181 74.88C280.181 74.416 280.129 74.02 280.025 73.692C279.929 73.364 279.797 73.1 279.629 72.9C279.461 72.692 279.265 72.54 279.041 72.444C278.817 72.348 278.577 72.3 278.321 72.3C278.065 72.3 277.825 72.348 277.601 72.444C277.377 72.54 277.181 72.692 277.013 72.9C276.845 73.1 276.709 73.364 276.605 73.692C276.509 74.02 276.461 74.416 276.461 74.88C276.461 75.344 276.509 75.74 276.605 76.068C276.709 76.396 276.845 76.664 277.013 76.872C277.181 77.072 277.377 77.22 277.601 77.316C277.825 77.412 278.065 77.46 278.321 77.46ZM278.321 71.52C278.857 71.52 279.349 71.596 279.797 71.748C280.253 71.892 280.641 72.108 280.961 72.396C281.281 72.676 281.529 73.028 281.705 73.452C281.889 73.868 281.981 74.344 281.981 74.88C281.981 75.424 281.889 75.904 281.705 76.32C281.529 76.736 281.281 77.088 280.961 77.376C280.641 77.656 280.253 77.868 279.797 78.012C279.349 78.164 278.857 78.24 278.321 78.24C277.777 78.24 277.281 78.164 276.833 78.012C276.385 77.868 276.001 77.656 275.681 77.376C275.361 77.088 275.109 76.736 274.925 76.32C274.749 75.904 274.661 75.424 274.661 74.88C274.661 74.344 274.749 73.868 274.925 73.452C275.109 73.028 275.361 72.676 275.681 72.396C276.001 72.108 276.385 71.892 276.833 71.748C277.281 71.596 277.777 71.52 278.321 71.52ZM286.603 71.04C285.851 71.04 285.283 70.868 284.899 70.524C284.515 70.172 284.323 69.724 284.323 69.18H285.703C285.703 69.484 285.791 69.732 285.967 69.924C286.151 70.108 286.363 70.2 286.603 70.2C286.843 70.2 287.051 70.108 287.227 69.924C287.411 69.732 287.503 69.484 287.503 69.18H288.883C288.883 69.724 288.691 70.172 288.307 70.524C287.923 70.868 287.355 71.04 286.603 71.04ZM290.083 71.76V78H288.403V73.32H288.283L285.523 78H283.363V71.76H285.043V76.44H285.163L287.923 71.76H290.083ZM299.321 77.46C299.577 77.46 299.817 77.412 300.041 77.316C300.265 77.22 300.461 77.072 300.629 76.872C300.797 76.664 300.929 76.396 301.025 76.068C301.129 75.74 301.181 75.344 301.181 74.88C301.181 74.416 301.129 74.02 301.025 73.692C300.929 73.364 300.797 73.1 300.629 72.9C300.461 72.692 300.265 72.54 300.041 72.444C299.817 72.348 299.577 72.3 299.321 72.3C299.065 72.3 298.825 72.348 298.601 72.444C298.377 72.54 298.181 72.692 298.013 72.9C297.845 73.1 297.709 73.364 297.605 73.692C297.509 74.02 297.461 74.416 297.461 74.88C297.461 75.344 297.509 75.74 297.605 76.068C297.709 76.396 297.845 76.664 298.013 76.872C298.181 77.072 298.377 77.22 298.601 77.316C298.825 77.412 299.065 77.46 299.321 77.46ZM299.321 71.52C299.857 71.52 300.349 71.596 300.797 71.748C301.253 71.892 301.641 72.108 301.961 72.396C302.281 72.676 302.529 73.028 302.705 73.452C302.889 73.868 302.981 74.344 302.981 74.88C302.981 75.424 302.889 75.904 302.705 76.32C302.529 76.736 302.281 77.088 301.961 77.376C301.641 77.656 301.253 77.868 300.797 78.012C300.349 78.164 299.857 78.24 299.321 78.24C298.777 78.24 298.281 78.164 297.833 78.012C297.385 77.868 297.001 77.656 296.681 77.376C296.361 77.088 296.109 76.736 295.925 76.32C295.749 75.904 295.661 75.424 295.661 74.88C295.661 74.344 295.749 73.868 295.925 73.452C296.109 73.028 296.361 72.676 296.681 72.396C297.001 72.108 297.385 71.892 297.833 71.748C298.281 71.596 298.777 71.52 299.321 71.52ZM310 72.6H307.48V78H305.8V72.6H303.28V71.76H310V72.6ZM317.081 73.5C317.081 73.804 316.969 74.064 316.745 74.28C316.529 74.496 316.181 74.636 315.701 74.7C316.277 74.788 316.709 74.972 316.997 75.252C317.293 75.524 317.441 75.84 317.441 76.2C317.441 76.456 317.381 76.696 317.261 76.92C317.149 77.136 316.973 77.324 316.733 77.484C316.493 77.644 316.189 77.772 315.821 77.868C315.453 77.956 315.013 78 314.501 78H310.961V71.76H314.141C314.653 71.76 315.093 71.808 315.461 71.904C315.829 71.992 316.133 72.116 316.373 72.276C316.613 72.428 316.789 72.612 316.901 72.828C317.021 73.036 317.081 73.26 317.081 73.5ZM314.501 77.16C314.861 77.16 315.141 77.068 315.341 76.884C315.541 76.7 315.641 76.472 315.641 76.2C315.641 75.928 315.541 75.7 315.341 75.516C315.141 75.332 314.861 75.24 314.501 75.24H312.641V77.16H314.501ZM314.141 74.4C314.501 74.4 314.781 74.312 314.981 74.136C315.181 73.952 315.281 73.74 315.281 73.5C315.281 73.26 315.181 73.052 314.981 72.876C314.781 72.692 314.501 72.6 314.141 72.6H312.641V74.4H314.141ZM322.366 77.4C322.758 77.4 323.122 77.332 323.458 77.196C323.802 77.06 324.138 76.868 324.466 76.62L324.946 77.34C324.794 77.476 324.614 77.6 324.406 77.712C324.206 77.824 323.986 77.92 323.746 78C323.514 78.072 323.27 78.128 323.014 78.168C322.758 78.216 322.502 78.24 322.246 78.24C321.678 78.24 321.158 78.164 320.686 78.012C320.222 77.868 319.826 77.656 319.498 77.376C319.17 77.088 318.914 76.736 318.73 76.32C318.554 75.904 318.466 75.424 318.466 74.88C318.466 74.344 318.55 73.868 318.718 73.452C318.894 73.028 319.134 72.676 319.438 72.396C319.75 72.108 320.118 71.892 320.542 71.748C320.966 71.596 321.434 71.52 321.946 71.52C322.426 71.52 322.878 71.592 323.302 71.736C323.726 71.88 324.094 72.092 324.406 72.372C324.718 72.644 324.966 72.976 325.15 73.368C325.334 73.76 325.426 74.204 325.426 74.7V75.54H320.302C320.398 76.204 320.626 76.68 320.986 76.968C321.354 77.256 321.814 77.4 322.366 77.4ZM321.946 72.3C321.714 72.3 321.498 72.344 321.298 72.432C321.098 72.52 320.922 72.66 320.77 72.852C320.626 73.044 320.506 73.292 320.41 73.596C320.322 73.9 320.274 74.268 320.266 74.7H323.626C323.626 74.284 323.578 73.924 323.482 73.62C323.386 73.316 323.258 73.068 323.098 72.876C322.946 72.676 322.766 72.532 322.558 72.444C322.358 72.348 322.154 72.3 321.946 72.3ZM332.324 72.6H329.804V78H328.124V72.6H325.604V71.76H332.324V72.6ZM336.282 71.52C336.538 71.52 336.794 71.544 337.05 71.592C337.306 71.632 337.55 71.692 337.782 71.772C338.022 71.844 338.242 71.936 338.442 72.048C338.65 72.16 338.83 72.284 338.982 72.42L338.502 73.14C338.174 72.892 337.838 72.7 337.494 72.564C337.158 72.428 336.794 72.36 336.402 72.36C336.114 72.36 335.85 72.408 335.61 72.504C335.37 72.592 335.162 72.74 334.986 72.948C334.81 73.148 334.67 73.408 334.566 73.728C334.47 74.048 334.422 74.432 334.422 74.88C334.422 75.328 334.47 75.712 334.566 76.032C334.67 76.352 334.814 76.616 334.998 76.824C335.182 77.024 335.402 77.172 335.658 77.268C335.922 77.356 336.21 77.4 336.522 77.4C336.914 77.4 337.278 77.332 337.614 77.196C337.958 77.06 338.294 76.868 338.622 76.62L339.102 77.34C338.95 77.476 338.77 77.6 338.562 77.712C338.362 77.824 338.142 77.92 337.902 78C337.67 78.072 337.426 78.128 337.17 78.168C336.914 78.216 336.658 78.24 336.402 78.24C335.834 78.24 335.314 78.164 334.842 78.012C334.378 77.868 333.982 77.656 333.654 77.376C333.326 77.088 333.07 76.736 332.886 76.32C332.71 75.904 332.622 75.424 332.622 74.88C332.622 74.344 332.71 73.868 332.886 73.452C333.07 73.028 333.322 72.676 333.642 72.396C333.962 72.108 334.346 71.892 334.794 71.748C335.242 71.596 335.738 71.52 336.282 71.52ZM346.129 72.6H343.609V78H341.929V72.6H339.409V71.76H346.129V72.6ZM353.21 73.5C353.21 73.804 353.098 74.064 352.874 74.28C352.658 74.496 352.31 74.636 351.83 74.7C352.406 74.788 352.838 74.972 353.126 75.252C353.422 75.524 353.57 75.84 353.57 76.2C353.57 76.456 353.51 76.696 353.39 76.92C353.278 77.136 353.102 77.324 352.862 77.484C352.622 77.644 352.318 77.772 351.95 77.868C351.582 77.956 351.142 78 350.63 78H347.09V71.76H350.27C350.782 71.76 351.222 71.808 351.59 71.904C351.958 71.992 352.262 72.116 352.502 72.276C352.742 72.428 352.918 72.612 353.03 72.828C353.15 73.036 353.21 73.26 353.21 73.5ZM350.63 77.16C350.99 77.16 351.27 77.068 351.47 76.884C351.67 76.7 351.77 76.472 351.77 76.2C351.77 75.928 351.67 75.7 351.47 75.516C351.27 75.332 350.99 75.24 350.63 75.24H348.77V77.16H350.63ZM350.27 74.4C350.63 74.4 350.91 74.312 351.11 74.136C351.31 73.952 351.41 73.74 351.41 73.5C351.41 73.26 351.31 73.052 351.11 72.876C350.91 72.692 350.63 72.6 350.27 72.6H348.77V74.4H350.27ZM358.495 77.4C358.887 77.4 359.251 77.332 359.587 77.196C359.931 77.06 360.267 76.868 360.595 76.62L361.075 77.34C360.923 77.476 360.743 77.6 360.535 77.712C360.335 77.824 360.115 77.92 359.875 78C359.643 78.072 359.399 78.128 359.143 78.168C358.887 78.216 358.631 78.24 358.375 78.24C357.807 78.24 357.287 78.164 356.815 78.012C356.351 77.868 355.955 77.656 355.627 77.376C355.299 77.088 355.043 76.736 354.859 76.32C354.683 75.904 354.595 75.424 354.595 74.88C354.595 74.344 354.679 73.868 354.847 73.452C355.023 73.028 355.263 72.676 355.567 72.396C355.879 72.108 356.247 71.892 356.671 71.748C357.095 71.596 357.563 71.52 358.075 71.52C358.555 71.52 359.007 71.592 359.431 71.736C359.855 71.88 360.223 72.092 360.535 72.372C360.847 72.644 361.095 72.976 361.279 73.368C361.463 73.76 361.555 74.204 361.555 74.7V75.54H356.431C356.527 76.204 356.755 76.68 357.115 76.968C357.483 77.256 357.943 77.4 358.495 77.4ZM358.075 72.3C357.843 72.3 357.627 72.344 357.427 72.432C357.227 72.52 357.051 72.66 356.899 72.852C356.755 73.044 356.635 73.292 356.539 73.596C356.451 73.9 356.403 74.268 356.395 74.7H359.755C359.755 74.284 359.707 73.924 359.611 73.62C359.515 73.316 359.387 73.068 359.227 72.876C359.075 72.676 358.895 72.532 358.687 72.444C358.487 72.348 358.283 72.3 358.075 72.3ZM369.534 71.76V78H367.854V75.24H364.614V78H362.934V71.76H364.614V74.4H367.854V71.76H369.534ZM377.819 71.76V78H376.139V75.24H372.899V78H371.219V71.76H372.899V74.4H376.139V71.76H377.819ZM382.864 77.46C383.12 77.46 383.36 77.412 383.584 77.316C383.808 77.22 384.004 77.072 384.172 76.872C384.34 76.664 384.472 76.396 384.568 76.068C384.672 75.74 384.724 75.344 384.724 74.88C384.724 74.416 384.672 74.02 384.568 73.692C384.472 73.364 384.34 73.1 384.172 72.9C384.004 72.692 383.808 72.54 383.584 72.444C383.36 72.348 383.12 72.3 382.864 72.3C382.608 72.3 382.368 72.348 382.144 72.444C381.92 72.54 381.724 72.692 381.556 72.9C381.388 73.1 381.252 73.364 381.148 73.692C381.052 74.02 381.004 74.416 381.004 74.88C381.004 75.344 381.052 75.74 381.148 76.068C381.252 76.396 381.388 76.664 381.556 76.872C381.724 77.072 381.92 77.22 382.144 77.316C382.368 77.412 382.608 77.46 382.864 77.46ZM382.864 71.52C383.4 71.52 383.892 71.596 384.34 71.748C384.796 71.892 385.184 72.108 385.504 72.396C385.824 72.676 386.072 73.028 386.248 73.452C386.432 73.868 386.524 74.344 386.524 74.88C386.524 75.424 386.432 75.904 386.248 76.32C386.072 76.736 385.824 77.088 385.504 77.376C385.184 77.656 384.796 77.868 384.34 78.012C383.892 78.164 383.4 78.24 382.864 78.24C382.32 78.24 381.824 78.164 381.376 78.012C380.928 77.868 380.544 77.656 380.224 77.376C379.904 77.088 379.652 76.736 379.468 76.32C379.292 75.904 379.204 75.424 379.204 74.88C379.204 74.344 379.292 73.868 379.468 73.452C379.652 73.028 379.904 72.676 380.224 72.396C380.544 72.108 380.928 71.892 381.376 71.748C381.824 71.596 382.32 71.52 382.864 71.52ZM391.266 71.52C391.522 71.52 391.778 71.544 392.034 71.592C392.29 71.632 392.534 71.692 392.766 71.772C393.006 71.844 393.226 71.936 393.426 72.048C393.634 72.16 393.814 72.284 393.966 72.42L393.486 73.14C393.158 72.892 392.822 72.7 392.478 72.564C392.142 72.428 391.778 72.36 391.386 72.36C391.098 72.36 390.834 72.408 390.594 72.504C390.354 72.592 390.146 72.74 389.97 72.948C389.794 73.148 389.654 73.408 389.55 73.728C389.454 74.048 389.406 74.432 389.406 74.88C389.406 75.328 389.454 75.712 389.55 76.032C389.654 76.352 389.798 76.616 389.982 76.824C390.166 77.024 390.386 77.172 390.642 77.268C390.906 77.356 391.194 77.4 391.506 77.4C391.898 77.4 392.262 77.332 392.598 77.196C392.942 77.06 393.278 76.868 393.606 76.62L394.086 77.34C393.934 77.476 393.754 77.6 393.546 77.712C393.346 77.824 393.126 77.92 392.886 78C392.654 78.072 392.41 78.128 392.154 78.168C391.898 78.216 391.642 78.24 391.386 78.24C390.818 78.24 390.298 78.164 389.826 78.012C389.362 77.868 388.966 77.656 388.638 77.376C388.31 77.088 388.054 76.736 387.87 76.32C387.694 75.904 387.606 75.424 387.606 74.88C387.606 74.344 387.694 73.868 387.87 73.452C388.054 73.028 388.306 72.676 388.626 72.396C388.946 72.108 389.33 71.892 389.778 71.748C390.226 71.596 390.722 71.52 391.266 71.52ZM401.113 72.6H398.593V78H396.913V72.6H394.393V71.76H401.113V72.6ZM405.554 73.92C406.578 73.92 407.322 74.104 407.786 74.472C408.258 74.832 408.494 75.328 408.494 75.96C408.494 76.592 408.258 77.092 407.786 77.46C407.322 77.82 406.578 78 405.554 78H402.074V71.76H403.754V73.92H405.554ZM403.754 74.76V77.16H405.554C405.914 77.16 406.194 77.06 406.394 76.86C406.594 76.652 406.694 76.352 406.694 75.96C406.694 75.568 406.594 75.272 406.394 75.072C406.194 74.864 405.914 74.76 405.554 74.76H403.754ZM416.05 71.52C416.546 71.52 417.006 71.596 417.43 71.748C417.854 71.892 418.222 72.108 418.534 72.396C418.846 72.676 419.09 73.028 419.266 73.452C419.442 73.868 419.53 74.344 419.53 74.88C419.53 75.424 419.442 75.904 419.266 76.32C419.09 76.736 418.846 77.088 418.534 77.376C418.222 77.656 417.854 77.868 417.43 78.012C417.006 78.164 416.546 78.24 416.05 78.24C415.578 78.24 415.138 78.172 414.73 78.036C414.33 77.908 413.978 77.72 413.674 77.472C413.37 77.216 413.122 76.9 412.93 76.524C412.738 76.148 412.622 75.72 412.582 75.24H411.43V78H409.75V71.76H411.43V74.4H412.594C412.642 73.936 412.762 73.528 412.954 73.176C413.154 72.816 413.406 72.516 413.71 72.276C414.014 72.028 414.366 71.84 414.766 71.712C415.166 71.584 415.594 71.52 416.05 71.52ZM416.05 77.46C416.258 77.46 416.462 77.412 416.662 77.316C416.87 77.22 417.05 77.072 417.202 76.872C417.362 76.664 417.49 76.396 417.586 76.068C417.682 75.74 417.73 75.344 417.73 74.88C417.73 74.416 417.682 74.02 417.586 73.692C417.49 73.364 417.362 73.1 417.202 72.9C417.05 72.692 416.87 72.54 416.662 72.444C416.462 72.348 416.258 72.3 416.05 72.3C415.842 72.3 415.634 72.348 415.426 72.444C415.226 72.54 415.046 72.692 414.886 72.9C414.734 73.1 414.61 73.364 414.514 73.692C414.418 74.02 414.37 74.416 414.37 74.88C414.37 75.344 414.418 75.74 414.514 76.068C414.61 76.396 414.734 76.664 414.886 76.872C415.046 77.072 415.226 77.22 415.426 77.316C415.634 77.412 415.842 77.46 416.05 77.46Z" fill="#97A29B"/>
<defs>
<clipPath id="clip0_28_7">
<rect width="100" height="100" fill="white"/>
</clipPath>
</defs>
</svg>
